<?xml version="1.0" encoding="utf-8"?>
<svg xmlns="http://www.w3.org/2000/svg" xmlns:xlink="http://www.w3.org/1999/xlink" width="600" height="540" viewBox="0 0 2400 2160">
<defs>
  <clipPath id="clip730">
    <rect x="0" y="0" width="2400" height="2160"/>
  </clipPath>
</defs>
<path clip-path="url(#clip730)" d="M0 2160 L2400 2160 L2400 0 L0 0  Z" fill="#ffffff" fill-rule="evenodd" fill-opacity="1"/>
<defs>
  <clipPath id="clip731">
    <rect x="480" y="0" width="1681" height="1681"/>
  </clipPath>
</defs>
<defs>
  <clipPath id="clip732">
    <rect x="132" y="114" width="2268" height="1918"/>
  </clipPath>
</defs>
<path clip-path="url(#clip732)" d="M1318.89 848.046 L1318.89 808.36 L1334.47 793.2 L1356.72 803.815 L1356.72 843.502 L1341.14 858.661 L1318.89 848.046  Z" fill="#ffffff" fill-rule="evenodd" fill-opacity="1"/>
<polyline clip-path="url(#clip732)" style="stroke:#000000; stroke-linecap:round; stroke-linejoin:round; stroke-width:2; stroke-opacity:0.2; fill:none" stroke-dasharray="1, 2" points="532.547,1642.5 1167.3,1259.38 1167.3,256.404 "/>
<polyline clip-path="url(#clip732)" style="stroke:#000000; stroke-linecap:round; stroke-linejoin:round; stroke-width:2; stroke-opacity:0.2; fill:none" stroke-dasharray="1, 2" points="755.07,1708.35 1389.83,1325.23 1389.83,322.253 "/>
<polyline clip-path="url(#clip732)" style="stroke:#000000; stroke-linecap:round; stroke-linejoin:round; stroke-width:2; stroke-opacity:0.2; fill:none" stroke-dasharray="1, 2" points="977.593,1774.2 1612.35,1391.08 1612.35,388.103 "/>
<polyline clip-path="url(#clip732)" style="stroke:#000000; stroke-linecap:round; stroke-linejoin:round; stroke-width:2; stroke-opacity:0.2; fill:none" stroke-dasharray="1, 2" points="1200.12,1840.05 1834.87,1456.93 1834.87,453.952 "/>
<polyline clip-path="url(#clip732)" style="stroke:#000000; stroke-linecap:round; stroke-linejoin:round; stroke-width:2; stroke-opacity:0.2; fill:none" stroke-dasharray="1, 2" points="1424.67,1886.39 518.139,1618.13 518.139,615.153 "/>
<polyline clip-path="url(#clip732)" style="stroke:#000000; stroke-linecap:round; stroke-linejoin:round; stroke-width:2; stroke-opacity:0.2; fill:none" stroke-dasharray="1, 2" points="1550.25,1810.59 643.722,1542.33 643.722,539.356 "/>
<polyline clip-path="url(#clip732)" style="stroke:#000000; stroke-linecap:round; stroke-linejoin:round; stroke-width:2; stroke-opacity:0.2; fill:none" stroke-dasharray="1, 2" points="1675.83,1734.8 769.305,1466.54 769.305,463.559 "/>
<polyline clip-path="url(#clip732)" style="stroke:#000000; stroke-linecap:round; stroke-linejoin:round; stroke-width:2; stroke-opacity:0.2; fill:none" stroke-dasharray="1, 2" points="1801.42,1659 894.888,1390.74 894.888,387.761 "/>
<polyline clip-path="url(#clip732)" style="stroke:#000000; stroke-linecap:round; stroke-linejoin:round; stroke-width:2; stroke-opacity:0.2; fill:none" stroke-dasharray="1, 2" points="1927,1583.2 1020.47,1314.94 1020.47,311.964 "/>
<polyline clip-path="url(#clip732)" style="stroke:#000000; stroke-linecap:round; stroke-linejoin:round; stroke-width:2; stroke-opacity:0.2; fill:none" stroke-dasharray="1, 2" points="495.79,1569 1130.55,1185.88 2037.07,1454.14 "/>
<polyline clip-path="url(#clip732)" style="stroke:#000000; stroke-linecap:round; stroke-linejoin:round; stroke-width:2; stroke-opacity:0.2; fill:none" stroke-dasharray="1, 2" points="495.79,1399.93 1130.55,1016.82 2037.07,1285.08 "/>
<polyline clip-path="url(#clip732)" style="stroke:#000000; stroke-linecap:round; stroke-linejoin:round; stroke-width:2; stroke-opacity:0.2; fill:none" stroke-dasharray="1, 2" points="495.79,1230.87 1130.55,847.759 2037.07,1116.02 "/>
<polyline clip-path="url(#clip732)" style="stroke:#000000; stroke-linecap:round; stroke-linejoin:round; stroke-width:2; stroke-opacity:0.2; fill:none" stroke-dasharray="1, 2" points="495.79,1061.81 1130.55,678.698 2037.07,946.958 "/>
<polyline clip-path="url(#clip732)" style="stroke:#000000; stroke-linecap:round; stroke-linejoin:round; stroke-width:2; stroke-opacity:0.2; fill:none" stroke-dasharray="1, 2" points="495.79,892.752 1130.55,509.637 2037.07,777.897 "/>
<polyline clip-path="url(#clip732)" style="stroke:#000000; stroke-linecap:round; stroke-linejoin:round; stroke-width:2; stroke-opacity:0.2; fill:none" stroke-dasharray="1, 2" points="495.79,723.691 1130.55,340.576 2037.07,608.836 "/>
<polyline clip-path="url(#clip730)" style="stroke:#000000; stroke-linecap:round; stroke-linejoin:round; stroke-width:4; stroke-opacity:1; fill:none" points="495.79,1631.62 1402.32,1899.88 "/>
<polyline clip-path="url(#clip730)" style="stroke:#000000; stroke-linecap:round; stroke-linejoin:round; stroke-width:4; stroke-opacity:1; fill:none" points="1130.55,245.527 2037.07,513.787 "/>
<polyline clip-path="url(#clip730)" style="stroke:#000000; stroke-linecap:round; stroke-linejoin:round; stroke-width:4; stroke-opacity:1; fill:none" points="532.547,1642.5 540.164,1637.9 "/>
<polyline clip-path="url(#clip730)" style="stroke:#000000; stroke-linecap:round; stroke-linejoin:round; stroke-width:4; stroke-opacity:1; fill:none" points="755.07,1708.35 762.687,1703.75 "/>
<polyline clip-path="url(#clip730)" style="stroke:#000000; stroke-linecap:round; stroke-linejoin:round; stroke-width:4; stroke-opacity:1; fill:none" points="977.593,1774.2 985.21,1769.6 "/>
<polyline clip-path="url(#clip730)" style="stroke:#000000; stroke-linecap:round; stroke-linejoin:round; stroke-width:4; stroke-opacity:1; fill:none" points="1200.12,1840.05 1207.73,1835.45 "/>
<path clip-path="url(#clip730)" d="M390.948 1678.28 Q391.69 1679.02 391.69 1680.07 Q391.69 1681.12 390.948 1681.86 Q390.207 1682.6 389.157 1682.6 L309.983 1682.6 Q308.933 1682.6 308.192 1681.86 Q307.451 1681.12 307.451 1680.07 Q307.451 1679.02 308.192 1678.28 Q308.933 1677.54 309.983 1677.54 L389.157 1677.54 Q390.207 1677.54 390.948 1678.28 Z" fill="#000000" fill-rule="nonzero" fill-opacity="1" /><path clip-path="url(#clip730)" d="M402.25 1690.82 L402.25 1686.93 L441.096 1627.58 Q442.084 1626.03 443.628 1626.1 Q445.049 1626.1 445.358 1626.65 Q445.666 1627.21 445.666 1629.37 L445.666 1686.93 L458.327 1686.93 L458.327 1690.82 L445.666 1690.82 L445.666 1701.81 Q445.666 1705.45 447.149 1706.63 Q448.693 1707.8 455.239 1707.8 L457.895 1707.8 L457.895 1711.69 Q452.707 1711.32 440.726 1711.32 Q428.806 1711.32 423.619 1711.69 L423.619 1707.8 L426.274 1707.8 Q432.821 1707.8 434.365 1706.69 Q435.909 1705.52 435.909 1701.81 L435.909 1690.82 L402.25 1690.82 M405.832 1686.93 L436.65 1686.93 L436.65 1639.74 L405.832 1686.93 Z" fill="#000000" fill-rule="nonzero" fill-opacity="1" /><path clip-path="url(#clip730)" d="M466.911 1671.24 Q466.911 1652.65 471.605 1642.52 Q478.151 1627.45 493.591 1627.45 Q496.864 1627.45 500.261 1628.38 Q503.719 1629.24 508.042 1632.64 Q512.427 1636.04 515.083 1641.6 Q520.147 1652.34 520.147 1671.24 Q520.147 1689.71 515.453 1699.77 Q508.598 1714.47 493.467 1714.47 Q487.786 1714.47 481.98 1711.57 Q476.237 1708.67 472.593 1701.69 Q466.911 1691.25 466.911 1671.24 M477.41 1669.7 Q477.41 1688.78 478.769 1696.38 Q480.313 1704.59 484.512 1708.17 Q488.774 1711.69 493.467 1711.69 Q498.532 1711.69 502.731 1707.93 Q506.993 1704.1 508.289 1695.88 Q509.71 1687.79 509.648 1669.7 Q509.648 1652.1 508.413 1645.06 Q506.745 1636.84 502.299 1633.57 Q497.914 1630.23 493.467 1630.23 Q491.8 1630.23 490.009 1630.73 Q488.28 1631.22 485.748 1632.64 Q483.216 1634.06 481.239 1637.58 Q479.325 1641.1 478.398 1646.41 Q477.41 1653.27 477.41 1669.7 Z" fill="#000000" fill-rule="nonzero" fill-opacity="1" /><path clip-path="url(#clip730)" d="M613.472 1744.13 Q614.213 1744.87 614.213 1745.92 Q614.213 1746.97 613.472 1747.71 Q612.731 1748.45 611.681 1748.45 L532.506 1748.45 Q531.457 1748.45 530.715 1747.71 Q529.974 1746.97 529.974 1745.92 Q529.974 1744.87 530.715 1744.13 Q531.457 1743.39 532.506 1743.39 L611.681 1743.39 Q612.731 1743.39 613.472 1744.13 Z" fill="#000000" fill-rule="nonzero" fill-opacity="1" /><path clip-path="url(#clip730)" d="M627.553 1777.54 Q627.553 1775.26 627.738 1774.58 Q627.985 1773.9 628.973 1772.85 L653.244 1745.8 Q666.522 1730.85 666.522 1717.82 Q666.522 1709.36 662.076 1703.31 Q657.691 1697.26 649.6 1697.26 Q644.042 1697.26 639.348 1700.65 Q634.655 1704.05 632.493 1710.1 Q632.864 1709.98 634.161 1709.98 Q637.31 1709.98 639.04 1711.95 Q640.831 1713.93 640.831 1716.59 Q640.831 1719.98 638.607 1721.65 Q636.446 1723.26 634.284 1723.26 Q633.42 1723.26 632.246 1723.07 Q631.135 1722.89 629.344 1721.16 Q627.553 1719.37 627.553 1716.22 Q627.553 1707.38 634.223 1700.34 Q640.954 1693.3 651.206 1693.3 Q662.817 1693.3 670.413 1700.22 Q678.071 1707.08 678.071 1717.82 Q678.071 1721.59 676.898 1725.05 Q675.786 1728.44 674.242 1731.1 Q672.76 1733.75 668.684 1738.02 Q664.608 1742.28 661.334 1745.3 Q658.061 1748.33 650.712 1754.75 L637.31 1767.78 L660.099 1767.78 Q671.216 1767.78 672.08 1766.8 Q673.316 1765 674.86 1755.56 L678.071 1755.56 L674.489 1777.54 L627.553 1777.54 Z" fill="#000000" fill-rule="nonzero" fill-opacity="1" /><path clip-path="url(#clip730)" d="M689.435 1737.09 Q689.435 1718.5 694.128 1708.37 Q700.675 1693.3 716.114 1693.3 Q719.387 1693.3 722.784 1694.23 Q726.243 1695.09 730.566 1698.49 Q734.95 1701.89 737.606 1707.45 Q742.67 1718.19 742.67 1737.09 Q742.67 1755.56 737.977 1765.62 Q731.121 1780.32 715.991 1780.32 Q710.309 1780.32 704.504 1777.42 Q698.76 1774.52 695.116 1767.54 Q689.435 1757.1 689.435 1737.09 M699.933 1735.55 Q699.933 1754.63 701.292 1762.23 Q702.836 1770.44 707.036 1774.02 Q711.297 1777.54 715.991 1777.54 Q721.055 1777.54 725.254 1773.77 Q729.516 1769.95 730.813 1761.73 Q732.233 1753.64 732.171 1735.55 Q732.171 1717.94 730.936 1710.9 Q729.269 1702.69 724.822 1699.42 Q720.437 1696.08 715.991 1696.08 Q714.323 1696.08 712.532 1696.58 Q710.803 1697.07 708.271 1698.49 Q705.739 1699.91 703.762 1703.43 Q701.848 1706.95 700.922 1712.26 Q699.933 1719.12 699.933 1735.55 Z" fill="#000000" fill-rule="nonzero" fill-opacity="1" /><path clip-path="url(#clip730)" d="M911.958 1802.94 Q911.958 1784.35 916.651 1774.22 Q923.198 1759.15 938.637 1759.15 Q941.911 1759.15 945.307 1760.08 Q948.766 1760.94 953.089 1764.34 Q957.474 1767.74 960.129 1773.29 Q965.193 1784.04 965.193 1802.94 Q965.193 1821.4 960.5 1831.47 Q953.645 1846.17 938.514 1846.17 Q932.832 1846.17 927.027 1843.27 Q921.283 1840.36 917.639 1833.39 Q911.958 1822.95 911.958 1802.94 M922.457 1801.4 Q922.457 1820.48 923.815 1828.07 Q925.359 1836.29 929.559 1839.87 Q933.82 1843.39 938.514 1843.39 Q943.578 1843.39 947.778 1839.62 Q952.039 1835.79 953.336 1827.58 Q954.756 1819.49 954.695 1801.4 Q954.695 1783.79 953.459 1776.75 Q951.792 1768.54 947.345 1765.27 Q942.96 1761.93 938.514 1761.93 Q936.846 1761.93 935.055 1762.43 Q933.326 1762.92 930.794 1764.34 Q928.262 1765.76 926.286 1769.28 Q924.371 1772.8 923.445 1778.11 Q922.457 1784.97 922.457 1801.4 Z" fill="#000000" fill-rule="nonzero" fill-opacity="1" /><path clip-path="url(#clip730)" d="M1072.6 1909.24 Q1072.6 1906.95 1072.78 1906.28 Q1073.03 1905.6 1074.02 1904.55 L1098.29 1877.5 Q1111.57 1862.55 1111.57 1849.52 Q1111.57 1841.06 1107.12 1835.01 Q1102.74 1828.95 1094.65 1828.95 Q1089.09 1828.95 1084.39 1832.35 Q1079.7 1835.75 1077.54 1841.8 Q1077.91 1841.68 1079.21 1841.68 Q1082.36 1841.68 1084.09 1843.65 Q1085.88 1845.63 1085.88 1848.28 Q1085.88 1851.68 1083.65 1853.35 Q1081.49 1854.95 1079.33 1854.95 Q1078.47 1854.95 1077.29 1854.77 Q1076.18 1854.58 1074.39 1852.85 Q1072.6 1851.06 1072.6 1847.91 Q1072.6 1839.08 1079.27 1832.04 Q1086 1825 1096.25 1825 Q1107.86 1825 1115.46 1831.92 Q1123.12 1838.77 1123.12 1849.52 Q1123.12 1853.29 1121.94 1856.75 Q1120.83 1860.14 1119.29 1862.8 Q1117.81 1865.45 1113.73 1869.71 Q1109.65 1873.98 1106.38 1877 Q1103.11 1880.03 1095.76 1886.45 L1082.36 1899.48 L1105.15 1899.48 Q1116.26 1899.48 1117.13 1898.49 Q1118.36 1896.7 1119.91 1887.25 L1123.12 1887.25 L1119.54 1909.24 L1072.6 1909.24 Z" fill="#000000" fill-rule="nonzero" fill-opacity="1" /><path clip-path="url(#clip730)" d="M1134.48 1868.79 Q1134.48 1850.2 1139.17 1840.07 Q1145.72 1825 1161.16 1825 Q1164.43 1825 1167.83 1825.93 Q1171.29 1826.79 1175.61 1830.19 Q1180 1833.59 1182.65 1839.14 Q1187.72 1849.89 1187.72 1868.79 Q1187.72 1887.25 1183.02 1897.32 Q1176.17 1912.02 1161.04 1912.02 Q1155.36 1912.02 1149.55 1909.12 Q1143.81 1906.21 1140.16 1899.24 Q1134.48 1888.8 1134.48 1868.79 M1144.98 1867.24 Q1144.98 1886.33 1146.34 1893.92 Q1147.88 1902.14 1152.08 1905.72 Q1156.34 1909.24 1161.04 1909.24 Q1166.1 1909.24 1170.3 1905.47 Q1174.56 1901.64 1175.86 1893.43 Q1177.28 1885.34 1177.22 1867.24 Q1177.22 1849.64 1175.98 1842.6 Q1174.32 1834.39 1169.87 1831.12 Q1165.48 1827.78 1161.04 1827.78 Q1159.37 1827.78 1157.58 1828.27 Q1155.85 1828.77 1153.32 1830.19 Q1150.79 1831.61 1148.81 1835.13 Q1146.89 1838.65 1145.97 1843.96 Q1144.98 1850.82 1144.98 1867.24 Z" fill="#000000" fill-rule="nonzero" fill-opacity="1" /><path clip-path="url(#clip730)" d="M609.325 2087.32 Q609.325 2090.6 607.275 2092.47 Q605.226 2094.29 602.883 2094.29 Q600.658 2094.29 599.487 2093 Q598.316 2091.71 598.316 2090.07 Q598.316 2087.85 599.956 2085.91 Q601.595 2083.98 604.055 2083.57 Q601.654 2082.05 598.082 2082.05 Q595.74 2082.05 593.69 2083.28 Q591.699 2084.51 590.47 2086.09 Q589.298 2087.67 588.244 2089.95 Q587.249 2092.18 586.839 2093.53 Q586.488 2094.81 586.195 2096.22 L582.096 2112.61 Q580.105 2120.4 580.105 2123.15 Q580.105 2126.55 581.745 2128.83 Q583.384 2131.06 586.663 2131.06 Q587.952 2131.06 589.416 2130.71 Q590.879 2130.3 592.753 2129.24 Q594.686 2128.13 596.384 2126.49 Q598.14 2124.79 599.839 2121.92 Q601.537 2119.06 602.649 2115.37 Q603.001 2114.08 604.172 2114.08 Q605.636 2114.08 605.636 2115.25 Q605.636 2116.24 604.816 2118.35 Q604.055 2120.4 602.356 2123.1 Q600.717 2125.73 598.55 2128.13 Q596.384 2130.47 593.163 2132.11 Q589.943 2133.75 586.429 2133.75 Q581.393 2133.75 578.056 2131.06 Q574.718 2128.37 573.488 2124.62 Q573.195 2125.15 572.786 2125.85 Q572.376 2126.55 571.146 2128.13 Q569.975 2129.65 568.628 2130.83 Q567.281 2131.94 565.173 2132.82 Q563.124 2133.75 560.899 2133.75 Q558.088 2133.75 555.57 2132.93 Q553.111 2132.11 551.354 2130.24 Q549.597 2128.37 549.597 2125.79 Q549.597 2122.92 551.53 2120.93 Q553.521 2118.88 556.214 2118.88 Q557.912 2118.88 559.259 2119.88 Q560.664 2120.87 560.664 2123.04 Q560.664 2125.44 559.025 2127.25 Q557.385 2129.07 555.043 2129.54 Q557.444 2131.06 561.016 2131.06 Q564.881 2131.06 567.925 2127.66 Q570.97 2124.27 572.434 2118.59 Q576.065 2104.94 577.47 2098.85 Q578.875 2092.71 578.875 2090.07 Q578.875 2087.61 578.231 2085.91 Q577.587 2084.21 576.475 2083.45 Q575.421 2082.63 574.425 2082.34 Q573.488 2082.05 572.434 2082.05 Q570.678 2082.05 568.687 2082.75 Q566.754 2083.45 564.412 2085.09 Q562.128 2086.67 559.962 2089.95 Q557.795 2093.23 556.331 2097.74 Q556.039 2099.09 554.75 2099.09 Q553.345 2099.03 553.345 2097.86 Q553.345 2096.86 554.106 2094.81 Q554.926 2092.71 556.566 2090.07 Q558.264 2087.44 560.43 2085.09 Q562.655 2082.69 565.876 2081.05 Q569.155 2079.41 572.668 2079.41 Q574.25 2079.41 575.772 2079.76 Q577.353 2080.06 579.227 2080.94 Q581.159 2081.81 582.857 2083.75 Q584.555 2085.68 585.609 2088.49 Q586.312 2087.14 587.249 2085.85 Q588.244 2084.57 589.767 2082.99 Q591.348 2081.35 593.514 2080.41 Q595.74 2079.41 598.199 2079.41 Q600.6 2079.41 602.942 2080.06 Q605.284 2080.64 607.275 2082.58 Q609.325 2084.45 609.325 2087.32 Z" fill="#000000" fill-rule="nonzero" fill-opacity="1" /><path clip-path="url(#clip730)" d="M643.919 2102.43 Q643.919 2082.17 651.473 2065.83 Q654.694 2058.98 659.203 2053.24 Q663.711 2047.5 666.698 2044.98 Q669.684 2042.46 670.504 2042.46 Q671.675 2042.46 671.734 2043.64 Q671.734 2044.22 670.153 2045.68 Q650.829 2065.36 650.888 2102.43 Q650.888 2139.61 669.684 2158.52 Q671.734 2160.57 671.734 2161.22 Q671.734 2162.39 670.504 2162.39 Q669.684 2162.39 666.815 2159.99 Q663.946 2157.59 659.495 2152.08 Q655.045 2146.58 651.825 2139.84 Q643.919 2123.51 643.919 2102.43 Z" fill="#000000" fill-rule="nonzero" fill-opacity="1" /><path clip-path="url(#clip730)" d="M680.85 2132.41 L680.85 2128.72 Q687.233 2128.72 688.697 2127.96 Q690.161 2127.14 690.161 2123.27 L690.161 2091.12 Q690.161 2086.67 688.58 2085.56 Q687.057 2084.45 680.85 2084.45 L680.85 2080.7 L697.715 2079.41 L697.715 2092 Q703.336 2079.41 715.457 2079.41 Q729.511 2079.41 731.443 2091.12 Q733.492 2086.56 737.767 2082.99 Q742.1 2079.41 748.834 2079.41 Q757.852 2079.41 761.424 2083.86 Q764.059 2086.85 764.586 2090.19 Q765.113 2093.53 765.113 2102.19 L765.113 2125.09 Q765.23 2127.6 767.162 2128.19 Q769.094 2128.72 774.482 2128.72 L774.482 2132.41 Q762.243 2132.06 761.072 2132.06 Q760.135 2132.06 747.487 2132.41 L747.487 2128.72 Q753.87 2128.72 755.334 2127.96 Q756.856 2127.14 756.856 2123.27 L756.856 2095.34 Q756.856 2089.25 754.982 2085.68 Q753.109 2082.05 747.956 2082.05 Q741.749 2082.05 736.771 2087.26 Q731.794 2092.47 731.794 2101.25 L731.794 2123.27 Q731.794 2127.14 733.258 2127.96 Q734.781 2128.72 741.163 2128.72 L741.163 2132.41 Q728.925 2132.06 727.695 2132.06 Q726.758 2132.06 714.169 2132.41 L714.169 2128.72 Q720.551 2128.72 722.015 2127.96 Q723.538 2127.14 723.538 2123.27 L723.538 2095.34 Q723.538 2089.25 721.664 2085.68 Q719.79 2082.05 714.637 2082.05 Q708.43 2082.05 703.453 2087.26 Q698.476 2092.47 698.476 2101.25 L698.476 2123.27 Q698.476 2127.14 699.94 2127.96 Q701.462 2128.72 707.786 2128.72 L707.786 2132.41 Q695.548 2132.06 694.377 2132.06 Q693.44 2132.06 680.85 2132.41 Z" fill="#000000" fill-rule="nonzero" fill-opacity="1" /><path clip-path="url(#clip730)" d="M784.058 2161.22 Q784.058 2160.63 785.581 2159.17 Q804.904 2139.49 804.904 2102.43 Q804.904 2065.24 786.342 2046.45 Q784.058 2044.28 784.058 2043.64 Q784.058 2042.46 785.229 2042.46 Q786.049 2042.46 788.918 2044.87 Q791.846 2047.27 796.238 2052.77 Q800.688 2058.27 803.967 2065.01 Q811.872 2081.35 811.872 2102.43 Q811.872 2122.69 804.319 2139.02 Q801.098 2145.87 796.589 2151.61 Q792.08 2157.35 789.094 2159.87 Q786.108 2162.39 785.229 2162.39 Q784.058 2162.39 784.058 2161.22 Z" fill="#000000" fill-rule="nonzero" fill-opacity="1" /><polyline clip-path="url(#clip730)" style="stroke:#000000; stroke-linecap:round; stroke-linejoin:round; stroke-width:4; stroke-opacity:1; fill:none" points="1402.32,1899.88 2037.07,1516.77 "/>
<polyline clip-path="url(#clip730)" style="stroke:#000000; stroke-linecap:round; stroke-linejoin:round; stroke-width:4; stroke-opacity:1; fill:none" points="495.79,628.642 1130.55,245.527 "/>
<polyline clip-path="url(#clip730)" style="stroke:#000000; stroke-linecap:round; stroke-linejoin:round; stroke-width:4; stroke-opacity:1; fill:none" points="1424.67,1886.39 1413.79,1883.17 "/>
<polyline clip-path="url(#clip730)" style="stroke:#000000; stroke-linecap:round; stroke-linejoin:round; stroke-width:4; stroke-opacity:1; fill:none" points="1550.25,1810.59 1539.37,1807.38 "/>
<polyline clip-path="url(#clip730)" style="stroke:#000000; stroke-linecap:round; stroke-linejoin:round; stroke-width:4; stroke-opacity:1; fill:none" points="1675.83,1734.8 1664.95,1731.58 "/>
<polyline clip-path="url(#clip730)" style="stroke:#000000; stroke-linecap:round; stroke-linejoin:round; stroke-width:4; stroke-opacity:1; fill:none" points="1801.42,1659 1790.54,1655.78 "/>
<polyline clip-path="url(#clip730)" style="stroke:#000000; stroke-linecap:round; stroke-linejoin:round; stroke-width:4; stroke-opacity:1; fill:none" points="1927,1583.2 1916.12,1579.98 "/>
<path clip-path="url(#clip730)" d="M1528.25 1916.82 Q1528.99 1917.56 1528.99 1918.61 Q1528.99 1919.66 1528.25 1920.4 Q1527.51 1921.15 1526.46 1921.15 L1447.28 1921.15 Q1446.23 1921.15 1445.49 1920.4 Q1444.75 1919.66 1444.75 1918.61 Q1444.75 1917.56 1445.49 1916.82 Q1446.23 1916.08 1447.28 1916.08 L1526.46 1916.08 Q1527.51 1916.08 1528.25 1916.82 Z" fill="#000000" fill-rule="nonzero" fill-opacity="1" /><path clip-path="url(#clip730)" d="M1541.34 1933.19 Q1541.34 1929.42 1543.5 1927.63 Q1545.66 1925.84 1548.44 1925.84 Q1551.34 1925.84 1553.38 1927.75 Q1555.48 1929.61 1555.48 1932.88 Q1555.48 1936.4 1553.01 1938.38 Q1550.6 1940.35 1547.14 1939.86 Q1550.17 1944.92 1555.73 1947.21 Q1561.35 1949.49 1566.54 1949.49 Q1571.97 1949.49 1576.36 1944.8 Q1580.8 1940.11 1580.8 1928.62 Q1580.8 1918.86 1576.97 1913.24 Q1573.21 1907.62 1565.73 1907.62 L1560.18 1907.62 Q1558.26 1907.62 1557.71 1907.44 Q1557.15 1907.25 1557.15 1906.2 Q1557.15 1904.97 1559.06 1904.72 Q1560.98 1904.72 1564 1904.35 Q1571.35 1904.1 1575.24 1897.74 Q1578.76 1891.81 1578.76 1883.35 Q1578.76 1875.63 1575.06 1872.42 Q1571.42 1869.15 1566.66 1869.15 Q1562.21 1869.15 1557.33 1871 Q1552.46 1872.85 1549.8 1876.99 Q1557.64 1876.99 1557.64 1883.35 Q1557.64 1886.13 1555.85 1887.98 Q1554.12 1889.77 1551.22 1889.77 Q1548.44 1889.77 1546.59 1888.04 Q1544.74 1886.25 1544.74 1883.23 Q1544.74 1876 1551.16 1871 Q1557.64 1866 1567.15 1866 Q1576.54 1866 1583.46 1870.94 Q1590.44 1875.88 1590.44 1883.47 Q1590.44 1890.95 1585.5 1897.06 Q1580.56 1903.17 1572.71 1905.71 Q1582.35 1907.62 1588.09 1914.17 Q1593.83 1920.65 1593.83 1928.62 Q1593.83 1938.5 1586.05 1945.79 Q1578.27 1953.01 1566.91 1953.01 Q1556.41 1953.01 1548.87 1947.33 Q1541.34 1941.65 1541.34 1933.19 Z" fill="#000000" fill-rule="nonzero" fill-opacity="1" /><path clip-path="url(#clip730)" d="M1604.21 1909.78 Q1604.21 1891.19 1608.9 1881.06 Q1615.45 1866 1630.89 1866 Q1634.16 1866 1637.56 1866.92 Q1641.02 1867.79 1645.34 1871.18 Q1649.73 1874.58 1652.38 1880.14 Q1657.45 1890.88 1657.45 1909.78 Q1657.45 1928.25 1652.75 1938.31 Q1645.9 1953.01 1630.77 1953.01 Q1625.08 1953.01 1619.28 1950.11 Q1613.53 1947.21 1609.89 1940.23 Q1604.21 1929.79 1604.21 1909.78 M1614.71 1908.24 Q1614.71 1927.32 1616.07 1934.92 Q1617.61 1943.13 1621.81 1946.71 Q1626.07 1950.23 1630.77 1950.23 Q1635.83 1950.23 1640.03 1946.47 Q1644.29 1942.64 1645.59 1934.42 Q1647.01 1926.33 1646.95 1908.24 Q1646.95 1890.64 1645.71 1883.6 Q1644.04 1875.38 1639.6 1872.11 Q1635.21 1868.77 1630.77 1868.77 Q1629.1 1868.77 1627.31 1869.27 Q1625.58 1869.76 1623.05 1871.18 Q1620.51 1872.6 1618.54 1876.12 Q1616.62 1879.64 1615.7 1884.96 Q1614.71 1891.81 1614.71 1908.24 Z" fill="#000000" fill-rule="nonzero" fill-opacity="1" /><path clip-path="url(#clip730)" d="M1653.83 1841.03 Q1654.57 1841.77 1654.57 1842.82 Q1654.57 1843.87 1653.83 1844.61 Q1653.09 1845.35 1652.04 1845.35 L1572.86 1845.35 Q1571.81 1845.35 1571.07 1844.61 Q1570.33 1843.87 1570.33 1842.82 Q1570.33 1841.77 1571.07 1841.03 Q1571.81 1840.28 1572.86 1840.28 L1652.04 1840.28 Q1653.09 1840.28 1653.83 1841.03 Z" fill="#000000" fill-rule="nonzero" fill-opacity="1" /><path clip-path="url(#clip730)" d="M1667.91 1874.44 Q1667.91 1872.15 1668.1 1871.47 Q1668.34 1870.79 1669.33 1869.74 L1693.6 1842.69 Q1706.88 1827.75 1706.88 1814.72 Q1706.88 1806.26 1702.43 1800.2 Q1698.05 1794.15 1689.96 1794.15 Q1684.4 1794.15 1679.71 1797.55 Q1675.01 1800.94 1672.85 1807 Q1673.22 1806.87 1674.52 1806.87 Q1677.67 1806.87 1679.4 1808.85 Q1681.19 1810.83 1681.19 1813.48 Q1681.19 1816.88 1678.97 1818.55 Q1676.8 1820.15 1674.64 1820.15 Q1673.78 1820.15 1672.6 1819.97 Q1671.49 1819.78 1669.7 1818.05 Q1667.91 1816.26 1667.91 1813.11 Q1667.91 1804.28 1674.58 1797.24 Q1681.31 1790.2 1691.56 1790.2 Q1703.17 1790.2 1710.77 1797.12 Q1718.43 1803.97 1718.43 1814.72 Q1718.43 1818.48 1717.26 1821.94 Q1716.14 1825.34 1714.6 1827.99 Q1713.12 1830.65 1709.04 1834.91 Q1704.97 1839.17 1701.69 1842.2 Q1698.42 1845.23 1691.07 1851.65 L1677.67 1864.68 L1700.46 1864.68 Q1711.57 1864.68 1712.44 1863.69 Q1713.67 1861.9 1715.22 1852.45 L1718.43 1852.45 L1714.85 1874.44 L1667.91 1874.44 Z" fill="#000000" fill-rule="nonzero" fill-opacity="1" /><path clip-path="url(#clip730)" d="M1729.79 1833.99 Q1729.79 1815.4 1734.49 1805.27 Q1741.03 1790.2 1756.47 1790.2 Q1759.75 1790.2 1763.14 1791.13 Q1766.6 1791.99 1770.92 1795.39 Q1775.31 1798.78 1777.96 1804.34 Q1783.03 1815.09 1783.03 1833.99 Q1783.03 1852.45 1778.33 1862.52 Q1771.48 1877.22 1756.35 1877.22 Q1750.67 1877.22 1744.86 1874.31 Q1739.12 1871.41 1735.47 1864.43 Q1729.79 1854 1729.79 1833.99 M1740.29 1832.44 Q1740.29 1851.52 1741.65 1859.12 Q1743.19 1867.33 1747.39 1870.92 Q1751.66 1874.44 1756.35 1874.44 Q1761.41 1874.44 1765.61 1870.67 Q1769.87 1866.84 1771.17 1858.63 Q1772.59 1850.54 1772.53 1832.44 Q1772.53 1814.84 1771.29 1807.8 Q1769.63 1799.59 1765.18 1796.31 Q1760.8 1792.98 1756.35 1792.98 Q1754.68 1792.98 1752.89 1793.47 Q1751.16 1793.97 1748.63 1795.39 Q1746.1 1796.81 1744.12 1800.33 Q1742.21 1803.85 1741.28 1809.16 Q1740.29 1816.01 1740.29 1832.44 Z" fill="#000000" fill-rule="nonzero" fill-opacity="1" /><path clip-path="url(#clip730)" d="M1779.41 1765.23 Q1780.15 1765.97 1780.15 1767.02 Q1780.15 1768.07 1779.41 1768.81 Q1778.67 1769.55 1777.62 1769.55 L1698.45 1769.55 Q1697.4 1769.55 1696.66 1768.81 Q1695.92 1768.07 1695.92 1767.02 Q1695.92 1765.97 1696.66 1765.23 Q1697.4 1764.49 1698.45 1764.49 L1777.62 1764.49 Q1778.67 1764.49 1779.41 1765.23 Z" fill="#000000" fill-rule="nonzero" fill-opacity="1" /><path clip-path="url(#clip730)" d="M1798.43 1726.44 L1798.43 1722.49 Q1813.63 1722.49 1821.47 1714.4 Q1823.63 1714.4 1824 1714.9 Q1824.37 1715.39 1824.37 1717.67 L1824.37 1788.64 Q1824.37 1792.4 1826.23 1793.58 Q1828.08 1794.75 1836.17 1794.75 L1840.18 1794.75 L1840.18 1798.64 Q1835.74 1798.27 1819.68 1798.27 Q1803.62 1798.27 1799.24 1798.64 L1799.24 1794.75 L1803.25 1794.75 Q1811.22 1794.75 1813.13 1793.64 Q1815.05 1792.46 1815.05 1788.64 L1815.05 1723.11 Q1808.44 1726.44 1798.43 1726.44 Z" fill="#000000" fill-rule="nonzero" fill-opacity="1" /><path clip-path="url(#clip730)" d="M1855.38 1758.19 Q1855.38 1739.6 1860.07 1729.47 Q1866.62 1714.4 1882.06 1714.4 Q1885.33 1714.4 1888.73 1715.33 Q1892.18 1716.19 1896.51 1719.59 Q1900.89 1722.99 1903.55 1728.54 Q1908.61 1739.29 1908.61 1758.19 Q1908.61 1776.65 1903.92 1786.72 Q1897.06 1801.42 1881.93 1801.42 Q1876.25 1801.42 1870.44 1798.52 Q1864.7 1795.61 1861.06 1788.64 Q1855.38 1778.2 1855.38 1758.19 M1865.87 1756.64 Q1865.87 1775.73 1867.23 1783.32 Q1868.78 1791.54 1872.98 1795.12 Q1877.24 1798.64 1881.93 1798.64 Q1887 1798.64 1891.2 1794.87 Q1895.46 1791.04 1896.75 1782.83 Q1898.17 1774.74 1898.11 1756.64 Q1898.11 1739.04 1896.88 1732 Q1895.21 1723.79 1890.76 1720.52 Q1886.38 1717.18 1881.93 1717.18 Q1880.26 1717.18 1878.47 1717.67 Q1876.74 1718.17 1874.21 1719.59 Q1871.68 1721.01 1869.7 1724.53 Q1867.79 1728.05 1866.86 1733.36 Q1865.87 1740.22 1865.87 1756.64 Z" fill="#000000" fill-rule="nonzero" fill-opacity="1" /><path clip-path="url(#clip730)" d="M1821.5 1682.39 Q1821.5 1663.8 1826.19 1653.67 Q1832.74 1638.6 1848.18 1638.6 Q1851.45 1638.6 1854.85 1639.53 Q1858.31 1640.4 1862.63 1643.79 Q1867.01 1647.19 1869.67 1652.75 Q1874.73 1663.49 1874.73 1682.39 Q1874.73 1700.86 1870.04 1710.92 Q1863.19 1725.62 1848.05 1725.62 Q1842.37 1725.62 1836.57 1722.72 Q1830.82 1719.82 1827.18 1712.84 Q1821.5 1702.4 1821.5 1682.39 M1832 1680.85 Q1832 1699.93 1833.36 1707.53 Q1834.9 1715.74 1839.1 1719.32 Q1843.36 1722.84 1848.05 1722.84 Q1853.12 1722.84 1857.32 1719.08 Q1861.58 1715.25 1862.88 1707.03 Q1864.3 1698.94 1864.24 1680.85 Q1864.24 1663.25 1863 1656.21 Q1861.33 1647.99 1856.89 1644.72 Q1852.5 1641.38 1848.05 1641.38 Q1846.39 1641.38 1844.6 1641.88 Q1842.87 1642.37 1840.34 1643.79 Q1837.8 1645.21 1835.83 1648.73 Q1833.91 1652.25 1832.99 1657.56 Q1832 1664.42 1832 1680.85 Z" fill="#000000" fill-rule="nonzero" fill-opacity="1" /><path clip-path="url(#clip730)" d="M1947.08 1574.85 L1947.08 1570.9 Q1962.27 1570.9 1970.12 1562.81 Q1972.28 1562.81 1972.65 1563.3 Q1973.02 1563.8 1973.02 1566.08 L1973.02 1637.04 Q1973.02 1640.81 1974.87 1641.98 Q1976.73 1643.15 1984.82 1643.15 L1988.83 1643.15 L1988.83 1647.05 Q1984.38 1646.68 1968.33 1646.68 Q1952.27 1646.68 1947.88 1647.05 L1947.88 1643.15 L1951.9 1643.15 Q1959.87 1643.15 1961.78 1642.04 Q1963.69 1640.87 1963.69 1637.04 L1963.69 1571.52 Q1957.09 1574.85 1947.08 1574.85 Z" fill="#000000" fill-rule="nonzero" fill-opacity="1" /><path clip-path="url(#clip730)" d="M2004.02 1606.59 Q2004.02 1588 2008.72 1577.88 Q2015.26 1562.81 2030.7 1562.81 Q2033.98 1562.81 2037.37 1563.73 Q2040.83 1564.6 2045.15 1567.99 Q2049.54 1571.39 2052.19 1576.95 Q2057.26 1587.7 2057.26 1606.59 Q2057.26 1625.06 2052.57 1635.13 Q2045.71 1649.82 2030.58 1649.82 Q2024.9 1649.82 2019.09 1646.92 Q2013.35 1644.02 2009.7 1637.04 Q2004.02 1626.6 2004.02 1606.59 M2014.52 1605.05 Q2014.52 1624.13 2015.88 1631.73 Q2017.42 1639.94 2021.62 1643.53 Q2025.89 1647.05 2030.58 1647.05 Q2035.64 1647.05 2039.84 1643.28 Q2044.1 1639.45 2045.4 1631.24 Q2046.82 1623.15 2046.76 1605.05 Q2046.76 1587.45 2045.52 1580.41 Q2043.86 1572.19 2039.41 1568.92 Q2035.03 1565.59 2030.58 1565.59 Q2028.91 1565.59 2027.12 1566.08 Q2025.39 1566.57 2022.86 1567.99 Q2020.33 1569.42 2018.35 1572.94 Q2016.44 1576.46 2015.51 1581.77 Q2014.52 1588.62 2014.52 1605.05 Z" fill="#000000" fill-rule="nonzero" fill-opacity="1" /><path clip-path="url(#clip730)" d="M1898.85 2026.55 Q1898.85 2027.37 1898.32 2029.31 L1886.84 2075.1 Q1884.32 2085.28 1876.13 2092.43 Q1867.99 2099.57 1858.74 2099.57 Q1853.17 2099.57 1849.6 2096.59 Q1846.03 2093.66 1846.03 2089.15 Q1846.03 2085.17 1848.14 2083.24 Q1850.25 2081.36 1852.76 2081.36 Q1853.58 2081.36 1854.46 2081.6 Q1855.34 2081.83 1856.28 2082.83 Q1857.21 2083.82 1857.21 2085.52 Q1857.21 2088.27 1854.81 2090.44 Q1853.64 2091.43 1852.53 2091.67 Q1851.47 2091.9 1849.66 2091.9 Q1850.36 2093.54 1851.65 2094.65 Q1852.94 2095.77 1854.4 2096.18 Q1855.87 2096.64 1856.8 2096.76 Q1857.8 2096.94 1858.74 2096.94 Q1866.23 2096.94 1871.97 2089.38 Q1873.67 2087.1 1874.9 2084.82 Q1876.19 2082.59 1877.12 2079.84 Q1878.06 2077.15 1878.47 2075.68 Q1878.94 2074.22 1879.76 2070.88 Q1874.31 2076.33 1867.64 2076.33 Q1864.83 2076.33 1862.31 2075.56 Q1859.85 2074.8 1857.68 2073.22 Q1855.52 2071.58 1854.23 2068.71 Q1853 2065.84 1853 2062.04 Q1853 2058 1854.58 2052.49 Q1856.16 2046.99 1859.97 2036.86 Q1862.02 2031.18 1862.02 2028.43 Q1862.02 2027.08 1861.72 2026.26 Q1861.43 2025.38 1860.84 2025.09 Q1860.26 2024.74 1859.91 2024.68 Q1859.61 2024.62 1859.03 2024.62 Q1855.57 2024.62 1852.35 2028.13 Q1849.13 2031.65 1846.91 2039.49 Q1846.44 2040.96 1846.15 2041.31 Q1845.85 2041.66 1844.98 2041.66 Q1843.51 2041.6 1843.51 2040.43 Q1843.51 2039.96 1844.04 2038.15 Q1844.57 2036.27 1845.8 2033.52 Q1847.08 2030.71 1848.84 2028.19 Q1850.6 2025.62 1853.35 2023.8 Q1856.16 2021.99 1859.38 2021.99 Q1863.77 2021.99 1866.47 2024.85 Q1869.22 2027.67 1869.22 2031.82 Q1869.22 2033.52 1868.75 2035.04 Q1868.34 2036.51 1866.82 2040.43 Q1860.67 2056.24 1860.67 2063.97 Q1860.67 2065.84 1860.96 2067.43 Q1861.31 2068.95 1862.07 2070.47 Q1862.83 2071.93 1864.36 2072.81 Q1865.94 2073.63 1868.1 2073.63 Q1870.86 2073.63 1873.43 2072.34 Q1876.07 2071 1877.71 2069.18 Q1879.41 2067.37 1880.4 2065.84 Q1881.46 2064.26 1881.69 2063.44 L1887.08 2041.89 L1889.48 2032.29 Q1890.59 2027.08 1891.12 2025.79 Q1891.82 2024.56 1893.05 2023.92 Q1894.28 2023.27 1895.33 2023.27 Q1896.8 2023.27 1897.79 2024.15 Q1898.85 2025.03 1898.85 2026.55 Z" fill="#000000" fill-rule="nonzero" fill-opacity="1" /><path clip-path="url(#clip730)" d="M1928.09 2045 Q1928.09 2024.74 1935.64 2008.4 Q1938.86 2001.55 1943.37 1995.81 Q1947.88 1990.07 1950.87 1987.55 Q1953.85 1985.04 1954.67 1985.04 Q1955.85 1985.04 1955.9 1986.21 Q1955.9 1986.79 1954.32 1988.26 Q1935 2007.93 1935.06 2045 Q1935.06 2082.18 1953.85 2101.1 Q1955.9 2103.14 1955.9 2103.79 Q1955.9 2104.96 1954.67 2104.96 Q1953.85 2104.96 1950.99 2102.56 Q1948.12 2100.16 1943.67 2094.65 Q1939.22 2089.15 1935.99 2082.42 Q1928.09 2066.08 1928.09 2045 Z" fill="#000000" fill-rule="nonzero" fill-opacity="1" /><path clip-path="url(#clip730)" d="M1965.02 2074.98 L1965.02 2071.29 Q1971.4 2071.29 1972.87 2070.53 Q1974.33 2069.71 1974.33 2065.84 L1974.33 2033.7 Q1974.33 2029.25 1972.75 2028.13 Q1971.23 2027.02 1965.02 2027.02 L1965.02 2023.27 L1981.88 2021.99 L1981.88 2034.58 Q1987.51 2021.99 1999.63 2021.99 Q2013.68 2021.99 2015.61 2033.7 Q2017.66 2029.13 2021.94 2025.56 Q2026.27 2021.99 2033 2021.99 Q2042.02 2021.99 2045.59 2026.44 Q2048.23 2029.42 2048.76 2032.76 Q2049.28 2036.1 2049.28 2044.76 L2049.28 2067.66 Q2049.4 2070.18 2051.33 2070.76 Q2053.26 2071.29 2058.65 2071.29 L2058.65 2074.98 Q2046.41 2074.63 2045.24 2074.63 Q2044.31 2074.63 2031.66 2074.98 L2031.66 2071.29 Q2038.04 2071.29 2039.5 2070.53 Q2041.03 2069.71 2041.03 2065.84 L2041.03 2037.91 Q2041.03 2031.82 2039.15 2028.25 Q2037.28 2024.62 2032.13 2024.62 Q2025.92 2024.62 2020.94 2029.83 Q2015.96 2035.04 2015.96 2043.83 L2015.96 2065.84 Q2015.96 2069.71 2017.43 2070.53 Q2018.95 2071.29 2025.33 2071.29 L2025.33 2074.98 Q2013.1 2074.63 2011.87 2074.63 Q2010.93 2074.63 1998.34 2074.98 L1998.34 2071.29 Q2004.72 2071.29 2006.19 2070.53 Q2007.71 2069.71 2007.71 2065.84 L2007.71 2037.91 Q2007.71 2031.82 2005.83 2028.25 Q2003.96 2024.62 1998.81 2024.62 Q1992.6 2024.62 1987.62 2029.83 Q1982.65 2035.04 1982.65 2043.83 L1982.65 2065.84 Q1982.65 2069.71 1984.11 2070.53 Q1985.63 2071.29 1991.96 2071.29 L1991.96 2074.98 Q1979.72 2074.63 1978.55 2074.63 Q1977.61 2074.63 1965.02 2074.98 Z" fill="#000000" fill-rule="nonzero" fill-opacity="1" /><path clip-path="url(#clip730)" d="M2068.23 2103.79 Q2068.23 2103.2 2069.75 2101.74 Q2089.07 2082.06 2089.07 2045 Q2089.07 2007.82 2070.51 1989.02 Q2068.23 1986.85 2068.23 1986.21 Q2068.23 1985.04 2069.4 1985.04 Q2070.22 1985.04 2073.09 1987.44 Q2076.02 1989.84 2080.41 1995.34 Q2084.86 2000.85 2088.14 2007.58 Q2096.04 2023.92 2096.04 2045 Q2096.04 2065.26 2088.49 2081.6 Q2085.27 2088.45 2080.76 2094.19 Q2076.25 2099.92 2073.26 2102.44 Q2070.28 2104.96 2069.4 2104.96 Q2068.23 2104.96 2068.23 2103.79 Z" fill="#000000" fill-rule="nonzero" fill-opacity="1" /><polyline clip-path="url(#clip730)" style="stroke:#000000; stroke-linecap:round; stroke-linejoin:round; stroke-width:4; stroke-opacity:1; fill:none" points="495.79,1631.62 495.79,628.642 "/>
<polyline clip-path="url(#clip730)" style="stroke:#000000; stroke-linecap:round; stroke-linejoin:round; stroke-width:4; stroke-opacity:1; fill:none" points="2037.07,1516.77 2037.07,513.787 "/>
<polyline clip-path="url(#clip730)" style="stroke:#000000; stroke-linecap:round; stroke-linejoin:round; stroke-width:4; stroke-opacity:1; fill:none" points="495.79,1569 503.407,1564.4 "/>
<polyline clip-path="url(#clip730)" style="stroke:#000000; stroke-linecap:round; stroke-linejoin:round; stroke-width:4; stroke-opacity:1; fill:none" points="495.79,1399.93 503.407,1395.34 "/>
<polyline clip-path="url(#clip730)" style="stroke:#000000; stroke-linecap:round; stroke-linejoin:round; stroke-width:4; stroke-opacity:1; fill:none" points="495.79,1230.87 503.407,1226.28 "/>
<polyline clip-path="url(#clip730)" style="stroke:#000000; stroke-linecap:round; stroke-linejoin:round; stroke-width:4; stroke-opacity:1; fill:none" points="495.79,1061.81 503.407,1057.22 "/>
<polyline clip-path="url(#clip730)" style="stroke:#000000; stroke-linecap:round; stroke-linejoin:round; stroke-width:4; stroke-opacity:1; fill:none" points="495.79,892.752 503.407,888.155 "/>
<polyline clip-path="url(#clip730)" style="stroke:#000000; stroke-linecap:round; stroke-linejoin:round; stroke-width:4; stroke-opacity:1; fill:none" points="495.79,723.691 503.407,719.094 "/>
<path clip-path="url(#clip730)" d="M337.791 1578.78 Q338.532 1579.53 338.532 1580.57 Q338.532 1581.62 337.791 1582.37 Q337.05 1583.11 336 1583.11 L256.826 1583.11 Q255.776 1583.11 255.035 1582.37 Q254.294 1581.62 254.294 1580.57 Q254.294 1579.53 255.035 1578.78 Q255.776 1578.04 256.826 1578.04 L336 1578.04 Q337.05 1578.04 337.791 1578.78 Z" fill="#000000" fill-rule="nonzero" fill-opacity="1" /><path clip-path="url(#clip730)" d="M349.093 1591.32 L349.093 1587.43 L387.939 1528.08 Q388.927 1526.54 390.471 1526.6 Q391.891 1526.6 392.2 1527.15 Q392.509 1527.71 392.509 1529.87 L392.509 1587.43 L405.17 1587.43 L405.17 1591.32 L392.509 1591.32 L392.509 1602.31 Q392.509 1605.96 393.991 1607.13 Q395.535 1608.3 402.082 1608.3 L404.737 1608.3 L404.737 1612.2 Q399.55 1611.82 387.568 1611.82 Q375.649 1611.82 370.461 1612.2 L370.461 1608.3 L373.117 1608.3 Q379.663 1608.3 381.207 1607.19 Q382.751 1606.02 382.751 1602.31 L382.751 1591.32 L349.093 1591.32 M352.675 1587.43 L383.492 1587.43 L383.492 1540.25 L352.675 1587.43 Z" fill="#000000" fill-rule="nonzero" fill-opacity="1" /><path clip-path="url(#clip730)" d="M413.754 1571.74 Q413.754 1553.15 418.448 1543.03 Q424.994 1527.96 440.434 1527.96 Q443.707 1527.96 447.103 1528.88 Q450.562 1529.75 454.885 1533.14 Q459.27 1536.54 461.925 1542.1 Q466.99 1552.85 466.99 1571.74 Q466.99 1590.21 462.296 1600.28 Q455.441 1614.97 440.31 1614.97 Q434.628 1614.97 428.823 1612.07 Q423.079 1609.17 419.436 1602.19 Q413.754 1591.75 413.754 1571.74 M424.253 1570.2 Q424.253 1589.28 425.612 1596.88 Q427.156 1605.09 431.355 1608.68 Q435.616 1612.2 440.31 1612.2 Q445.374 1612.2 449.574 1608.43 Q453.835 1604.6 455.132 1596.39 Q456.553 1588.29 456.491 1570.2 Q456.491 1552.6 455.256 1545.56 Q453.588 1537.34 449.142 1534.07 Q444.757 1530.74 440.31 1530.74 Q438.643 1530.74 436.852 1531.23 Q435.122 1531.72 432.59 1533.14 Q430.058 1534.56 428.082 1538.09 Q426.167 1541.61 425.241 1546.92 Q424.253 1553.77 424.253 1570.2 Z" fill="#000000" fill-rule="nonzero" fill-opacity="1" /><path clip-path="url(#clip730)" d="M337.791 1409.72 Q338.532 1410.46 338.532 1411.51 Q338.532 1412.56 337.791 1413.31 Q337.05 1414.05 336 1414.05 L256.826 1414.05 Q255.776 1414.05 255.035 1413.31 Q254.294 1412.56 254.294 1411.51 Q254.294 1410.46 255.035 1409.72 Q255.776 1408.98 256.826 1408.98 L336 1408.98 Q337.05 1408.98 337.791 1409.72 Z" fill="#000000" fill-rule="nonzero" fill-opacity="1" /><path clip-path="url(#clip730)" d="M350.884 1426.09 Q350.884 1422.32 353.045 1420.53 Q355.207 1418.74 357.986 1418.74 Q360.889 1418.74 362.927 1420.65 Q365.027 1422.51 365.027 1425.78 Q365.027 1429.3 362.556 1431.28 Q360.148 1433.25 356.689 1432.76 Q359.715 1437.82 365.274 1440.11 Q370.894 1442.39 376.081 1442.39 Q381.516 1442.39 385.901 1437.7 Q390.348 1433.01 390.348 1421.52 Q390.348 1411.76 386.518 1406.14 Q382.751 1400.52 375.278 1400.52 L369.72 1400.52 Q367.806 1400.52 367.25 1400.34 Q366.694 1400.15 366.694 1399.1 Q366.694 1397.87 368.609 1397.62 Q370.523 1397.62 373.549 1397.25 Q380.898 1397 384.789 1390.64 Q388.309 1384.71 388.309 1376.25 Q388.309 1368.53 384.604 1365.32 Q380.96 1362.05 376.205 1362.05 Q371.758 1362.05 366.879 1363.9 Q362 1365.75 359.345 1369.89 Q367.188 1369.89 367.188 1376.25 Q367.188 1379.03 365.397 1380.88 Q363.668 1382.67 360.765 1382.67 Q357.986 1382.67 356.133 1380.94 Q354.281 1379.15 354.281 1376.13 Q354.281 1368.9 360.703 1363.9 Q367.188 1358.9 376.699 1358.9 Q386.086 1358.9 393.003 1363.84 Q399.982 1368.78 399.982 1376.37 Q399.982 1383.85 395.041 1389.96 Q390.1 1396.07 382.257 1398.61 Q391.891 1400.52 397.635 1407.07 Q403.379 1413.55 403.379 1421.52 Q403.379 1431.4 395.597 1438.69 Q387.815 1445.91 376.452 1445.91 Q365.953 1445.91 358.418 1440.23 Q350.884 1434.55 350.884 1426.09 Z" fill="#000000" fill-rule="nonzero" fill-opacity="1" /><path clip-path="url(#clip730)" d="M413.754 1402.68 Q413.754 1384.09 418.448 1373.97 Q424.994 1358.9 440.434 1358.9 Q443.707 1358.9 447.103 1359.82 Q450.562 1360.69 454.885 1364.08 Q459.27 1367.48 461.925 1373.04 Q466.99 1383.78 466.99 1402.68 Q466.99 1421.15 462.296 1431.22 Q455.441 1445.91 440.31 1445.91 Q434.628 1445.91 428.823 1443.01 Q423.079 1440.11 419.436 1433.13 Q413.754 1422.69 413.754 1402.68 M424.253 1401.14 Q424.253 1420.22 425.612 1427.82 Q427.156 1436.03 431.355 1439.61 Q435.616 1443.13 440.31 1443.13 Q445.374 1443.13 449.574 1439.37 Q453.835 1435.54 455.132 1427.32 Q456.553 1419.23 456.491 1401.14 Q456.491 1383.54 455.256 1376.5 Q453.588 1368.28 449.142 1365.01 Q444.757 1361.68 440.31 1361.68 Q438.643 1361.68 436.852 1362.17 Q435.122 1362.66 432.59 1364.08 Q430.058 1365.5 428.082 1369.02 Q426.167 1372.54 425.241 1377.86 Q424.253 1384.71 424.253 1401.14 Z" fill="#000000" fill-rule="nonzero" fill-opacity="1" /><path clip-path="url(#clip730)" d="M337.791 1240.66 Q338.532 1241.4 338.532 1242.45 Q338.532 1243.5 337.791 1244.24 Q337.05 1244.99 336 1244.99 L256.826 1244.99 Q255.776 1244.99 255.035 1244.24 Q254.294 1243.5 254.294 1242.45 Q254.294 1241.4 255.035 1240.66 Q255.776 1239.92 256.826 1239.92 L336 1239.92 Q337.05 1239.92 337.791 1240.66 Z" fill="#000000" fill-rule="nonzero" fill-opacity="1" /><path clip-path="url(#clip730)" d="M351.872 1274.07 Q351.872 1271.79 352.057 1271.11 Q352.304 1270.43 353.292 1269.38 L377.564 1242.33 Q390.842 1227.38 390.842 1214.35 Q390.842 1205.89 386.395 1199.84 Q382.01 1193.79 373.92 1193.79 Q368.362 1193.79 363.668 1197.18 Q358.974 1200.58 356.813 1206.63 Q357.183 1206.51 358.48 1206.51 Q361.63 1206.51 363.359 1208.49 Q365.15 1210.46 365.15 1213.12 Q365.15 1216.51 362.927 1218.18 Q360.765 1219.79 358.604 1219.79 Q357.739 1219.79 356.566 1219.6 Q355.454 1219.42 353.663 1217.69 Q351.872 1215.9 351.872 1212.75 Q351.872 1203.92 358.542 1196.88 Q365.274 1189.84 375.525 1189.84 Q387.136 1189.84 394.732 1196.75 Q402.39 1203.61 402.39 1214.35 Q402.39 1218.12 401.217 1221.58 Q400.105 1224.98 398.561 1227.63 Q397.079 1230.29 393.003 1234.55 Q388.927 1238.81 385.654 1241.84 Q382.381 1244.86 375.031 1251.28 L361.63 1264.32 L384.419 1264.32 Q395.535 1264.32 396.4 1263.33 Q397.635 1261.54 399.179 1252.09 L402.39 1252.09 L398.808 1274.07 L351.872 1274.07 Z" fill="#000000" fill-rule="nonzero" fill-opacity="1" /><path clip-path="url(#clip730)" d="M413.754 1233.62 Q413.754 1215.03 418.448 1204.9 Q424.994 1189.84 440.434 1189.84 Q443.707 1189.84 447.103 1190.76 Q450.562 1191.63 454.885 1195.02 Q459.27 1198.42 461.925 1203.98 Q466.99 1214.72 466.99 1233.62 Q466.99 1252.09 462.296 1262.15 Q455.441 1276.85 440.31 1276.85 Q434.628 1276.85 428.823 1273.95 Q423.079 1271.05 419.436 1264.07 Q413.754 1253.63 413.754 1233.62 M424.253 1232.08 Q424.253 1251.16 425.612 1258.76 Q427.156 1266.97 431.355 1270.55 Q435.616 1274.07 440.31 1274.07 Q445.374 1274.07 449.574 1270.31 Q453.835 1266.48 455.132 1258.26 Q456.553 1250.17 456.491 1232.08 Q456.491 1214.48 455.256 1207.44 Q453.588 1199.22 449.142 1195.95 Q444.757 1192.61 440.31 1192.61 Q438.643 1192.61 436.852 1193.11 Q435.122 1193.6 432.59 1195.02 Q430.058 1196.44 428.082 1199.96 Q426.167 1203.48 425.241 1208.79 Q424.253 1215.65 424.253 1232.08 Z" fill="#000000" fill-rule="nonzero" fill-opacity="1" /><path clip-path="url(#clip730)" d="M337.791 1071.6 Q338.532 1072.34 338.532 1073.39 Q338.532 1074.44 337.791 1075.18 Q337.05 1075.92 336 1075.92 L256.826 1075.92 Q255.776 1075.92 255.035 1075.18 Q254.294 1074.44 254.294 1073.39 Q254.294 1072.34 255.035 1071.6 Q255.776 1070.86 256.826 1070.86 L336 1070.86 Q337.05 1070.86 337.791 1071.6 Z" fill="#000000" fill-rule="nonzero" fill-opacity="1" /><path clip-path="url(#clip730)" d="M356.813 1032.82 L356.813 1028.86 Q372.005 1028.86 379.849 1020.77 Q382.01 1020.77 382.381 1021.27 Q382.751 1021.76 382.751 1024.05 L382.751 1095.01 Q382.751 1098.78 384.604 1099.95 Q386.457 1101.12 394.547 1101.12 L398.561 1101.12 L398.561 1105.01 Q394.115 1104.64 378.058 1104.64 Q362 1104.64 357.616 1105.01 L357.616 1101.12 L361.63 1101.12 Q369.597 1101.12 371.511 1100.01 Q373.426 1098.84 373.426 1095.01 L373.426 1029.48 Q366.818 1032.82 356.813 1032.82 Z" fill="#000000" fill-rule="nonzero" fill-opacity="1" /><path clip-path="url(#clip730)" d="M413.754 1064.56 Q413.754 1045.97 418.448 1035.84 Q424.994 1020.77 440.434 1020.77 Q443.707 1020.77 447.103 1021.7 Q450.562 1022.57 454.885 1025.96 Q459.27 1029.36 461.925 1034.92 Q466.99 1045.66 466.99 1064.56 Q466.99 1083.03 462.296 1093.09 Q455.441 1107.79 440.31 1107.79 Q434.628 1107.79 428.823 1104.89 Q423.079 1101.99 419.436 1095.01 Q413.754 1084.57 413.754 1064.56 M424.253 1063.02 Q424.253 1082.1 425.612 1089.7 Q427.156 1097.91 431.355 1101.49 Q435.616 1105.01 440.31 1105.01 Q445.374 1105.01 449.574 1101.25 Q453.835 1097.42 455.132 1089.2 Q456.553 1081.11 456.491 1063.02 Q456.491 1045.42 455.256 1038.38 Q453.588 1030.16 449.142 1026.89 Q444.757 1023.55 440.31 1023.55 Q438.643 1023.55 436.852 1024.05 Q435.122 1024.54 432.59 1025.96 Q430.058 1027.38 428.082 1030.9 Q426.167 1034.42 425.241 1039.73 Q424.253 1046.59 424.253 1063.02 Z" fill="#000000" fill-rule="nonzero" fill-opacity="1" /><path clip-path="url(#clip730)" d="M413.754 895.5 Q413.754 876.911 418.448 866.783 Q424.994 851.714 440.434 851.714 Q443.707 851.714 447.103 852.64 Q450.562 853.504 454.885 856.901 Q459.27 860.298 461.925 865.856 Q466.99 876.602 466.99 895.5 Q466.99 913.966 462.296 924.033 Q455.441 938.731 440.31 938.731 Q434.628 938.731 428.823 935.828 Q423.079 932.926 419.436 925.947 Q413.754 915.51 413.754 895.5 M424.253 893.956 Q424.253 913.04 425.612 920.636 Q427.156 928.85 431.355 932.432 Q435.616 935.952 440.31 935.952 Q445.374 935.952 449.574 932.185 Q453.835 928.356 455.132 920.142 Q456.553 912.051 456.491 893.956 Q456.491 876.355 455.256 869.315 Q453.588 861.101 449.142 857.828 Q444.757 854.493 440.31 854.493 Q438.643 854.493 436.852 854.987 Q435.122 855.481 432.59 856.901 Q430.058 858.322 428.082 861.842 Q426.167 865.362 425.241 870.673 Q424.253 877.529 424.253 893.956 Z" fill="#000000" fill-rule="nonzero" fill-opacity="1" /><path clip-path="url(#clip730)" d="M356.813 694.696 L356.813 690.743 Q372.005 690.743 379.849 682.653 Q382.01 682.653 382.381 683.147 Q382.751 683.641 382.751 685.926 L382.751 756.886 Q382.751 760.654 384.604 761.827 Q386.457 763 394.547 763 L398.561 763 L398.561 766.891 Q394.115 766.521 378.058 766.521 Q362 766.521 357.616 766.891 L357.616 763 L361.63 763 Q369.597 763 371.511 761.889 Q373.426 760.715 373.426 756.886 L373.426 691.361 Q366.818 694.696 356.813 694.696 Z" fill="#000000" fill-rule="nonzero" fill-opacity="1" /><path clip-path="url(#clip730)" d="M413.754 726.439 Q413.754 707.85 418.448 697.722 Q424.994 682.653 440.434 682.653 Q443.707 682.653 447.103 683.579 Q450.562 684.444 454.885 687.84 Q459.27 691.237 461.925 696.795 Q466.99 707.541 466.99 726.439 Q466.99 744.905 462.296 754.972 Q455.441 769.67 440.31 769.67 Q434.628 769.67 428.823 766.768 Q423.079 763.865 419.436 756.886 Q413.754 746.449 413.754 726.439 M424.253 724.895 Q424.253 743.979 425.612 751.575 Q427.156 759.789 431.355 763.371 Q435.616 766.891 440.31 766.891 Q445.374 766.891 449.574 763.124 Q453.835 759.295 455.132 751.081 Q456.553 742.991 456.491 724.895 Q456.491 707.294 455.256 700.254 Q453.588 692.04 449.142 688.767 Q444.757 685.432 440.31 685.432 Q438.643 685.432 436.852 685.926 Q435.122 686.42 432.59 687.84 Q430.058 689.261 428.082 692.781 Q426.167 696.301 425.241 701.613 Q424.253 708.468 424.253 724.895 Z" fill="#000000" fill-rule="nonzero" fill-opacity="1" /><path clip-path="url(#clip730)" d="M137.127 1213.21 Q137.537 1213.21 139.293 1214.21 Q140.992 1215.14 145.266 1218.6 Q149.541 1222.05 154.518 1227.2 Q156.45 1229.14 159.144 1232.06 Q161.838 1234.99 163.594 1236.98 L165.351 1238.97 Q171.792 1246.59 178.995 1253.26 Q178.819 1252.79 178.76 1251.97 Q178.643 1251.15 178.643 1250.57 L178.643 1249.98 Q178.643 1246.94 180.693 1241.61 Q182.215 1236.93 182.215 1234.52 Q182.215 1232.18 181.395 1229.61 Q180.576 1227.03 178.175 1224.22 Q175.774 1221.41 172.143 1220.12 Q171.558 1219.89 171.382 1219.77 Q171.148 1219.65 170.914 1219.3 Q170.621 1218.95 170.621 1218.48 Q170.621 1217.84 170.972 1217.43 Q171.324 1217.02 171.792 1217.02 Q172.846 1217.02 174.954 1217.84 Q177.062 1218.6 179.697 1220.3 Q182.332 1221.93 184.733 1224.1 Q187.075 1226.21 188.715 1229.37 Q190.296 1232.53 190.296 1235.87 Q190.296 1238.27 189.125 1240.03 Q188.012 1241.79 185.846 1243.54 Q183.093 1245.94 182.215 1247.23 Q181.278 1248.52 181.278 1250.51 Q181.278 1255.84 188.715 1260.7 Q189.769 1261.23 190.003 1261.58 Q190.296 1261.87 190.296 1262.57 Q190.237 1264.04 189.066 1264.04 Q188.598 1264.04 186.548 1262.75 Q184.44 1261.4 180.751 1258.42 Q177.062 1255.37 173.373 1251.68 L163.301 1240.91 Q153.23 1228.96 147.55 1224.22 Q147.55 1226.21 147.491 1227.09 Q147.433 1227.91 147.081 1229.55 Q146.672 1231.19 145.793 1233.47 Q143.978 1238.8 143.978 1241.02 Q143.978 1241.61 144.037 1242.25 Q144.095 1242.9 144.388 1244.36 Q144.681 1245.77 145.266 1246.94 Q145.793 1248.11 146.964 1249.34 Q148.077 1250.57 149.599 1251.21 Q150.068 1251.39 150.302 1251.51 Q150.536 1251.62 150.77 1251.97 Q150.946 1252.27 150.946 1252.74 Q150.946 1253.44 150.536 1253.85 Q150.126 1254.2 149.599 1254.2 Q148.545 1254.2 146.379 1253.15 Q144.212 1252.09 141.87 1250.33 Q139.469 1248.58 137.712 1245.71 Q135.956 1242.84 135.956 1239.68 Q135.956 1237.8 136.776 1236.22 Q137.595 1234.58 138.474 1233.76 Q139.293 1232.88 141.109 1231.42 Q142.514 1230.19 143.1 1229.61 Q143.685 1229.02 144.329 1227.85 Q144.915 1226.62 144.915 1225.27 Q144.915 1223.05 143.217 1221 Q141.46 1218.95 137.244 1216.31 Q135.956 1215.61 135.956 1214.5 Q135.956 1213.21 137.127 1213.21 Z" fill="#000000" fill-rule="nonzero" fill-opacity="1" /><path clip-path="url(#clip730)" d="M158.968 1182.42 Q138.708 1182.42 122.371 1174.86 Q115.52 1171.64 109.781 1167.13 Q104.043 1162.62 101.525 1159.64 Q99.0069 1156.65 99.0069 1155.83 Q99.0069 1154.66 100.178 1154.6 Q100.764 1154.6 102.227 1156.18 Q121.902 1175.51 158.968 1175.45 Q196.151 1175.45 215.065 1156.65 Q217.115 1154.6 217.759 1154.6 Q218.93 1154.6 218.93 1155.83 Q218.93 1156.65 216.529 1159.52 Q214.128 1162.39 208.624 1166.84 Q203.12 1171.29 196.386 1174.51 Q180.049 1182.42 158.968 1182.42 Z" fill="#000000" fill-rule="nonzero" fill-opacity="1" /><path clip-path="url(#clip730)" d="M188.949 1145.49 L185.26 1145.49 Q185.26 1139.1 184.499 1137.64 Q183.679 1136.17 179.814 1136.17 L147.667 1136.17 Q143.217 1136.17 142.104 1137.76 Q140.992 1139.28 140.992 1145.49 L137.244 1145.49 L135.956 1128.62 L148.545 1128.62 Q135.956 1123 135.956 1110.88 Q135.956 1096.83 147.667 1094.89 Q143.1 1092.84 139.528 1088.57 Q135.956 1084.24 135.956 1077.5 Q135.956 1068.48 140.406 1064.91 Q143.392 1062.28 146.73 1061.75 Q150.068 1061.22 158.734 1061.22 L181.63 1061.22 Q184.147 1061.11 184.733 1059.17 Q185.26 1057.24 185.26 1051.85 L188.949 1051.85 Q188.598 1064.09 188.598 1065.26 Q188.598 1066.2 188.949 1078.85 L185.26 1078.85 Q185.26 1072.47 184.499 1071 Q183.679 1069.48 179.814 1069.48 L151.883 1069.48 Q145.793 1069.48 142.221 1071.35 Q138.591 1073.23 138.591 1078.38 Q138.591 1084.59 143.802 1089.56 Q149.014 1094.54 157.797 1094.54 L179.814 1094.54 Q183.679 1094.54 184.499 1093.08 Q185.26 1091.56 185.26 1085.17 L188.949 1085.17 Q188.598 1097.41 188.598 1098.64 Q188.598 1099.58 188.949 1112.17 L185.26 1112.17 Q185.26 1105.78 184.499 1104.32 Q183.679 1102.8 179.814 1102.8 L151.883 1102.8 Q145.793 1102.8 142.221 1104.67 Q138.591 1106.55 138.591 1111.7 Q138.591 1117.91 143.802 1122.88 Q149.014 1127.86 157.797 1127.86 L179.814 1127.86 Q183.679 1127.86 184.499 1126.4 Q185.26 1124.87 185.26 1118.55 L188.949 1118.55 Q188.598 1130.79 188.598 1131.96 Q188.598 1132.9 188.949 1145.49 Z" fill="#000000" fill-rule="nonzero" fill-opacity="1" /><path clip-path="url(#clip730)" d="M217.759 1042.28 Q217.173 1042.28 215.709 1040.76 Q196.034 1021.43 158.968 1021.43 Q121.785 1021.43 102.989 1039.99 Q100.822 1042.28 100.178 1042.28 Q99.0069 1042.28 99.0069 1041.11 Q99.0069 1040.29 101.408 1037.42 Q103.808 1034.49 109.313 1030.1 Q114.817 1025.65 121.551 1022.37 Q137.888 1014.46 158.968 1014.46 Q179.229 1014.46 195.566 1022.02 Q202.417 1025.24 208.155 1029.75 Q213.894 1034.26 216.412 1037.24 Q218.93 1040.23 218.93 1041.11 Q218.93 1042.28 217.759 1042.28 Z" fill="#000000" fill-rule="nonzero" fill-opacity="1" /><path clip-path="url(#clip730)" d="M728.226 147.911 L728.226 143.3 L731.812 143.3 Q739.937 143.3 741.767 141.982 Q743.67 140.591 743.67 136.2 L743.67 57.2222 Q743.67 52.9036 741.767 51.5861 Q739.864 50.1954 731.812 50.1954 L728.226 50.1954 L728.226 45.5109 L783.049 45.5109 Q802.226 45.5109 815.548 60.8087 Q828.942 76.1065 828.942 97.5527 Q828.942 118.56 815.475 133.272 Q802.08 147.911 783.049 147.911 L728.226 147.911 M756.552 137.298 Q756.552 141.177 757.65 142.275 Q758.748 143.3 763.872 143.3 L779.023 143.3 Q788.905 143.3 795.565 139.274 Q802.226 135.175 805.666 130.49 Q813.937 119.218 813.937 97.5527 Q813.937 74.789 806.179 64.1025 Q796.151 50.1954 778.877 50.1954 L763.872 50.1954 Q758.748 50.1954 757.65 51.2202 Q756.552 52.2449 756.552 56.1974 L756.552 137.298 Z" fill="#000000" fill-rule="nonzero" fill-opacity="1" /><path clip-path="url(#clip730)" d="M845.062 96.6743 Q845.062 74.057 860.507 58.1737 Q875.951 42.2172 897.177 42.2172 Q903.765 42.2172 909.62 44.6326 Q915.476 47.048 918.184 49.1707 Q920.893 51.2202 924.772 55.0995 L932.311 44.047 Q933.482 42.2172 934.653 42.2172 Q935.898 42.2172 936.117 42.9491 Q936.337 43.6079 936.337 45.8037 L936.337 81.3766 Q936.337 83.792 936.044 84.3776 Q935.751 84.9631 933.921 84.9631 Q932.457 84.9631 932.091 84.5239 Q931.799 84.0848 931.506 82.4013 Q929.237 66.2252 920.234 56.5634 Q911.304 46.9016 898.861 46.9016 Q895.274 46.9016 891.248 47.7068 Q887.296 48.5119 881.514 51.5861 Q875.804 54.6603 871.339 59.784 Q866.948 64.8345 863.727 74.4962 Q860.507 84.0848 860.507 96.8207 Q860.507 109.41 863.727 119.072 Q866.948 128.734 871.339 133.784 Q875.804 138.762 881.514 141.836 Q887.296 144.91 891.322 145.788 Q895.421 146.593 899.007 146.593 Q911.89 146.593 921.771 137.444 Q931.652 128.295 932.604 112.85 Q932.75 112.119 932.75 111.826 Q932.75 111.46 932.897 111.094 Q933.043 110.728 933.409 110.581 Q933.775 110.435 934.36 110.435 Q936.337 110.435 936.337 112.997 Q936.337 127.27 925.357 139.274 Q914.451 151.205 897.177 151.205 Q875.878 151.205 860.433 135.395 Q845.062 119.584 845.062 96.6743 Z" fill="#000000" fill-rule="nonzero" fill-opacity="1" /><path clip-path="url(#clip730)" d="M964.209 147.911 L964.209 143.3 L967.796 143.3 Q975.92 143.3 977.75 141.982 Q979.653 140.591 979.653 136.2 L979.653 57.2222 Q979.653 52.9036 977.75 51.5861 Q975.847 50.1954 967.796 50.1954 L964.209 50.1954 L964.209 45.5109 Q969.479 45.9501 986.973 45.9501 Q1006.74 45.9501 1012.15 45.5109 L1012.15 50.1954 L1007.17 50.1954 Q1000.29 50.1954 997.147 51.0738 Q994 51.9521 993.487 53.1964 Q992.975 54.3675 992.975 57.3686 L992.975 137.298 Q992.975 141.177 994.073 142.275 Q995.244 143.3 1000.29 143.3 L1012.59 143.3 Q1020.2 143.3 1025.69 141.031 Q1031.18 138.762 1034.11 135.907 Q1037.04 133.052 1038.94 127.709 Q1040.92 122.293 1041.5 118.852 Q1042.16 115.412 1042.75 109.264 L1046.48 109.264 L1042.31 147.911 L964.209 147.911 Z" fill="#000000" fill-rule="nonzero" fill-opacity="1" /><path clip-path="url(#clip730)" d="M1189.76 64.022 L1151.9 64.022 L1151.9 60.7429 L1189.76 60.7429 L1189.76 64.022 Z" fill="#000000" fill-rule="nonzero" fill-opacity="1" /><path clip-path="url(#clip730)" d="M1191.47 88.5497 Q1191.47 90.0868 1190.16 91.3311 Q1188.91 92.5754 1187.38 92.5754 Q1186.5 92.5754 1184.37 91.1115 Q1178.3 86.8662 1170.61 86.8662 Q1163.73 86.8662 1157.37 88.5497 Q1151 90.2332 1146.68 93.6733 Q1142.43 97.0403 1142.43 101.432 Q1142.43 106.922 1148.44 110.142 Q1154.66 107.288 1162.34 107.288 Q1164.83 107.288 1166.51 107.434 Q1168.27 107.58 1169.95 107.946 Q1171.64 108.312 1172.44 109.191 Q1173.32 109.996 1173.32 111.313 Q1173.32 115.998 1161.17 115.998 Q1153.27 115.998 1148.29 113.875 Q1141.92 117.023 1138.41 122.073 Q1134.89 127.124 1134.89 131.442 Q1134.89 135.175 1136.94 137.883 Q1139.07 140.591 1142.51 141.909 Q1146.02 143.226 1149.46 143.812 Q1152.97 144.324 1156.85 144.324 Q1163.22 144.324 1167.69 143.519 Q1172.22 142.641 1174.71 141.031 Q1177.27 139.42 1178.3 138.322 Q1179.4 137.151 1180.49 135.321 Q1181.15 134.297 1182.03 134.297 Q1182.69 134.297 1183.13 134.736 Q1183.64 135.102 1183.64 135.761 Q1183.64 136.566 1182.62 138.249 Q1181.67 139.933 1179.32 142.202 Q1177.05 144.398 1173.91 146.447 Q1170.83 148.423 1165.93 149.814 Q1161.02 151.205 1155.46 151.205 Q1144.12 151.205 1137.53 145.642 Q1131.01 140.079 1131.01 132.32 Q1131.01 126.904 1134.6 121.341 Q1138.26 115.705 1144.7 112.119 Q1138.7 107.654 1138.7 101.432 Q1138.7 95.8692 1143.38 90.8919 Q1148.14 85.9147 1155.83 82.9868 Q1163.59 79.9858 1172.08 79.9858 Q1176.84 79.9858 1181.52 81.5961 Q1186.2 83.1332 1188.84 85.1095 Q1191.47 87.0858 1191.47 88.5497 M1169.44 111.46 Q1166.22 110.581 1162.34 110.581 Q1157.07 110.581 1153.19 111.899 Q1156.34 112.704 1161.17 112.704 Q1165.2 112.704 1166.37 112.484 Q1167.61 112.265 1169.44 111.46 Z" fill="#000000" fill-rule="nonzero" fill-opacity="1" /><path clip-path="url(#clip730)" d="M1239.61 125.147 Q1239.75 123.317 1242.61 123.317 L1334.47 123.317 Q1338.79 123.317 1338.86 125.001 Q1338.86 126.831 1334.76 126.758 L1243.63 126.758 Q1239.61 126.831 1239.61 125.147 M1239.61 95.8692 Q1239.61 94.0393 1242.75 94.1125 L1334.32 94.1125 Q1338.79 94.1125 1338.86 95.8692 Q1338.86 97.5527 1335.05 97.5527 L1242.61 97.5527 Q1239.61 97.5527 1239.61 95.8692 Z" fill="#000000" fill-rule="nonzero" fill-opacity="1" /><path clip-path="url(#clip730)" d="M1396.68 99.9681 Q1396.68 77.9364 1402.24 65.9324 Q1410 48.0728 1428.3 48.0728 Q1432.18 48.0728 1436.2 49.1707 Q1440.3 50.1954 1445.43 54.2212 Q1450.62 58.2469 1453.77 64.8345 Q1459.77 77.5704 1459.77 99.9681 Q1459.77 121.853 1454.21 133.784 Q1446.08 151.205 1428.15 151.205 Q1421.42 151.205 1414.54 147.765 Q1407.73 144.324 1403.41 136.053 Q1396.68 123.683 1396.68 99.9681 M1409.12 98.1382 Q1409.12 120.756 1410.73 129.759 Q1412.56 139.493 1417.54 143.739 Q1422.59 147.911 1428.15 147.911 Q1434.15 147.911 1439.13 143.446 Q1444.18 138.908 1445.72 129.173 Q1447.4 119.584 1447.33 98.1382 Q1447.33 77.2776 1445.87 68.9334 Q1443.89 59.1984 1438.62 55.3191 Q1433.42 51.3665 1428.15 51.3665 Q1426.18 51.3665 1424.05 51.9521 Q1422 52.5377 1419 54.2212 Q1416 55.9046 1413.66 60.0768 Q1411.39 64.2489 1410.29 70.5437 Q1409.12 78.6683 1409.12 98.1382 Z" fill="#000000" fill-rule="nonzero" fill-opacity="1" /><path clip-path="url(#clip730)" d="M1473.18 145.495 Q1470.91 143.08 1470.91 139.933 Q1470.91 136.785 1473.18 134.516 Q1475.45 132.174 1478.89 132.174 Q1482.18 132.174 1484.38 134.37 Q1486.65 136.492 1486.65 140.006 Q1486.65 143.446 1484.23 145.715 Q1481.89 147.911 1478.89 147.911 Q1475.45 147.911 1473.18 145.495 Z" fill="#000000" fill-rule="nonzero" fill-opacity="1" /><path clip-path="url(#clip730)" d="M1512.16 123.757 Q1512.16 119.292 1514.58 117.608 Q1516.99 115.851 1519.55 115.851 Q1522.99 115.851 1524.97 118.047 Q1527.02 120.17 1527.02 123.171 Q1527.02 126.172 1524.97 128.368 Q1522.99 130.49 1519.55 130.49 Q1517.87 130.49 1516.99 130.198 Q1518.97 137.078 1524.97 142.055 Q1531.05 147.033 1539.02 147.033 Q1549.05 147.033 1555.05 137.298 Q1558.64 131.003 1558.64 116.73 Q1558.64 104.14 1555.93 97.8455 Q1551.76 88.2569 1543.2 88.2569 Q1531.05 88.2569 1523.87 98.7238 Q1522.99 100.041 1521.97 100.115 Q1520.51 100.115 1520.14 99.3094 Q1519.85 98.431 1519.85 96.162 L1519.85 51.8057 Q1519.85 48.2192 1521.31 48.2192 Q1521.9 48.2192 1523.14 48.6583 Q1532.58 52.8305 1543.05 52.9036 Q1553.81 52.9036 1563.47 48.5119 Q1564.2 48.0728 1564.64 48.0728 Q1566.11 48.0728 1566.18 49.7563 Q1566.18 50.3418 1564.94 52.0985 Q1563.76 53.782 1561.2 56.051 Q1558.64 58.2469 1555.35 60.3696 Q1552.05 62.4922 1547.22 63.9561 Q1542.46 65.3468 1537.19 65.3468 Q1530.9 65.3468 1524.46 63.3706 L1524.46 92.5754 Q1532.22 84.9631 1543.49 84.9631 Q1555.49 84.9631 1563.76 94.6249 Q1572.04 104.287 1572.04 117.755 Q1572.04 131.881 1562.23 141.543 Q1552.49 151.205 1539.32 151.205 Q1527.31 151.205 1519.7 142.641 Q1512.16 134.077 1512.16 123.757 Z" fill="#000000" fill-rule="nonzero" fill-opacity="1" /><path clip-path="url(#clip730)" d="M1587 127.709 Q1587 123.244 1589.56 121.122 Q1592.12 118.999 1595.41 118.999 Q1598.85 118.999 1601.27 121.268 Q1603.76 123.464 1603.76 127.343 Q1603.76 131.515 1600.83 133.857 Q1597.98 136.2 1593.88 135.614 Q1597.46 141.616 1604.05 144.324 Q1610.71 147.033 1616.86 147.033 Q1623.3 147.033 1628.5 141.47 Q1633.77 135.907 1633.77 122.293 Q1633.77 110.728 1629.23 104.067 Q1624.76 97.4063 1615.91 97.4063 L1609.32 97.4063 Q1607.05 97.4063 1606.39 97.1867 Q1605.73 96.9671 1605.73 95.7228 Q1605.73 94.2589 1608 93.9661 Q1610.27 93.9661 1613.86 93.5269 Q1622.57 93.2342 1627.18 85.6951 Q1631.35 78.6683 1631.35 68.6406 Q1631.35 59.4912 1626.96 55.6851 Q1622.64 51.8057 1617.01 51.8057 Q1611.74 51.8057 1605.95 54.0016 Q1600.17 56.1974 1597.02 61.1015 Q1606.32 61.1015 1606.32 68.6406 Q1606.32 71.9344 1604.2 74.1302 Q1602.15 76.2529 1598.71 76.2529 Q1595.41 76.2529 1593.22 74.2034 Q1591.02 72.0808 1591.02 68.4942 Q1591.02 59.9304 1598.63 54.0016 Q1606.32 48.0728 1617.59 48.0728 Q1628.72 48.0728 1636.92 53.9284 Q1645.19 59.784 1645.19 68.787 Q1645.19 77.6436 1639.33 84.8899 Q1633.47 92.1362 1624.18 95.1372 Q1635.6 97.4063 1642.4 105.165 Q1649.21 112.85 1649.21 122.293 Q1649.21 134.004 1639.99 142.641 Q1630.77 151.205 1617.3 151.205 Q1604.86 151.205 1595.93 144.471 Q1587 137.737 1587 127.709 Z" fill="#000000" fill-rule="nonzero" fill-opacity="1" /><path clip-path="url(#clip730)" d="M1681.03 147.911 L1681.03 143.3 Q1689.01 143.3 1690.84 142.348 Q1692.67 141.323 1692.67 136.492 L1692.67 96.3084 Q1692.67 90.7455 1690.7 89.3548 Q1688.79 87.9641 1681.03 87.9641 L1681.03 83.2796 L1702.11 81.6693 L1702.11 97.4063 Q1709.14 81.6693 1724.29 81.6693 Q1741.86 81.6693 1744.28 96.3084 Q1746.84 90.5991 1752.18 86.1342 Q1757.6 81.6693 1766.01 81.6693 Q1777.29 81.6693 1781.75 87.2322 Q1785.04 90.9651 1785.7 95.1372 Q1786.36 99.3094 1786.36 110.142 L1786.36 138.762 Q1786.51 141.909 1788.92 142.641 Q1791.34 143.3 1798.07 143.3 L1798.07 147.911 Q1782.78 147.472 1781.31 147.472 Q1780.14 147.472 1764.33 147.911 L1764.33 143.3 Q1772.31 143.3 1774.14 142.348 Q1776.04 141.323 1776.04 136.492 L1776.04 101.578 Q1776.04 93.9661 1773.7 89.5012 Q1771.36 84.9631 1764.92 84.9631 Q1757.16 84.9631 1750.94 91.4775 Q1744.71 97.9919 1744.71 108.971 L1744.71 136.492 Q1744.71 141.323 1746.54 142.348 Q1748.45 143.3 1756.43 143.3 L1756.43 147.911 Q1741.13 147.472 1739.59 147.472 Q1738.42 147.472 1722.68 147.911 L1722.68 143.3 Q1730.66 143.3 1732.49 142.348 Q1734.39 141.323 1734.39 136.492 L1734.39 101.578 Q1734.39 93.9661 1732.05 89.5012 Q1729.71 84.9631 1723.27 84.9631 Q1715.51 84.9631 1709.29 91.4775 Q1703.07 97.9919 1703.07 108.971 L1703.07 136.492 Q1703.07 141.323 1704.9 142.348 Q1706.8 143.3 1714.7 143.3 L1714.7 147.911 Q1699.41 147.472 1697.94 147.472 Q1696.77 147.472 1681.03 147.911 Z" fill="#000000" fill-rule="nonzero" fill-opacity="1" /><polyline clip-path="url(#clip732)" style="stroke:#d10f0f; stroke-linecap:round; stroke-linejoin:round; stroke-width:10; stroke-opacity:1; fill:none" points="1458.24,912.871 1455.69,914.199 "/>
<polyline clip-path="url(#clip732)" style="stroke:#d10f0f; stroke-linecap:round; stroke-linejoin:round; stroke-width:10; stroke-opacity:1; fill:none" points="1820.39,1294.78 1810.62,1287.36 "/>
<polyline clip-path="url(#clip732)" style="stroke:#d10f0f; stroke-linecap:round; stroke-linejoin:round; stroke-width:10; stroke-opacity:1; fill:none" points="1714.36,776.856 1704.94,782.247 "/>
<polyline clip-path="url(#clip732)" style="stroke:#d10f0f; stroke-linecap:round; stroke-linejoin:round; stroke-width:10; stroke-opacity:1; fill:none" points="1355.83,370.523 1355.96,375.263 "/>
<polyline clip-path="url(#clip732)" style="stroke:#d10f0f; stroke-linecap:round; stroke-linejoin:round; stroke-width:10; stroke-opacity:1; fill:none" points="910.104,891.755 912.611,892.606 "/>
<polyline clip-path="url(#clip732)" style="stroke:#d10f0f; stroke-linecap:round; stroke-linejoin:round; stroke-width:10; stroke-opacity:1; fill:none" points="635.041,1353.23 644.072,1348.93 "/>
<polyline clip-path="url(#clip732)" style="stroke:#d10f0f; stroke-linecap:round; stroke-linejoin:round; stroke-width:10; stroke-opacity:1; fill:none" points="1272.47,1489.97 1272.4,1490.84 "/>
<polyline clip-path="url(#clip732)" style="stroke:#d10f0f; stroke-linecap:round; stroke-linejoin:round; stroke-width:10; stroke-opacity:1; fill:none" points="1012.64,859.612 1019.66,861.843 "/>
<polyline clip-path="url(#clip732)" style="stroke:#d10f0f; stroke-linecap:round; stroke-linejoin:round; stroke-width:10; stroke-opacity:1; fill:none" points="1031.72,1011.65 1023.56,1005.17 "/>
<polyline clip-path="url(#clip732)" style="stroke:#d10f0f; stroke-linecap:round; stroke-linejoin:round; stroke-width:10; stroke-opacity:1; fill:none" points="1549.25,941.62 1539.86,942.217 "/>
<circle clip-path="url(#clip732)" cx="1458.24" cy="912.871" r="54" fill="#a6a6a6" fill-rule="evenodd" fill-opacity="1" stroke="#595959" stroke-opacity="1" stroke-width="8.64"/>
<circle clip-path="url(#clip732)" cx="1820.39" cy="1294.78" r="54" fill="#a6a6a6" fill-rule="evenodd" fill-opacity="1" stroke="#595959" stroke-opacity="1" stroke-width="8.64"/>
<circle clip-path="url(#clip732)" cx="1714.36" cy="776.856" r="54" fill="#a6a6a6" fill-rule="evenodd" fill-opacity="1" stroke="#595959" stroke-opacity="1" stroke-width="8.64"/>
<circle clip-path="url(#clip732)" cx="1355.83" cy="370.523" r="54" fill="#a6a6a6" fill-rule="evenodd" fill-opacity="1" stroke="#595959" stroke-opacity="1" stroke-width="8.64"/>
<circle clip-path="url(#clip732)" cx="910.104" cy="891.755" r="54" fill="#a6a6a6" fill-rule="evenodd" fill-opacity="1" stroke="#595959" stroke-opacity="1" stroke-width="8.64"/>
<circle clip-path="url(#clip732)" cx="635.041" cy="1353.23" r="54" fill="#a6a6a6" fill-rule="evenodd" fill-opacity="1" stroke="#595959" stroke-opacity="1" stroke-width="8.64"/>
<circle clip-path="url(#clip732)" cx="1272.47" cy="1489.97" r="54" fill="#a6a6a6" fill-rule="evenodd" fill-opacity="1" stroke="#595959" stroke-opacity="1" stroke-width="8.64"/>
<circle clip-path="url(#clip732)" cx="1012.64" cy="859.612" r="54" fill="#a6a6a6" fill-rule="evenodd" fill-opacity="1" stroke="#595959" stroke-opacity="1" stroke-width="8.64"/>
<circle clip-path="url(#clip732)" cx="1031.72" cy="1011.65" r="54" fill="#a6a6a6" fill-rule="evenodd" fill-opacity="1" stroke="#595959" stroke-opacity="1" stroke-width="8.64"/>
<circle clip-path="url(#clip732)" cx="1549.25" cy="941.62" r="54" fill="#a6a6a6" fill-rule="evenodd" fill-opacity="1" stroke="#595959" stroke-opacity="1" stroke-width="8.64"/>
<path clip-path="url(#clip732)" d="M1455.69 854.199 L1395.69 914.199 L1455.69 974.199 L1515.69 914.199 L1455.69 854.199 Z" fill="#d10f0f" fill-rule="evenodd" fill-opacity="0.5" stroke="#000000" stroke-opacity="0.5" stroke-width="8.64"/>
<path clip-path="url(#clip732)" d="M1810.62 1227.36 L1750.62 1287.36 L1810.62 1347.36 L1870.62 1287.36 L1810.62 1227.36 Z" fill="#d10f0f" fill-rule="evenodd" fill-opacity="0.5" stroke="#000000" stroke-opacity="0.5" stroke-width="8.64"/>
<path clip-path="url(#clip732)" d="M1704.94 722.247 L1644.94 782.247 L1704.94 842.247 L1764.94 782.247 L1704.94 722.247 Z" fill="#d10f0f" fill-rule="evenodd" fill-opacity="0.5" stroke="#000000" stroke-opacity="0.5" stroke-width="8.64"/>
<path clip-path="url(#clip732)" d="M1355.96 315.263 L1295.96 375.263 L1355.96 435.263 L1415.96 375.263 L1355.96 315.263 Z" fill="#d10f0f" fill-rule="evenodd" fill-opacity="0.5" stroke="#000000" stroke-opacity="0.5" stroke-width="8.64"/>
<path clip-path="url(#clip732)" d="M912.611 832.606 L852.611 892.606 L912.611 952.606 L972.611 892.606 L912.611 832.606 Z" fill="#d10f0f" fill-rule="evenodd" fill-opacity="0.5" stroke="#000000" stroke-opacity="0.5" stroke-width="8.64"/>
<path clip-path="url(#clip732)" d="M644.072 1288.93 L584.072 1348.93 L644.072 1408.93 L704.072 1348.93 L644.072 1288.93 Z" fill="#d10f0f" fill-rule="evenodd" fill-opacity="0.5" stroke="#000000" stroke-opacity="0.5" stroke-width="8.64"/>
<path clip-path="url(#clip732)" d="M1272.4 1430.84 L1212.4 1490.84 L1272.4 1550.84 L1332.4 1490.84 L1272.4 1430.84 Z" fill="#d10f0f" fill-rule="evenodd" fill-opacity="0.5" stroke="#000000" stroke-opacity="0.5" stroke-width="8.64"/>
<path clip-path="url(#clip732)" d="M1019.66 801.843 L959.661 861.843 L1019.66 921.843 L1079.66 861.843 L1019.66 801.843 Z" fill="#d10f0f" fill-rule="evenodd" fill-opacity="0.5" stroke="#000000" stroke-opacity="0.5" stroke-width="8.64"/>
<path clip-path="url(#clip732)" d="M1023.56 945.166 L963.563 1005.17 L1023.56 1065.17 L1083.56 1005.17 L1023.56 945.166 Z" fill="#d10f0f" fill-rule="evenodd" fill-opacity="0.5" stroke="#000000" stroke-opacity="0.5" stroke-width="8.64"/>
<path clip-path="url(#clip732)" d="M1539.86 882.217 L1479.86 942.217 L1539.86 1002.22 L1599.86 942.217 L1539.86 882.217 Z" fill="#d10f0f" fill-rule="evenodd" fill-opacity="0.5" stroke="#000000" stroke-opacity="0.5" stroke-width="8.64"/>
<path clip-path="url(#clip730)" d="M1541.77 566.997 L2324.43 566.997 L2324.43 178.197 L1541.77 178.197  Z" fill="#ffffff" fill-rule="evenodd" fill-opacity="0.92"/>
<polyline clip-path="url(#clip730)" style="stroke:#000000; stroke-linecap:round; stroke-linejoin:round; stroke-width:4; stroke-opacity:1; fill:none" points="1541.77,566.997 2324.43,566.997 2324.43,178.197 1541.77,178.197 1541.77,566.997 "/>
<circle clip-path="url(#clip730)" cx="1642.53" cy="307.797" r="54" fill="#a6a6a6" fill-rule="evenodd" fill-opacity="1" stroke="#595959" stroke-opacity="1" stroke-width="8.64"/>
<path clip-path="url(#clip730)" d="M1743.29 293.809 L1745.7 265.4 L1822.96 265.4 L1825.37 293.809 L1822.22 293.809 Q1821.72 288.127 1821.23 284.854 Q1820.8 281.581 1819.68 278.493 Q1818.63 275.343 1817.28 273.861 Q1815.98 272.317 1813.45 271.144 Q1810.91 269.909 1807.64 269.6 Q1804.37 269.291 1799.43 269.291 Q1793.62 269.291 1792.2 269.538 Q1790.66 269.909 1790.29 271.02 Q1789.92 272.07 1789.92 274.355 L1789.92 340.992 Q1789.92 343.525 1790.41 344.574 Q1790.97 345.563 1793.87 346.365 Q1796.77 347.107 1803.19 347.107 L1808.26 347.107 L1808.26 350.997 Q1803.07 350.627 1784.24 350.627 Q1765.52 350.627 1760.33 350.997 L1760.33 347.107 L1765.4 347.107 Q1771.82 347.107 1774.72 346.365 Q1777.69 345.563 1778.18 344.574 Q1778.68 343.525 1778.68 340.992 L1778.68 274.355 Q1778.68 272.564 1778.55 271.823 Q1778.43 271.082 1777.87 270.464 Q1777.32 269.785 1776.02 269.538 Q1774.79 269.291 1769.23 269.291 Q1764.29 269.291 1760.95 269.6 Q1757.68 269.909 1755.15 271.144 Q1752.61 272.317 1751.26 273.861 Q1749.96 275.343 1748.85 278.493 Q1747.8 281.581 1747.37 284.854 Q1746.93 288.127 1746.44 293.809 L1743.29 293.809 Z" fill="#000000" fill-rule="nonzero" fill-opacity="1" /><path clip-path="url(#clip730)" d="M1823.02 350.997 L1823.02 347.107 Q1829.75 347.107 1831.29 346.304 Q1832.9 345.439 1832.9 341.363 L1832.9 307.458 Q1832.9 302.764 1831.23 301.591 Q1829.63 300.417 1823.02 300.417 L1823.02 296.465 L1840.62 295.106 L1840.62 309.002 Q1842.41 303.567 1846.18 299.367 Q1850.01 295.106 1856.18 295.106 Q1860.26 295.106 1862.85 297.391 Q1865.51 299.676 1865.51 302.826 Q1865.51 305.605 1863.78 307.025 Q1862.11 308.384 1860.07 308.384 Q1857.79 308.384 1856.18 306.964 Q1854.64 305.481 1854.64 302.949 Q1854.64 301.405 1855.32 300.232 Q1856.06 298.997 1856.62 298.564 Q1857.17 298.132 1857.54 298.009 Q1857.3 297.885 1856.18 297.885 Q1849.2 297.885 1845.19 304.864 Q1841.24 311.781 1841.24 321.662 L1841.24 341.116 Q1841.24 344.76 1842.72 345.933 Q1844.26 347.107 1850.87 347.107 L1853.53 347.107 L1853.53 350.997 Q1848.46 350.627 1837.47 350.627 Q1835.93 350.627 1833.52 350.688 Q1831.11 350.75 1827.96 350.874 Q1824.81 350.997 1823.02 350.997 Z" fill="#000000" fill-rule="nonzero" fill-opacity="1" /><path clip-path="url(#clip730)" d="M1872.98 300.417 L1872.98 296.465 L1891.57 295.106 L1891.57 337.102 Q1891.57 340.128 1891.82 341.919 Q1892.07 343.648 1893.05 345.686 Q1894.1 347.724 1896.45 348.65 Q1898.86 349.577 1902.69 349.577 Q1909.54 349.577 1913.74 343.957 Q1918 338.337 1918 329.999 L1918 307.458 Q1918 302.764 1916.34 301.591 Q1914.67 300.417 1908.12 300.417 L1908.12 296.465 L1926.71 295.106 L1926.71 340.004 Q1926.71 344.698 1928.32 345.933 Q1929.98 347.107 1936.59 347.107 L1936.59 350.997 L1918.37 352.418 L1918.37 340.992 Q1913.06 352.356 1902.07 352.418 Q1896.51 352.418 1892.68 350.997 Q1888.92 349.577 1887 347.848 Q1885.09 346.057 1884.04 342.66 Q1883.05 339.263 1882.93 337.163 Q1882.8 335.064 1882.8 330.988 L1882.8 312.028 Q1882.8 303.443 1881.57 301.961 Q1880.33 300.417 1872.98 300.417 Z" fill="#000000" fill-rule="nonzero" fill-opacity="1" /><path clip-path="url(#clip730)" d="M1942.58 323.144 Q1942.58 311.225 1950.24 302.764 Q1957.9 294.303 1968.89 294.303 Q1980.01 294.303 1985.75 301.529 Q1991.56 308.755 1991.56 319.13 Q1991.56 321.044 1991.06 321.415 Q1990.57 321.786 1988.41 321.786 L1953.08 321.786 Q1953.08 334.693 1956.91 340.745 Q1962.22 349.206 1971.18 349.206 Q1972.41 349.206 1973.9 348.959 Q1975.38 348.712 1978.4 347.662 Q1981.43 346.551 1984.09 343.648 Q1986.74 340.745 1988.28 336.175 Q1988.66 334.384 1989.89 334.446 Q1991.56 334.446 1991.56 335.928 Q1991.56 337.04 1990.32 339.572 Q1989.15 342.042 1986.86 345.007 Q1984.58 347.971 1980.13 350.194 Q1975.75 352.418 1970.44 352.418 Q1959.32 352.418 1950.92 344.019 Q1942.58 335.558 1942.58 323.144 M1953.21 319.13 L1983.22 319.13 Q1983.22 316.474 1982.73 313.51 Q1982.29 310.546 1980.94 306.469 Q1979.64 302.332 1976.55 299.738 Q1973.46 297.144 1968.89 297.144 Q1966.85 297.144 1964.63 298.009 Q1962.47 298.873 1959.81 300.973 Q1957.16 303.073 1955.31 307.828 Q1953.45 312.584 1953.21 319.13 Z" fill="#000000" fill-rule="nonzero" fill-opacity="1" /><path clip-path="url(#clip730)" d="M2040.78 371.625 Q2047.51 371.625 2049.06 370.76 Q2050.66 369.957 2050.66 365.943 L2050.66 306.717 Q2050.66 302.517 2049.06 301.467 Q2047.51 300.417 2040.78 300.417 L2040.78 296.465 L2059 295.106 L2059 303.443 Q2066.59 295.106 2076.72 295.106 Q2087.47 295.106 2095.31 303.443 Q2103.16 311.781 2103.16 323.7 Q2103.16 335.743 2094.82 344.08 Q2086.48 352.418 2074.93 352.418 Q2068.63 352.418 2064.37 349.206 Q2060.17 345.933 2059.37 343.525 L2059.37 344.698 L2059.37 365.943 Q2059.37 370.019 2060.97 370.822 Q2062.58 371.625 2069.25 371.625 L2069.25 375.515 Q2055.97 375.145 2054.98 375.145 Q2053.75 375.145 2040.78 375.515 L2040.78 371.625 M2059.37 336.608 Q2059.37 338.522 2059.62 339.201 Q2059.92 339.881 2061.16 341.919 Q2066.16 349.577 2074.31 349.577 Q2074.38 349.577 2074.44 349.577 Q2081.66 349.577 2087.16 342.228 Q2092.66 334.817 2092.66 323.7 Q2092.66 313.078 2087.65 305.667 Q2082.65 298.256 2075.73 298.256 Q2070.79 298.256 2066.47 300.911 Q2062.15 303.567 2059.37 308.384 L2059.37 336.608 Z" fill="#000000" fill-rule="nonzero" fill-opacity="1" /><path clip-path="url(#clip730)" d="M2122.79 344.204 Q2114.46 335.928 2114.46 323.947 Q2114.46 311.904 2122.61 303.135 Q2130.82 294.303 2142.56 294.303 Q2154.04 294.303 2162.26 303.073 Q2170.53 311.781 2170.53 323.947 Q2170.53 335.866 2162.2 344.142 Q2153.92 352.418 2142.43 352.418 Q2131.19 352.418 2122.79 344.204 M2124.96 322.897 Q2124.96 335.187 2128.17 340.745 Q2133.11 349.206 2142.56 349.206 Q2147.25 349.206 2151.14 346.674 Q2155.09 344.142 2157.26 339.881 Q2160.03 334.323 2160.03 322.897 Q2160.03 310.731 2156.7 305.358 Q2151.76 297.144 2142.43 297.144 Q2138.36 297.144 2134.34 299.306 Q2130.39 301.405 2127.98 305.605 Q2124.96 311.163 2124.96 322.897 Z" fill="#000000" fill-rule="nonzero" fill-opacity="1" /><path clip-path="url(#clip730)" d="M2178.38 349.33 L2178.38 332.655 Q2178.38 331.235 2178.44 330.741 Q2178.5 330.246 2178.87 329.876 Q2179.24 329.505 2179.98 329.505 Q2180.85 329.505 2181.16 329.876 Q2181.53 330.246 2181.77 331.667 Q2183.69 340.375 2187.76 345.007 Q2191.9 349.577 2199.38 349.577 Q2206.48 349.577 2210.06 346.427 Q2213.64 343.277 2213.64 338.09 Q2213.64 328.826 2200.49 326.479 Q2192.89 324.935 2189.74 323.947 Q2186.59 322.897 2183.81 320.612 Q2178.38 316.166 2178.38 309.866 Q2178.38 303.567 2183.13 298.935 Q2187.95 294.303 2198.57 294.303 Q2205.67 294.303 2210.49 297.885 Q2211.91 296.773 2212.65 295.847 Q2214.32 294.303 2215.19 294.303 Q2216.17 294.303 2216.36 294.982 Q2216.54 295.6 2216.54 297.391 L2216.54 310.113 Q2216.54 311.534 2216.48 312.028 Q2216.42 312.522 2216.05 312.892 Q2215.68 313.201 2214.88 313.201 Q2213.46 313.201 2213.39 312.028 Q2212.41 296.712 2198.57 296.712 Q2191.1 296.712 2187.76 299.614 Q2184.43 302.455 2184.43 306.346 Q2184.43 308.508 2185.42 310.175 Q2186.47 311.781 2187.76 312.769 Q2189.12 313.695 2191.59 314.622 Q2194.06 315.486 2195.55 315.795 Q2197.09 316.104 2199.99 316.721 Q2210.12 318.636 2214.38 322.774 Q2219.69 328.085 2219.69 334.817 Q2219.69 342.289 2214.63 347.354 Q2209.57 352.418 2199.38 352.418 Q2191.16 352.418 2185.42 346.921 Q2184.68 347.662 2184.12 348.342 Q2183.56 348.959 2183.32 349.206 Q2183.13 349.453 2183.07 349.639 Q2183.01 349.762 2182.89 349.886 Q2180.35 352.418 2179.74 352.418 Q2178.75 352.418 2178.56 351.738 Q2178.38 351.121 2178.38 349.33 Z" fill="#000000" fill-rule="nonzero" fill-opacity="1" /><path clip-path="url(#clip730)" d="M2236.62 348.959 Q2234.7 346.921 2234.7 344.266 Q2234.7 341.61 2236.62 339.695 Q2238.53 337.719 2241.43 337.719 Q2244.21 337.719 2246.06 339.572 Q2247.98 341.363 2247.98 344.327 Q2247.98 347.23 2245.94 349.145 Q2243.96 350.997 2241.43 350.997 Q2238.53 350.997 2236.62 348.959 Z" fill="#000000" fill-rule="nonzero" fill-opacity="1" /><path clip-path="url(#clip730)" d="M1642.53 377.397 L1582.53 437.397 L1642.53 497.397 L1702.53 437.397 L1642.53 377.397 Z" fill="#d10f0f" fill-rule="evenodd" fill-opacity="0.5" stroke="#000000" stroke-opacity="0.5" stroke-width="8.64"/>
<path clip-path="url(#clip730)" d="M1743.29 480.597 L1743.29 476.707 L1746.32 476.707 Q1753.17 476.707 1754.71 475.595 Q1756.32 474.421 1756.32 470.716 L1756.32 404.449 Q1756.32 400.805 1754.71 399.694 Q1753.11 398.52 1746.32 398.52 L1743.29 398.52 L1743.29 394.568 L1814.5 394.568 L1818.02 423.038 L1814.87 423.038 Q1814 415.813 1812.83 411.675 Q1811.72 407.475 1808.94 404.264 Q1806.22 401.052 1801.71 399.817 Q1797.27 398.52 1790.04 398.52 L1773.74 398.52 Q1769.41 398.52 1768.49 399.447 Q1767.56 400.311 1767.56 403.585 L1767.56 433.908 L1778.92 433.908 Q1787.63 433.908 1790.1 430.882 Q1792.57 427.856 1792.57 419.148 L1795.78 419.148 L1795.78 452.621 L1792.57 452.621 Q1792.57 444.036 1790.1 440.948 Q1787.63 437.86 1778.92 437.86 L1767.56 437.86 L1767.56 471.642 Q1767.56 474.916 1768.49 475.842 Q1769.47 476.707 1773.74 476.707 L1790.6 476.707 Q1796.03 476.707 1799.98 476.027 Q1804 475.286 1806.78 473.557 Q1809.56 471.766 1811.41 469.728 Q1813.32 467.69 1814.62 464.046 Q1815.98 460.341 1816.72 456.944 Q1817.52 453.547 1818.39 447.989 L1821.54 447.989 L1816.23 480.597 L1743.29 480.597 Z" fill="#000000" fill-rule="nonzero" fill-opacity="1" /><path clip-path="url(#clip730)" d="M1829.26 478.93 L1829.26 462.255 Q1829.26 460.835 1829.32 460.341 Q1829.38 459.846 1829.75 459.476 Q1830.12 459.105 1830.86 459.105 Q1831.73 459.105 1832.04 459.476 Q1832.41 459.846 1832.65 461.267 Q1834.57 469.975 1838.64 474.607 Q1842.78 479.177 1850.25 479.177 Q1857.36 479.177 1860.94 476.027 Q1864.52 472.877 1864.52 467.69 Q1864.52 458.426 1851.37 456.079 Q1843.77 454.535 1840.62 453.547 Q1837.47 452.497 1834.69 450.212 Q1829.26 445.766 1829.26 439.466 Q1829.26 433.167 1834.01 428.535 Q1838.83 423.903 1849.45 423.903 Q1856.55 423.903 1861.37 427.485 Q1862.79 426.373 1863.53 425.447 Q1865.2 423.903 1866.06 423.903 Q1867.05 423.903 1867.24 424.582 Q1867.42 425.2 1867.42 426.991 L1867.42 439.713 Q1867.42 441.134 1867.36 441.628 Q1867.3 442.122 1866.93 442.492 Q1866.56 442.801 1865.76 442.801 Q1864.34 442.801 1864.27 441.628 Q1863.29 426.312 1849.45 426.312 Q1841.98 426.312 1838.64 429.214 Q1835.31 432.055 1835.31 435.946 Q1835.31 438.108 1836.3 439.775 Q1837.35 441.381 1838.64 442.369 Q1840 443.295 1842.47 444.222 Q1844.94 445.086 1846.43 445.395 Q1847.97 445.704 1850.87 446.321 Q1861 448.236 1865.26 452.374 Q1870.57 457.685 1870.57 464.417 Q1870.57 471.889 1865.51 476.954 Q1860.44 482.018 1850.25 482.018 Q1842.04 482.018 1836.3 476.521 Q1835.56 477.262 1835 477.942 Q1834.44 478.559 1834.2 478.806 Q1834.01 479.053 1833.95 479.239 Q1833.89 479.362 1833.77 479.486 Q1831.23 482.018 1830.62 482.018 Q1829.63 482.018 1829.44 481.338 Q1829.26 480.721 1829.26 478.93 Z" fill="#000000" fill-rule="nonzero" fill-opacity="1" /><path clip-path="url(#clip730)" d="M1877.24 430.017 L1877.24 427.238 Q1883.05 426.991 1886.88 422.915 Q1890.77 418.777 1892.07 413.713 Q1893.42 408.649 1893.55 402.782 L1896.7 402.782 L1896.7 426.065 L1914.79 426.065 L1914.79 430.017 L1896.7 430.017 L1896.7 465.158 Q1896.7 478.806 1905.22 478.806 Q1908.86 478.806 1911.27 475.101 Q1913.68 471.334 1913.68 464.664 L1913.68 457.685 L1916.83 457.685 L1916.83 464.911 Q1916.83 471.766 1913.68 476.892 Q1910.53 482.018 1904.29 482.018 Q1902.01 482.018 1899.72 481.4 Q1897.5 480.844 1894.54 479.362 Q1891.63 477.818 1889.78 474.113 Q1887.99 470.345 1887.99 464.911 L1887.99 430.017 L1877.24 430.017 Z" fill="#000000" fill-rule="nonzero" fill-opacity="1" /><path clip-path="url(#clip730)" d="M1928.07 480.597 L1928.07 476.707 Q1934.8 476.707 1936.35 475.904 Q1937.89 475.039 1937.89 470.963 L1937.89 436.934 Q1937.89 432.24 1936.28 431.129 Q1934.74 430.017 1928.56 430.017 L1928.56 426.065 L1946.23 424.706 L1946.23 471.086 Q1946.23 474.854 1947.59 475.78 Q1948.94 476.707 1955.12 476.707 L1955.12 480.597 Q1942.21 480.227 1941.97 480.227 Q1940.24 480.227 1928.07 480.597 M1933.38 402.658 Q1933.38 400.126 1935.3 398.088 Q1937.27 395.988 1940.05 395.988 Q1942.83 395.988 1944.81 397.903 Q1946.78 399.756 1946.78 402.72 Q1946.78 405.623 1944.81 407.537 Q1942.83 409.39 1940.05 409.39 Q1937.15 409.39 1935.23 407.352 Q1933.38 405.314 1933.38 402.658 Z" fill="#000000" fill-rule="nonzero" fill-opacity="1" /><path clip-path="url(#clip730)" d="M1962.96 480.597 L1962.96 476.707 Q1969.7 476.707 1971.24 475.904 Q1972.78 475.039 1972.78 470.963 L1972.78 437.058 Q1972.78 432.364 1971.12 431.191 Q1969.51 430.017 1962.96 430.017 L1962.96 426.065 L1980.75 424.706 L1980.75 437.984 Q1986.68 424.706 1999.46 424.706 Q2014.29 424.706 2016.32 437.058 Q2018.48 432.24 2022.99 428.473 Q2027.56 424.706 2034.67 424.706 Q2044.18 424.706 2047.94 429.4 Q2050.72 432.549 2051.28 436.069 Q2051.83 439.59 2051.83 448.73 L2051.83 472.877 Q2051.96 475.533 2054 476.151 Q2056.03 476.707 2061.72 476.707 L2061.72 480.597 Q2048.81 480.227 2047.57 480.227 Q2046.58 480.227 2033.24 480.597 L2033.24 476.707 Q2039.98 476.707 2041.52 475.904 Q2043.13 475.039 2043.13 470.963 L2043.13 441.504 Q2043.13 435.081 2041.15 431.314 Q2039.17 427.485 2033.74 427.485 Q2027.19 427.485 2021.94 432.982 Q2016.69 438.478 2016.69 447.742 L2016.69 470.963 Q2016.69 475.039 2018.24 475.904 Q2019.84 476.707 2026.58 476.707 L2026.58 480.597 Q2013.67 480.227 2012.37 480.227 Q2011.38 480.227 1998.1 480.597 L1998.1 476.707 Q2004.84 476.707 2006.38 475.904 Q2007.99 475.039 2007.99 470.963 L2007.99 441.504 Q2007.99 435.081 2006.01 431.314 Q2004.03 427.485 1998.6 427.485 Q1992.05 427.485 1986.8 432.982 Q1981.55 438.478 1981.55 447.742 L1981.55 470.963 Q1981.55 475.039 1983.1 475.904 Q1984.7 476.707 1991.37 476.707 L1991.37 480.597 Q1978.47 480.227 1977.23 480.227 Q1976.24 480.227 1962.96 480.597 Z" fill="#000000" fill-rule="nonzero" fill-opacity="1" /><path clip-path="url(#clip730)" d="M2069.5 468.554 Q2069.5 457.808 2082.16 452.127 Q2089.75 448.483 2105.44 447.557 L2105.44 442.925 Q2105.44 435.081 2101.3 430.944 Q2097.23 426.744 2092.04 426.744 Q2082.78 426.744 2078.33 432.549 Q2082.1 432.673 2083.45 434.587 Q2084.81 436.44 2084.81 438.355 Q2084.81 440.887 2083.21 442.554 Q2081.66 444.16 2079.01 444.16 Q2076.48 444.16 2074.81 442.616 Q2073.14 441.01 2073.14 438.231 Q2073.14 432.055 2078.7 427.979 Q2084.32 423.903 2092.29 423.903 Q2102.66 423.903 2109.58 430.882 Q2111.74 433.043 2112.79 435.822 Q2113.9 438.602 2114.02 440.454 Q2114.15 442.245 2114.15 445.827 L2114.15 471.086 Q2114.15 471.828 2114.4 473.063 Q2114.64 474.298 2115.75 475.904 Q2116.93 477.448 2118.84 477.448 Q2123.41 477.448 2123.35 469.357 L2123.35 462.255 L2126.56 462.255 L2126.56 469.357 Q2126.56 476.089 2122.98 478.745 Q2119.46 481.338 2116.19 481.338 Q2111.99 481.338 2109.33 478.25 Q2106.68 475.163 2106.31 470.963 Q2104.39 475.78 2100.01 478.93 Q2095.68 482.018 2089.75 482.018 Q2085.18 482.018 2080.86 480.844 Q2076.6 479.733 2073.02 476.583 Q2069.5 473.372 2069.5 468.554 M2079.25 468.431 Q2079.25 473.125 2082.59 476.151 Q2085.92 479.177 2090.62 479.177 Q2095.93 479.177 2100.69 475.101 Q2105.44 470.963 2105.44 462.873 L2105.44 450.212 Q2091.42 450.706 2085.31 456.326 Q2079.25 461.884 2079.25 468.431 Z" fill="#000000" fill-rule="nonzero" fill-opacity="1" /><path clip-path="url(#clip730)" d="M2129.84 430.017 L2129.84 427.238 Q2135.64 426.991 2139.47 422.915 Q2143.36 418.777 2144.66 413.713 Q2146.02 408.649 2146.14 402.782 L2149.29 402.782 L2149.29 426.065 L2167.38 426.065 L2167.38 430.017 L2149.29 430.017 L2149.29 465.158 Q2149.29 478.806 2157.81 478.806 Q2161.46 478.806 2163.86 475.101 Q2166.27 471.334 2166.27 464.664 L2166.27 457.685 L2169.42 457.685 L2169.42 464.911 Q2169.42 471.766 2166.27 476.892 Q2163.12 482.018 2156.89 482.018 Q2154.6 482.018 2152.32 481.4 Q2150.09 480.844 2147.13 479.362 Q2144.22 477.818 2142.37 474.113 Q2140.58 470.345 2140.58 464.911 L2140.58 430.017 L2129.84 430.017 Z" fill="#000000" fill-rule="nonzero" fill-opacity="1" /><path clip-path="url(#clip730)" d="M2179.98 452.744 Q2179.98 440.825 2187.64 432.364 Q2195.3 423.903 2206.29 423.903 Q2217.41 423.903 2223.15 431.129 Q2228.96 438.355 2228.96 448.73 Q2228.96 450.644 2228.46 451.015 Q2227.97 451.386 2225.81 451.386 L2190.48 451.386 Q2190.48 464.293 2194.31 470.345 Q2199.62 478.806 2208.58 478.806 Q2209.81 478.806 2211.29 478.559 Q2212.78 478.312 2215.8 477.262 Q2218.83 476.151 2221.48 473.248 Q2224.14 470.345 2225.68 465.775 Q2226.05 463.984 2227.29 464.046 Q2228.96 464.046 2228.96 465.528 Q2228.96 466.64 2227.72 469.172 Q2226.55 471.642 2224.26 474.607 Q2221.98 477.571 2217.53 479.794 Q2213.15 482.018 2207.84 482.018 Q2196.72 482.018 2188.32 473.619 Q2179.98 465.158 2179.98 452.744 M2190.61 448.73 L2220.62 448.73 Q2220.62 446.074 2220.13 443.11 Q2219.69 440.146 2218.33 436.069 Q2217.04 431.932 2213.95 429.338 Q2210.86 426.744 2206.29 426.744 Q2204.25 426.744 2202.03 427.609 Q2199.87 428.473 2197.21 430.573 Q2194.56 432.673 2192.71 437.428 Q2190.85 442.184 2190.61 448.73 Z" fill="#000000" fill-rule="nonzero" fill-opacity="1" /><path clip-path="url(#clip730)" d="M2236.92 453.424 Q2236.92 441.381 2245.32 433.043 Q2253.72 424.706 2265.09 424.706 Q2274.72 424.706 2281.02 432.549 L2281.02 405.19 Q2281.02 400.497 2279.35 399.323 Q2277.75 398.15 2271.2 398.15 L2271.2 394.197 L2289.42 392.839 L2289.42 469.604 Q2289.42 474.298 2291.02 475.533 Q2292.69 476.707 2299.24 476.707 L2299.24 480.597 L2280.65 482.018 L2280.65 473.619 Q2274.1 481.956 2263.73 482.018 Q2252.86 482.018 2244.89 473.68 Q2236.92 465.343 2236.92 453.424 M2247.42 453.547 Q2247.42 465.281 2251.07 471.086 Q2256.13 479.177 2264.34 479.177 Q2273.73 479.177 2279.29 470.345 Q2280.71 468.184 2280.65 465.652 L2280.65 439.713 Q2280.65 437.181 2279.29 435.081 Q2274.1 427.485 2265.64 427.485 Q2256.81 427.485 2251.31 435.575 Q2247.42 441.628 2247.42 453.547 Z" fill="#000000" fill-rule="nonzero" fill-opacity="1" /></svg>
