<?xml version="1.0" encoding="utf-8"?>
<svg xmlns="http://www.w3.org/2000/svg" xmlns:xlink="http://www.w3.org/1999/xlink" width="600" height="540" viewBox="0 0 2400 2160">
<defs>
  <clipPath id="clip670">
    <rect x="0" y="0" width="2400" height="2160"/>
  </clipPath>
</defs>
<path clip-path="url(#clip670)" d="M0 2160 L2400 2160 L2400 0 L0 0  Z" fill="#ffffff" fill-rule="evenodd" fill-opacity="1"/>
<defs>
  <clipPath id="clip671">
    <rect x="480" y="0" width="1681" height="1681"/>
  </clipPath>
</defs>
<defs>
  <clipPath id="clip672">
    <rect x="132" y="114" width="2268" height="1918"/>
  </clipPath>
</defs>
<path clip-path="url(#clip672)" d="M1228.64 743.799 L1228.64 711.137 L1242.97 698.661 L1263.43 707.397 L1263.43 740.059 L1249.1 752.535 L1228.64 743.799  Z" fill="#ffffff" fill-rule="evenodd" fill-opacity="1"/>
<polyline clip-path="url(#clip672)" style="stroke:#000000; stroke-linecap:round; stroke-linejoin:round; stroke-width:2; stroke-opacity:0.2; fill:none" stroke-dasharray="1, 2" points="531.654,1642.23 1166.41,1259.12 1166.41,256.14 "/>
<polyline clip-path="url(#clip672)" style="stroke:#000000; stroke-linecap:round; stroke-linejoin:round; stroke-width:2; stroke-opacity:0.2; fill:none" stroke-dasharray="1, 2" points="736.275,1702.79 1371.03,1319.67 1371.03,316.692 "/>
<polyline clip-path="url(#clip672)" style="stroke:#000000; stroke-linecap:round; stroke-linejoin:round; stroke-width:2; stroke-opacity:0.2; fill:none" stroke-dasharray="1, 2" points="940.897,1763.34 1575.65,1380.22 1575.65,377.243 "/>
<polyline clip-path="url(#clip672)" style="stroke:#000000; stroke-linecap:round; stroke-linejoin:round; stroke-width:2; stroke-opacity:0.2; fill:none" stroke-dasharray="1, 2" points="1145.52,1823.89 1780.28,1440.77 1780.28,437.795 "/>
<polyline clip-path="url(#clip672)" style="stroke:#000000; stroke-linecap:round; stroke-linejoin:round; stroke-width:2; stroke-opacity:0.2; fill:none" stroke-dasharray="1, 2" points="1350.14,1884.44 1984.9,1501.33 1984.9,498.347 "/>
<polyline clip-path="url(#clip672)" style="stroke:#000000; stroke-linecap:round; stroke-linejoin:round; stroke-width:2; stroke-opacity:0.2; fill:none" stroke-dasharray="1, 2" points="1421.23,1888.47 514.701,1620.21 514.701,617.228 "/>
<polyline clip-path="url(#clip672)" style="stroke:#000000; stroke-linecap:round; stroke-linejoin:round; stroke-width:2; stroke-opacity:0.2; fill:none" stroke-dasharray="1, 2" points="1524.58,1826.09 618.054,1557.83 618.054,554.848 "/>
<polyline clip-path="url(#clip672)" style="stroke:#000000; stroke-linecap:round; stroke-linejoin:round; stroke-width:2; stroke-opacity:0.2; fill:none" stroke-dasharray="1, 2" points="1627.93,1763.71 721.407,1495.45 721.407,492.468 "/>
<polyline clip-path="url(#clip672)" style="stroke:#000000; stroke-linecap:round; stroke-linejoin:round; stroke-width:2; stroke-opacity:0.2; fill:none" stroke-dasharray="1, 2" points="1731.29,1701.33 824.761,1433.07 824.761,430.088 "/>
<polyline clip-path="url(#clip672)" style="stroke:#000000; stroke-linecap:round; stroke-linejoin:round; stroke-width:2; stroke-opacity:0.2; fill:none" stroke-dasharray="1, 2" points="1834.64,1638.95 928.114,1370.69 928.114,367.708 "/>
<polyline clip-path="url(#clip672)" style="stroke:#000000; stroke-linecap:round; stroke-linejoin:round; stroke-width:2; stroke-opacity:0.2; fill:none" stroke-dasharray="1, 2" points="1937.99,1576.57 1031.47,1308.31 1031.47,305.328 "/>
<polyline clip-path="url(#clip672)" style="stroke:#000000; stroke-linecap:round; stroke-linejoin:round; stroke-width:2; stroke-opacity:0.2; fill:none" stroke-dasharray="1, 2" points="495.79,1568.53 1130.55,1185.42 2037.07,1453.68 "/>
<polyline clip-path="url(#clip672)" style="stroke:#000000; stroke-linecap:round; stroke-linejoin:round; stroke-width:2; stroke-opacity:0.2; fill:none" stroke-dasharray="1, 2" points="495.79,1408.67 1130.55,1025.56 2037.07,1293.82 "/>
<polyline clip-path="url(#clip672)" style="stroke:#000000; stroke-linecap:round; stroke-linejoin:round; stroke-width:2; stroke-opacity:0.2; fill:none" stroke-dasharray="1, 2" points="495.79,1248.82 1130.55,865.7 2037.07,1133.96 "/>
<polyline clip-path="url(#clip672)" style="stroke:#000000; stroke-linecap:round; stroke-linejoin:round; stroke-width:2; stroke-opacity:0.2; fill:none" stroke-dasharray="1, 2" points="495.79,1088.96 1130.55,705.843 2037.07,974.103 "/>
<polyline clip-path="url(#clip672)" style="stroke:#000000; stroke-linecap:round; stroke-linejoin:round; stroke-width:2; stroke-opacity:0.2; fill:none" stroke-dasharray="1, 2" points="495.79,929.1 1130.55,545.985 2037.07,814.245 "/>
<polyline clip-path="url(#clip672)" style="stroke:#000000; stroke-linecap:round; stroke-linejoin:round; stroke-width:2; stroke-opacity:0.2; fill:none" stroke-dasharray="1, 2" points="495.79,769.242 1130.55,386.127 2037.07,654.387 "/>
<polyline clip-path="url(#clip670)" style="stroke:#000000; stroke-linecap:round; stroke-linejoin:round; stroke-width:4; stroke-opacity:1; fill:none" points="495.79,1631.62 1402.32,1899.88 "/>
<polyline clip-path="url(#clip670)" style="stroke:#000000; stroke-linecap:round; stroke-linejoin:round; stroke-width:4; stroke-opacity:1; fill:none" points="1130.55,245.527 2037.07,513.787 "/>
<polyline clip-path="url(#clip670)" style="stroke:#000000; stroke-linecap:round; stroke-linejoin:round; stroke-width:4; stroke-opacity:1; fill:none" points="531.654,1642.23 539.271,1637.64 "/>
<polyline clip-path="url(#clip670)" style="stroke:#000000; stroke-linecap:round; stroke-linejoin:round; stroke-width:4; stroke-opacity:1; fill:none" points="736.275,1702.79 743.892,1698.19 "/>
<polyline clip-path="url(#clip670)" style="stroke:#000000; stroke-linecap:round; stroke-linejoin:round; stroke-width:4; stroke-opacity:1; fill:none" points="940.897,1763.34 948.514,1758.74 "/>
<polyline clip-path="url(#clip670)" style="stroke:#000000; stroke-linecap:round; stroke-linejoin:round; stroke-width:4; stroke-opacity:1; fill:none" points="1145.52,1823.89 1153.14,1819.29 "/>
<polyline clip-path="url(#clip670)" style="stroke:#000000; stroke-linecap:round; stroke-linejoin:round; stroke-width:4; stroke-opacity:1; fill:none" points="1350.14,1884.44 1357.76,1879.84 "/>
<path clip-path="url(#clip670)" d="M391.147 1678.51 Q391.888 1679.25 391.888 1680.3 Q391.888 1681.35 391.147 1682.09 Q390.406 1682.83 389.356 1682.83 L310.182 1682.83 Q309.132 1682.83 308.391 1682.09 Q307.65 1681.35 307.65 1680.3 Q307.65 1679.25 308.391 1678.51 Q309.132 1677.77 310.182 1677.77 L389.356 1677.77 Q390.406 1677.77 391.147 1678.51 Z" fill="#000000" fill-rule="nonzero" fill-opacity="1" /><path clip-path="url(#clip670)" d="M402.449 1691.05 L402.449 1687.16 L441.295 1627.81 Q442.283 1626.26 443.827 1626.32 Q445.247 1626.32 445.556 1626.88 Q445.865 1627.44 445.865 1629.6 L445.865 1687.16 L458.525 1687.16 L458.525 1691.05 L445.865 1691.05 L445.865 1702.04 Q445.865 1705.68 447.347 1706.86 Q448.891 1708.03 455.438 1708.03 L458.093 1708.03 L458.093 1711.92 Q452.905 1711.55 440.924 1711.55 Q429.005 1711.55 423.817 1711.92 L423.817 1708.03 L426.473 1708.03 Q433.019 1708.03 434.563 1706.92 Q436.107 1705.75 436.107 1702.04 L436.107 1691.05 L402.449 1691.05 M406.031 1687.16 L436.848 1687.16 L436.848 1639.97 L406.031 1687.16 Z" fill="#000000" fill-rule="nonzero" fill-opacity="1" /><path clip-path="url(#clip670)" d="M467.11 1671.47 Q467.11 1652.88 471.804 1642.75 Q478.35 1627.68 493.79 1627.68 Q497.063 1627.68 500.459 1628.61 Q503.918 1629.47 508.241 1632.87 Q512.626 1636.27 515.281 1641.83 Q520.346 1652.57 520.346 1671.47 Q520.346 1689.94 515.652 1700 Q508.797 1714.7 493.666 1714.7 Q487.984 1714.7 482.179 1711.8 Q476.435 1708.9 472.792 1701.92 Q467.11 1691.48 467.11 1671.47 M477.609 1669.93 Q477.609 1689.01 478.968 1696.61 Q480.511 1704.82 484.711 1708.4 Q488.972 1711.92 493.666 1711.92 Q498.73 1711.92 502.93 1708.15 Q507.191 1704.32 508.488 1696.11 Q509.908 1688.02 509.847 1669.93 Q509.847 1652.32 508.612 1645.28 Q506.944 1637.07 502.497 1633.8 Q498.113 1630.46 493.666 1630.46 Q491.999 1630.46 490.208 1630.96 Q488.478 1631.45 485.946 1632.87 Q483.414 1634.29 481.438 1637.81 Q479.523 1641.33 478.597 1646.64 Q477.609 1653.5 477.609 1669.93 Z" fill="#000000" fill-rule="nonzero" fill-opacity="1" /><path clip-path="url(#clip670)" d="M595.769 1739.06 Q596.51 1739.8 596.51 1740.85 Q596.51 1741.9 595.769 1742.64 Q595.028 1743.38 593.978 1743.38 L514.803 1743.38 Q513.754 1743.38 513.012 1742.64 Q512.271 1741.9 512.271 1740.85 Q512.271 1739.8 513.012 1739.06 Q513.754 1738.32 514.803 1738.32 L593.978 1738.32 Q595.028 1738.32 595.769 1739.06 Z" fill="#000000" fill-rule="nonzero" fill-opacity="1" /><path clip-path="url(#clip670)" d="M609.85 1772.47 Q609.85 1770.19 610.035 1769.51 Q610.282 1768.83 611.27 1767.78 L635.541 1740.73 Q648.819 1725.78 648.819 1712.75 Q648.819 1704.29 644.373 1698.24 Q639.988 1692.19 631.897 1692.19 Q626.339 1692.19 621.645 1695.58 Q616.952 1698.98 614.79 1705.03 Q615.161 1704.91 616.458 1704.91 Q619.607 1704.91 621.337 1706.89 Q623.128 1708.86 623.128 1711.52 Q623.128 1714.91 620.904 1716.58 Q618.743 1718.19 616.581 1718.19 Q615.717 1718.19 614.543 1718 Q613.432 1717.82 611.641 1716.09 Q609.85 1714.3 609.85 1711.15 Q609.85 1702.32 616.519 1695.27 Q623.251 1688.23 633.503 1688.23 Q645.114 1688.23 652.71 1695.15 Q660.368 1702.01 660.368 1712.75 Q660.368 1716.52 659.195 1719.98 Q658.083 1723.38 656.539 1726.03 Q655.057 1728.69 650.981 1732.95 Q646.905 1737.21 643.631 1740.24 Q640.358 1743.26 633.009 1749.68 L619.607 1762.72 L642.396 1762.72 Q653.513 1762.72 654.377 1761.73 Q655.613 1759.94 657.157 1750.49 L660.368 1750.49 L656.786 1772.47 L609.85 1772.47 Z" fill="#000000" fill-rule="nonzero" fill-opacity="1" /><path clip-path="url(#clip670)" d="M671.732 1732.02 Q671.732 1713.43 676.425 1703.3 Q682.972 1688.23 698.411 1688.23 Q701.684 1688.23 705.081 1689.16 Q708.54 1690.03 712.863 1693.42 Q717.247 1696.82 719.903 1702.38 Q724.967 1713.12 724.967 1732.02 Q724.967 1750.49 720.274 1760.55 Q713.418 1775.25 698.288 1775.25 Q692.606 1775.25 686.801 1772.35 Q681.057 1769.45 677.413 1762.47 Q671.732 1752.03 671.732 1732.02 M682.23 1730.48 Q682.23 1749.56 683.589 1757.16 Q685.133 1765.37 689.333 1768.95 Q693.594 1772.47 698.288 1772.47 Q703.352 1772.47 707.551 1768.71 Q711.813 1764.88 713.11 1756.66 Q714.53 1748.57 714.468 1730.48 Q714.468 1712.88 713.233 1705.84 Q711.566 1697.62 707.119 1694.35 Q702.734 1691.01 698.288 1691.01 Q696.62 1691.01 694.829 1691.51 Q693.1 1692 690.568 1693.42 Q688.036 1694.84 686.059 1698.36 Q684.145 1701.88 683.219 1707.19 Q682.23 1714.05 682.23 1730.48 Z" fill="#000000" fill-rule="nonzero" fill-opacity="1" /><path clip-path="url(#clip670)" d="M876.353 1792.57 Q876.353 1773.98 881.047 1763.86 Q887.593 1748.79 903.033 1748.79 Q906.306 1748.79 909.703 1749.71 Q913.161 1750.58 917.484 1753.97 Q921.869 1757.37 924.525 1762.93 Q929.589 1773.67 929.589 1792.57 Q929.589 1811.04 924.895 1821.11 Q918.04 1835.8 902.909 1835.8 Q897.227 1835.8 891.422 1832.9 Q885.679 1830 882.035 1823.02 Q876.353 1812.58 876.353 1792.57 M886.852 1791.03 Q886.852 1810.11 888.211 1817.71 Q889.755 1825.92 893.954 1829.5 Q898.216 1833.02 902.909 1833.02 Q907.973 1833.02 912.173 1829.26 Q916.434 1825.43 917.731 1817.21 Q919.152 1809.12 919.09 1791.03 Q919.09 1773.43 917.855 1766.39 Q916.187 1758.17 911.741 1754.9 Q907.356 1751.57 902.909 1751.57 Q901.242 1751.57 899.451 1752.06 Q897.722 1752.55 895.189 1753.97 Q892.657 1755.39 890.681 1758.91 Q888.767 1762.43 887.84 1767.75 Q886.852 1774.6 886.852 1791.03 Z" fill="#000000" fill-rule="nonzero" fill-opacity="1" /><path clip-path="url(#clip670)" d="M1019.09 1893.58 Q1019.09 1891.29 1019.28 1890.61 Q1019.53 1889.93 1020.51 1888.88 L1044.78 1861.83 Q1058.06 1846.89 1058.06 1833.86 Q1058.06 1825.4 1053.62 1819.34 Q1049.23 1813.29 1041.14 1813.29 Q1035.58 1813.29 1030.89 1816.69 Q1026.2 1820.08 1024.03 1826.14 Q1024.4 1826.01 1025.7 1826.01 Q1028.85 1826.01 1030.58 1827.99 Q1032.37 1829.97 1032.37 1832.62 Q1032.37 1836.02 1030.15 1837.69 Q1027.99 1839.29 1025.82 1839.29 Q1024.96 1839.29 1023.79 1839.11 Q1022.67 1838.92 1020.88 1837.19 Q1019.09 1835.4 1019.09 1832.25 Q1019.09 1823.42 1025.76 1816.38 Q1032.49 1809.34 1042.75 1809.34 Q1054.36 1809.34 1061.95 1816.25 Q1069.61 1823.11 1069.61 1833.86 Q1069.61 1837.62 1068.44 1841.08 Q1067.33 1844.48 1065.78 1847.13 Q1064.3 1849.79 1060.22 1854.05 Q1056.15 1858.31 1052.87 1861.34 Q1049.6 1864.36 1042.25 1870.79 L1028.85 1883.82 L1051.64 1883.82 Q1062.76 1883.82 1063.62 1882.83 Q1064.86 1881.04 1066.4 1871.59 L1069.61 1871.59 L1066.03 1893.58 L1019.09 1893.58 Z" fill="#000000" fill-rule="nonzero" fill-opacity="1" /><path clip-path="url(#clip670)" d="M1080.97 1853.12 Q1080.97 1834.54 1085.67 1824.41 Q1092.21 1809.34 1107.65 1809.34 Q1110.93 1809.34 1114.32 1810.26 Q1117.78 1811.13 1122.11 1814.53 Q1126.49 1817.92 1129.15 1823.48 Q1134.21 1834.23 1134.21 1853.12 Q1134.21 1871.59 1129.52 1881.66 Q1122.66 1896.36 1107.53 1896.36 Q1101.85 1896.36 1096.04 1893.45 Q1090.3 1890.55 1086.66 1883.57 Q1080.97 1873.13 1080.97 1853.12 M1091.47 1851.58 Q1091.47 1870.66 1092.83 1878.26 Q1094.38 1886.47 1098.58 1890.06 Q1102.84 1893.58 1107.53 1893.58 Q1112.6 1893.58 1116.79 1889.81 Q1121.06 1885.98 1122.35 1877.77 Q1123.77 1869.68 1123.71 1851.58 Q1123.71 1833.98 1122.48 1826.94 Q1120.81 1818.73 1116.36 1815.45 Q1111.98 1812.12 1107.53 1812.12 Q1105.86 1812.12 1104.07 1812.61 Q1102.34 1813.11 1099.81 1814.53 Q1097.28 1815.95 1095.3 1819.47 Q1093.39 1822.99 1092.46 1828.3 Q1091.47 1835.15 1091.47 1851.58 Z" fill="#000000" fill-rule="nonzero" fill-opacity="1" /><path clip-path="url(#clip670)" d="M1220.94 1933.25 L1220.94 1929.36 L1259.78 1870.01 Q1260.77 1868.47 1262.31 1868.53 Q1263.73 1868.53 1264.04 1869.09 Q1264.35 1869.64 1264.35 1871.8 L1264.35 1929.36 L1277.01 1929.36 L1277.01 1933.25 L1264.35 1933.25 L1264.35 1944.25 Q1264.35 1947.89 1265.83 1949.06 Q1267.38 1950.24 1273.92 1950.24 L1276.58 1950.24 L1276.58 1954.13 Q1271.39 1953.76 1259.41 1953.76 Q1247.49 1953.76 1242.3 1954.13 L1242.3 1950.24 L1244.96 1950.24 Q1251.51 1950.24 1253.05 1949.13 Q1254.59 1947.95 1254.59 1944.25 L1254.59 1933.25 L1220.94 1933.25 M1224.52 1929.36 L1255.33 1929.36 L1255.33 1882.18 L1224.52 1929.36 Z" fill="#000000" fill-rule="nonzero" fill-opacity="1" /><path clip-path="url(#clip670)" d="M1285.6 1913.68 Q1285.6 1895.09 1290.29 1884.96 Q1296.84 1869.89 1312.28 1869.89 Q1315.55 1869.89 1318.95 1870.82 Q1322.4 1871.68 1326.73 1875.08 Q1331.11 1878.47 1333.77 1884.03 Q1338.83 1894.78 1338.83 1913.68 Q1338.83 1932.14 1334.14 1942.21 Q1327.28 1956.91 1312.15 1956.91 Q1306.47 1956.91 1300.67 1954 Q1294.92 1951.1 1291.28 1944.12 Q1285.6 1933.69 1285.6 1913.68 M1296.1 1912.13 Q1296.1 1931.22 1297.45 1938.81 Q1299 1947.03 1303.2 1950.61 Q1307.46 1954.13 1312.15 1954.13 Q1317.22 1954.13 1321.42 1950.36 Q1325.68 1946.53 1326.97 1938.32 Q1328.39 1930.23 1328.33 1912.13 Q1328.33 1894.53 1327.1 1887.49 Q1325.43 1879.28 1320.98 1876 Q1316.6 1872.67 1312.15 1872.67 Q1310.48 1872.67 1308.69 1873.16 Q1306.96 1873.66 1304.43 1875.08 Q1301.9 1876.5 1299.92 1880.02 Q1298.01 1883.54 1297.08 1888.85 Q1296.1 1895.7 1296.1 1912.13 Z" fill="#000000" fill-rule="nonzero" fill-opacity="1" /><path clip-path="url(#clip670)" d="M609.325 2087.32 Q609.325 2090.6 607.275 2092.47 Q605.226 2094.29 602.883 2094.29 Q600.658 2094.29 599.487 2093 Q598.316 2091.71 598.316 2090.07 Q598.316 2087.85 599.956 2085.91 Q601.595 2083.98 604.055 2083.57 Q601.654 2082.05 598.082 2082.05 Q595.74 2082.05 593.69 2083.28 Q591.699 2084.51 590.47 2086.09 Q589.298 2087.67 588.244 2089.95 Q587.249 2092.18 586.839 2093.53 Q586.488 2094.81 586.195 2096.22 L582.096 2112.61 Q580.105 2120.4 580.105 2123.15 Q580.105 2126.55 581.745 2128.83 Q583.384 2131.06 586.663 2131.06 Q587.952 2131.06 589.416 2130.71 Q590.879 2130.3 592.753 2129.24 Q594.686 2128.13 596.384 2126.49 Q598.14 2124.79 599.839 2121.92 Q601.537 2119.06 602.649 2115.37 Q603.001 2114.08 604.172 2114.08 Q605.636 2114.08 605.636 2115.25 Q605.636 2116.24 604.816 2118.35 Q604.055 2120.4 602.356 2123.1 Q600.717 2125.73 598.55 2128.13 Q596.384 2130.47 593.163 2132.11 Q589.943 2133.75 586.429 2133.75 Q581.393 2133.75 578.056 2131.06 Q574.718 2128.37 573.488 2124.62 Q573.195 2125.15 572.786 2125.85 Q572.376 2126.55 571.146 2128.13 Q569.975 2129.65 568.628 2130.83 Q567.281 2131.94 565.173 2132.82 Q563.124 2133.75 560.899 2133.75 Q558.088 2133.75 555.57 2132.93 Q553.111 2132.11 551.354 2130.24 Q549.597 2128.37 549.597 2125.79 Q549.597 2122.92 551.53 2120.93 Q553.521 2118.88 556.214 2118.88 Q557.912 2118.88 559.259 2119.88 Q560.664 2120.87 560.664 2123.04 Q560.664 2125.44 559.025 2127.25 Q557.385 2129.07 555.043 2129.54 Q557.444 2131.06 561.016 2131.06 Q564.881 2131.06 567.925 2127.66 Q570.97 2124.27 572.434 2118.59 Q576.065 2104.94 577.47 2098.85 Q578.875 2092.71 578.875 2090.07 Q578.875 2087.61 578.231 2085.91 Q577.587 2084.21 576.475 2083.45 Q575.421 2082.63 574.425 2082.34 Q573.488 2082.05 572.434 2082.05 Q570.678 2082.05 568.687 2082.75 Q566.754 2083.45 564.412 2085.09 Q562.128 2086.67 559.962 2089.95 Q557.795 2093.23 556.331 2097.74 Q556.039 2099.09 554.75 2099.09 Q553.345 2099.03 553.345 2097.86 Q553.345 2096.86 554.106 2094.81 Q554.926 2092.71 556.566 2090.07 Q558.264 2087.44 560.43 2085.09 Q562.655 2082.69 565.876 2081.05 Q569.155 2079.41 572.668 2079.41 Q574.25 2079.41 575.772 2079.76 Q577.353 2080.06 579.227 2080.94 Q581.159 2081.81 582.857 2083.75 Q584.555 2085.68 585.609 2088.49 Q586.312 2087.14 587.249 2085.85 Q588.244 2084.57 589.767 2082.99 Q591.348 2081.35 593.514 2080.41 Q595.74 2079.41 598.199 2079.41 Q600.6 2079.41 602.942 2080.06 Q605.284 2080.64 607.275 2082.58 Q609.325 2084.45 609.325 2087.32 Z" fill="#000000" fill-rule="nonzero" fill-opacity="1" /><path clip-path="url(#clip670)" d="M643.919 2102.43 Q643.919 2082.17 651.473 2065.83 Q654.694 2058.98 659.203 2053.24 Q663.711 2047.5 666.698 2044.98 Q669.684 2042.46 670.504 2042.46 Q671.675 2042.46 671.734 2043.64 Q671.734 2044.22 670.153 2045.68 Q650.829 2065.36 650.888 2102.43 Q650.888 2139.61 669.684 2158.52 Q671.734 2160.57 671.734 2161.22 Q671.734 2162.39 670.504 2162.39 Q669.684 2162.39 666.815 2159.99 Q663.946 2157.59 659.495 2152.08 Q655.045 2146.58 651.825 2139.84 Q643.919 2123.51 643.919 2102.43 Z" fill="#000000" fill-rule="nonzero" fill-opacity="1" /><path clip-path="url(#clip670)" d="M680.85 2132.41 L680.85 2128.72 Q687.233 2128.72 688.697 2127.96 Q690.161 2127.14 690.161 2123.27 L690.161 2091.12 Q690.161 2086.67 688.58 2085.56 Q687.057 2084.45 680.85 2084.45 L680.85 2080.7 L697.715 2079.41 L697.715 2092 Q703.336 2079.41 715.457 2079.41 Q729.511 2079.41 731.443 2091.12 Q733.492 2086.56 737.767 2082.99 Q742.1 2079.41 748.834 2079.41 Q757.852 2079.41 761.424 2083.86 Q764.059 2086.85 764.586 2090.19 Q765.113 2093.53 765.113 2102.19 L765.113 2125.09 Q765.23 2127.6 767.162 2128.19 Q769.094 2128.72 774.482 2128.72 L774.482 2132.41 Q762.243 2132.06 761.072 2132.06 Q760.135 2132.06 747.487 2132.41 L747.487 2128.72 Q753.87 2128.72 755.334 2127.96 Q756.856 2127.14 756.856 2123.27 L756.856 2095.34 Q756.856 2089.25 754.982 2085.68 Q753.109 2082.05 747.956 2082.05 Q741.749 2082.05 736.771 2087.26 Q731.794 2092.47 731.794 2101.25 L731.794 2123.27 Q731.794 2127.14 733.258 2127.96 Q734.781 2128.72 741.163 2128.72 L741.163 2132.41 Q728.925 2132.06 727.695 2132.06 Q726.758 2132.06 714.169 2132.41 L714.169 2128.72 Q720.551 2128.72 722.015 2127.96 Q723.538 2127.14 723.538 2123.27 L723.538 2095.34 Q723.538 2089.25 721.664 2085.68 Q719.79 2082.05 714.637 2082.05 Q708.43 2082.05 703.453 2087.26 Q698.476 2092.47 698.476 2101.25 L698.476 2123.27 Q698.476 2127.14 699.94 2127.96 Q701.462 2128.72 707.786 2128.72 L707.786 2132.41 Q695.548 2132.06 694.377 2132.06 Q693.44 2132.06 680.85 2132.41 Z" fill="#000000" fill-rule="nonzero" fill-opacity="1" /><path clip-path="url(#clip670)" d="M784.058 2161.22 Q784.058 2160.63 785.581 2159.17 Q804.904 2139.49 804.904 2102.43 Q804.904 2065.24 786.342 2046.45 Q784.058 2044.28 784.058 2043.64 Q784.058 2042.46 785.229 2042.46 Q786.049 2042.46 788.918 2044.87 Q791.846 2047.27 796.238 2052.77 Q800.688 2058.27 803.967 2065.01 Q811.872 2081.35 811.872 2102.43 Q811.872 2122.69 804.319 2139.02 Q801.098 2145.87 796.589 2151.61 Q792.08 2157.35 789.094 2159.87 Q786.108 2162.39 785.229 2162.39 Q784.058 2162.39 784.058 2161.22 Z" fill="#000000" fill-rule="nonzero" fill-opacity="1" /><polyline clip-path="url(#clip670)" style="stroke:#000000; stroke-linecap:round; stroke-linejoin:round; stroke-width:4; stroke-opacity:1; fill:none" points="1402.32,1899.88 2037.07,1516.77 "/>
<polyline clip-path="url(#clip670)" style="stroke:#000000; stroke-linecap:round; stroke-linejoin:round; stroke-width:4; stroke-opacity:1; fill:none" points="495.79,628.642 1130.55,245.527 "/>
<polyline clip-path="url(#clip670)" style="stroke:#000000; stroke-linecap:round; stroke-linejoin:round; stroke-width:4; stroke-opacity:1; fill:none" points="1421.23,1888.47 1410.35,1885.25 "/>
<polyline clip-path="url(#clip670)" style="stroke:#000000; stroke-linecap:round; stroke-linejoin:round; stroke-width:4; stroke-opacity:1; fill:none" points="1524.58,1826.09 1513.7,1822.87 "/>
<polyline clip-path="url(#clip670)" style="stroke:#000000; stroke-linecap:round; stroke-linejoin:round; stroke-width:4; stroke-opacity:1; fill:none" points="1627.93,1763.71 1617.06,1760.49 "/>
<polyline clip-path="url(#clip670)" style="stroke:#000000; stroke-linecap:round; stroke-linejoin:round; stroke-width:4; stroke-opacity:1; fill:none" points="1731.29,1701.33 1720.41,1698.11 "/>
<polyline clip-path="url(#clip670)" style="stroke:#000000; stroke-linecap:round; stroke-linejoin:round; stroke-width:4; stroke-opacity:1; fill:none" points="1834.64,1638.95 1823.76,1635.73 "/>
<polyline clip-path="url(#clip670)" style="stroke:#000000; stroke-linecap:round; stroke-linejoin:round; stroke-width:4; stroke-opacity:1; fill:none" points="1937.99,1576.57 1927.12,1573.35 "/>
<path clip-path="url(#clip670)" d="M1523.64 1919.98 Q1524.38 1920.72 1524.38 1921.77 Q1524.38 1922.82 1523.64 1923.56 Q1522.9 1924.3 1521.85 1924.3 L1442.67 1924.3 Q1441.62 1924.3 1440.88 1923.56 Q1440.14 1922.82 1440.14 1921.77 Q1440.14 1920.72 1440.88 1919.98 Q1441.62 1919.23 1442.67 1919.23 L1521.85 1919.23 Q1522.9 1919.23 1523.64 1919.98 Z" fill="#000000" fill-rule="nonzero" fill-opacity="1" /><path clip-path="url(#clip670)" d="M1534.94 1932.51 L1534.94 1928.62 L1573.79 1869.27 Q1574.77 1867.73 1576.32 1867.79 Q1577.74 1867.79 1578.05 1868.35 Q1578.36 1868.9 1578.36 1871.06 L1578.36 1928.62 L1591.02 1928.62 L1591.02 1932.51 L1578.36 1932.51 L1578.36 1943.51 Q1578.36 1947.15 1579.84 1948.32 Q1581.38 1949.5 1587.93 1949.5 L1590.58 1949.5 L1590.58 1953.39 Q1585.4 1953.02 1573.42 1953.02 Q1561.5 1953.02 1556.31 1953.39 L1556.31 1949.5 L1558.96 1949.5 Q1565.51 1949.5 1567.05 1948.38 Q1568.6 1947.21 1568.6 1943.51 L1568.6 1932.51 L1534.94 1932.51 M1538.52 1928.62 L1569.34 1928.62 L1569.34 1881.44 L1538.52 1928.62 Z" fill="#000000" fill-rule="nonzero" fill-opacity="1" /><path clip-path="url(#clip670)" d="M1599.6 1912.94 Q1599.6 1894.35 1604.29 1884.22 Q1610.84 1869.15 1626.28 1869.15 Q1629.55 1869.15 1632.95 1870.07 Q1636.41 1870.94 1640.73 1874.34 Q1645.12 1877.73 1647.77 1883.29 Q1652.84 1894.04 1652.84 1912.94 Q1652.84 1931.4 1648.14 1941.47 Q1641.29 1956.17 1626.16 1956.17 Q1620.48 1956.17 1614.67 1953.26 Q1608.93 1950.36 1605.28 1943.38 Q1599.6 1932.94 1599.6 1912.94 M1610.1 1911.39 Q1610.1 1930.47 1611.46 1938.07 Q1613 1946.28 1617.2 1949.87 Q1621.46 1953.39 1626.16 1953.39 Q1631.22 1953.39 1635.42 1949.62 Q1639.68 1945.79 1640.98 1937.58 Q1642.4 1929.49 1642.34 1911.39 Q1642.34 1893.79 1641.1 1886.75 Q1639.43 1878.54 1634.99 1875.26 Q1630.6 1871.93 1626.16 1871.93 Q1624.49 1871.93 1622.7 1872.42 Q1620.97 1872.92 1618.44 1874.34 Q1615.9 1875.76 1613.93 1879.28 Q1612.01 1882.8 1611.09 1888.11 Q1610.1 1894.96 1610.1 1911.39 Z" fill="#000000" fill-rule="nonzero" fill-opacity="1" /><path clip-path="url(#clip670)" d="M1626.99 1857.6 Q1627.73 1858.34 1627.73 1859.39 Q1627.73 1860.44 1626.99 1861.18 Q1626.25 1861.92 1625.2 1861.92 L1546.03 1861.92 Q1544.98 1861.92 1544.23 1861.18 Q1543.49 1860.44 1543.49 1859.39 Q1543.49 1858.34 1544.23 1857.6 Q1544.98 1856.85 1546.03 1856.85 L1625.2 1856.85 Q1626.25 1856.85 1626.99 1857.6 Z" fill="#000000" fill-rule="nonzero" fill-opacity="1" /><path clip-path="url(#clip670)" d="M1640.08 1873.96 Q1640.08 1870.19 1642.25 1868.4 Q1644.41 1866.61 1647.19 1866.61 Q1650.09 1866.61 1652.13 1868.53 Q1654.23 1870.38 1654.23 1873.65 Q1654.23 1877.17 1651.76 1879.15 Q1649.35 1881.13 1645.89 1880.63 Q1648.92 1885.7 1654.47 1887.98 Q1660.09 1890.27 1665.28 1890.27 Q1670.72 1890.27 1675.1 1885.57 Q1679.55 1880.88 1679.55 1869.39 Q1679.55 1859.63 1675.72 1854.01 Q1671.95 1848.39 1664.48 1848.39 L1658.92 1848.39 Q1657.01 1848.39 1656.45 1848.21 Q1655.89 1848.02 1655.89 1846.97 Q1655.89 1845.74 1657.81 1845.49 Q1659.72 1845.49 1662.75 1845.12 Q1670.1 1844.87 1673.99 1838.51 Q1677.51 1832.58 1677.51 1824.12 Q1677.51 1816.4 1673.8 1813.19 Q1670.16 1809.92 1665.4 1809.92 Q1660.96 1809.92 1656.08 1811.77 Q1651.2 1813.62 1648.54 1817.76 Q1656.39 1817.76 1656.39 1824.12 Q1656.39 1826.9 1654.6 1828.75 Q1652.87 1830.55 1649.97 1830.55 Q1647.19 1830.55 1645.33 1828.82 Q1643.48 1827.03 1643.48 1824 Q1643.48 1816.77 1649.9 1811.77 Q1656.39 1806.77 1665.9 1806.77 Q1675.29 1806.77 1682.2 1811.71 Q1689.18 1816.65 1689.18 1824.25 Q1689.18 1831.72 1684.24 1837.83 Q1679.3 1843.95 1671.46 1846.48 Q1681.09 1848.39 1686.84 1854.94 Q1692.58 1861.42 1692.58 1869.39 Q1692.58 1879.27 1684.8 1886.56 Q1677.02 1893.79 1665.65 1893.79 Q1655.15 1893.79 1647.62 1888.1 Q1640.08 1882.42 1640.08 1873.96 Z" fill="#000000" fill-rule="nonzero" fill-opacity="1" /><path clip-path="url(#clip670)" d="M1702.95 1850.56 Q1702.95 1831.97 1707.65 1821.84 Q1714.19 1806.77 1729.63 1806.77 Q1732.91 1806.77 1736.3 1807.69 Q1739.76 1808.56 1744.09 1811.96 Q1748.47 1815.35 1751.13 1820.91 Q1756.19 1831.66 1756.19 1850.56 Q1756.19 1869.02 1751.5 1879.09 Q1744.64 1893.79 1729.51 1893.79 Q1723.83 1893.79 1718.02 1890.88 Q1712.28 1887.98 1708.64 1881 Q1702.95 1870.56 1702.95 1850.56 M1713.45 1849.01 Q1713.45 1868.09 1714.81 1875.69 Q1716.36 1883.9 1720.56 1887.49 Q1724.82 1891.01 1729.51 1891.01 Q1734.57 1891.01 1738.77 1887.24 Q1743.04 1883.41 1744.33 1875.2 Q1745.75 1867.11 1745.69 1849.01 Q1745.69 1831.41 1744.46 1824.37 Q1742.79 1816.16 1738.34 1812.88 Q1733.96 1809.55 1729.51 1809.55 Q1727.84 1809.55 1726.05 1810.04 Q1724.32 1810.54 1721.79 1811.96 Q1719.26 1813.38 1717.28 1816.9 Q1715.37 1820.42 1714.44 1825.73 Q1713.45 1832.58 1713.45 1849.01 Z" fill="#000000" fill-rule="nonzero" fill-opacity="1" /><path clip-path="url(#clip670)" d="M1730.34 1795.22 Q1731.09 1795.96 1731.09 1797.01 Q1731.09 1798.06 1730.34 1798.8 Q1729.6 1799.54 1728.55 1799.54 L1649.38 1799.54 Q1648.33 1799.54 1647.59 1798.8 Q1646.85 1798.06 1646.85 1797.01 Q1646.85 1795.96 1647.59 1795.22 Q1648.33 1794.47 1649.38 1794.47 L1728.55 1794.47 Q1729.6 1794.47 1730.34 1795.22 Z" fill="#000000" fill-rule="nonzero" fill-opacity="1" /><path clip-path="url(#clip670)" d="M1744.43 1828.63 Q1744.43 1826.34 1744.61 1825.66 Q1744.86 1824.98 1745.85 1823.93 L1770.12 1796.88 Q1783.39 1781.94 1783.39 1768.91 Q1783.39 1760.45 1778.95 1754.39 Q1774.56 1748.34 1766.47 1748.34 Q1760.91 1748.34 1756.22 1751.74 Q1751.53 1755.13 1749.37 1761.19 Q1749.74 1761.06 1751.03 1761.06 Q1754.18 1761.06 1755.91 1763.04 Q1757.7 1765.02 1757.7 1767.67 Q1757.7 1771.07 1755.48 1772.74 Q1753.32 1774.34 1751.16 1774.34 Q1750.29 1774.34 1749.12 1774.16 Q1748.01 1773.97 1746.22 1772.24 Q1744.43 1770.45 1744.43 1767.3 Q1744.43 1758.47 1751.1 1751.43 Q1757.83 1744.39 1768.08 1744.39 Q1779.69 1744.39 1787.29 1751.31 Q1794.94 1758.16 1794.94 1768.91 Q1794.94 1772.67 1793.77 1776.13 Q1792.66 1779.53 1791.11 1782.18 Q1789.63 1784.84 1785.56 1789.1 Q1781.48 1793.36 1778.21 1796.39 Q1774.93 1799.42 1767.58 1805.84 L1754.18 1818.87 L1776.97 1818.87 Q1788.09 1818.87 1788.95 1817.88 Q1790.19 1816.09 1791.73 1806.64 L1794.94 1806.64 L1791.36 1828.63 L1744.43 1828.63 Z" fill="#000000" fill-rule="nonzero" fill-opacity="1" /><path clip-path="url(#clip670)" d="M1806.31 1788.18 Q1806.31 1769.59 1811 1759.46 Q1817.55 1744.39 1832.99 1744.39 Q1836.26 1744.39 1839.66 1745.31 Q1843.12 1746.18 1847.44 1749.58 Q1851.82 1752.97 1854.48 1758.53 Q1859.54 1769.28 1859.54 1788.18 Q1859.54 1806.64 1854.85 1816.71 Q1847.99 1831.41 1832.86 1831.41 Q1827.18 1831.41 1821.38 1828.5 Q1815.63 1825.6 1811.99 1818.62 Q1806.31 1808.18 1806.31 1788.18 M1816.81 1786.63 Q1816.81 1805.71 1818.16 1813.31 Q1819.71 1821.52 1823.91 1825.11 Q1828.17 1828.63 1832.86 1828.63 Q1837.93 1828.63 1842.13 1824.86 Q1846.39 1821.03 1847.69 1812.82 Q1849.11 1804.73 1849.04 1786.63 Q1849.04 1769.03 1847.81 1761.99 Q1846.14 1753.78 1841.69 1750.5 Q1837.31 1747.17 1832.86 1747.17 Q1831.2 1747.17 1829.4 1747.66 Q1827.68 1748.16 1825.14 1749.58 Q1822.61 1751 1820.64 1754.52 Q1818.72 1758.04 1817.79 1763.35 Q1816.81 1770.2 1816.81 1786.63 Z" fill="#000000" fill-rule="nonzero" fill-opacity="1" /><path clip-path="url(#clip670)" d="M1833.7 1732.84 Q1834.44 1733.58 1834.44 1734.63 Q1834.44 1735.68 1833.7 1736.42 Q1832.96 1737.16 1831.91 1737.16 L1752.73 1737.16 Q1751.68 1737.16 1750.94 1736.42 Q1750.2 1735.68 1750.2 1734.63 Q1750.2 1733.58 1750.94 1732.84 Q1751.68 1732.09 1752.73 1732.09 L1831.91 1732.09 Q1832.96 1732.09 1833.7 1732.84 Z" fill="#000000" fill-rule="nonzero" fill-opacity="1" /><path clip-path="url(#clip670)" d="M1852.72 1694.05 L1852.72 1690.1 Q1867.91 1690.1 1875.76 1682.01 Q1877.92 1682.01 1878.29 1682.5 Q1878.66 1683 1878.66 1685.28 L1878.66 1756.24 Q1878.66 1760.01 1880.51 1761.18 Q1882.36 1762.36 1890.45 1762.36 L1894.47 1762.36 L1894.47 1766.25 Q1890.02 1765.88 1873.96 1765.88 Q1857.91 1765.88 1853.52 1766.25 L1853.52 1762.36 L1857.54 1762.36 Q1865.5 1762.36 1867.42 1761.24 Q1869.33 1760.07 1869.33 1756.24 L1869.33 1690.72 Q1862.72 1694.05 1852.72 1694.05 Z" fill="#000000" fill-rule="nonzero" fill-opacity="1" /><path clip-path="url(#clip670)" d="M1909.66 1725.79 Q1909.66 1707.21 1914.35 1697.08 Q1920.9 1682.01 1936.34 1682.01 Q1939.61 1682.01 1943.01 1682.93 Q1946.47 1683.8 1950.79 1687.2 Q1955.18 1690.59 1957.83 1696.15 Q1962.9 1706.9 1962.9 1725.79 Q1962.9 1744.26 1958.2 1754.33 Q1951.35 1769.03 1936.22 1769.03 Q1930.53 1769.03 1924.73 1766.12 Q1918.99 1763.22 1915.34 1756.24 Q1909.66 1745.8 1909.66 1725.79 M1920.16 1724.25 Q1920.16 1743.33 1921.52 1750.93 Q1923.06 1759.14 1927.26 1762.73 Q1931.52 1766.25 1936.22 1766.25 Q1941.28 1766.25 1945.48 1762.48 Q1949.74 1758.65 1951.04 1750.44 Q1952.46 1742.35 1952.4 1724.25 Q1952.4 1706.65 1951.16 1699.61 Q1949.49 1691.4 1945.05 1688.12 Q1940.66 1684.79 1936.22 1684.79 Q1934.55 1684.79 1932.76 1685.28 Q1931.03 1685.78 1928.5 1687.2 Q1925.96 1688.62 1923.99 1692.14 Q1922.07 1695.66 1921.15 1700.97 Q1920.16 1707.82 1920.16 1724.25 Z" fill="#000000" fill-rule="nonzero" fill-opacity="1" /><path clip-path="url(#clip670)" d="M1853.55 1663.41 Q1853.55 1644.83 1858.25 1634.7 Q1864.79 1619.63 1880.23 1619.63 Q1883.51 1619.63 1886.9 1620.55 Q1890.36 1621.42 1894.68 1624.82 Q1899.07 1628.21 1901.73 1633.77 Q1906.79 1644.52 1906.79 1663.41 Q1906.79 1681.88 1902.1 1691.95 Q1895.24 1706.65 1880.11 1706.65 Q1874.43 1706.65 1868.62 1703.74 Q1862.88 1700.84 1859.24 1693.86 Q1853.55 1683.42 1853.55 1663.41 M1864.05 1661.87 Q1864.05 1680.95 1865.41 1688.55 Q1866.96 1696.76 1871.15 1700.35 Q1875.42 1703.87 1880.11 1703.87 Q1885.17 1703.87 1889.37 1700.1 Q1893.63 1696.27 1894.93 1688.06 Q1896.35 1679.97 1896.29 1661.87 Q1896.29 1644.27 1895.06 1637.23 Q1893.39 1629.02 1888.94 1625.74 Q1884.56 1622.41 1880.11 1622.41 Q1878.44 1622.41 1876.65 1622.9 Q1874.92 1623.4 1872.39 1624.82 Q1869.86 1626.24 1867.88 1629.76 Q1865.97 1633.28 1865.04 1638.59 Q1864.05 1645.44 1864.05 1661.87 Z" fill="#000000" fill-rule="nonzero" fill-opacity="1" /><path clip-path="url(#clip670)" d="M1956.91 1569.29 L1956.91 1565.34 Q1972.1 1565.34 1979.94 1557.25 Q1982.1 1557.25 1982.48 1557.74 Q1982.85 1558.24 1982.85 1560.52 L1982.85 1631.48 Q1982.85 1635.25 1984.7 1636.42 Q1986.55 1637.6 1994.64 1637.6 L1998.66 1637.6 L1998.66 1641.49 Q1994.21 1641.12 1978.15 1641.12 Q1962.09 1641.12 1957.71 1641.49 L1957.71 1637.6 L1961.72 1637.6 Q1969.69 1637.6 1971.61 1636.48 Q1973.52 1635.31 1973.52 1631.48 L1973.52 1565.96 Q1966.91 1569.29 1956.91 1569.29 Z" fill="#000000" fill-rule="nonzero" fill-opacity="1" /><path clip-path="url(#clip670)" d="M2013.85 1601.03 Q2013.85 1582.45 2018.54 1572.32 Q2025.09 1557.25 2040.53 1557.25 Q2043.8 1557.25 2047.2 1558.17 Q2050.66 1559.04 2054.98 1562.44 Q2059.36 1565.83 2062.02 1571.39 Q2067.08 1582.14 2067.08 1601.03 Q2067.08 1619.5 2062.39 1629.57 Q2055.54 1644.27 2040.4 1644.27 Q2034.72 1644.27 2028.92 1641.36 Q2023.17 1638.46 2019.53 1631.48 Q2013.85 1621.04 2013.85 1601.03 M2024.35 1599.49 Q2024.35 1618.57 2025.71 1626.17 Q2027.25 1634.38 2031.45 1637.97 Q2035.71 1641.49 2040.4 1641.49 Q2045.47 1641.49 2049.67 1637.72 Q2053.93 1633.89 2055.23 1625.68 Q2056.65 1617.59 2056.59 1599.49 Q2056.59 1581.89 2055.35 1574.85 Q2053.68 1566.64 2049.24 1563.36 Q2044.85 1560.03 2040.4 1560.03 Q2038.74 1560.03 2036.95 1560.52 Q2035.22 1561.02 2032.68 1562.44 Q2030.15 1563.86 2028.18 1567.38 Q2026.26 1570.9 2025.34 1576.21 Q2024.35 1583.06 2024.35 1599.49 Z" fill="#000000" fill-rule="nonzero" fill-opacity="1" /><path clip-path="url(#clip670)" d="M1898.85 2026.55 Q1898.85 2027.37 1898.32 2029.31 L1886.84 2075.1 Q1884.32 2085.28 1876.13 2092.43 Q1867.99 2099.57 1858.74 2099.57 Q1853.17 2099.57 1849.6 2096.59 Q1846.03 2093.66 1846.03 2089.15 Q1846.03 2085.17 1848.14 2083.24 Q1850.25 2081.36 1852.76 2081.36 Q1853.58 2081.36 1854.46 2081.6 Q1855.34 2081.83 1856.28 2082.83 Q1857.21 2083.82 1857.21 2085.52 Q1857.21 2088.27 1854.81 2090.44 Q1853.64 2091.43 1852.53 2091.67 Q1851.47 2091.9 1849.66 2091.9 Q1850.36 2093.54 1851.65 2094.65 Q1852.94 2095.77 1854.4 2096.18 Q1855.87 2096.64 1856.8 2096.76 Q1857.8 2096.94 1858.74 2096.94 Q1866.23 2096.94 1871.97 2089.38 Q1873.67 2087.1 1874.9 2084.82 Q1876.19 2082.59 1877.12 2079.84 Q1878.06 2077.15 1878.47 2075.68 Q1878.94 2074.22 1879.76 2070.88 Q1874.31 2076.33 1867.64 2076.33 Q1864.83 2076.33 1862.31 2075.56 Q1859.85 2074.8 1857.68 2073.22 Q1855.52 2071.58 1854.23 2068.71 Q1853 2065.84 1853 2062.04 Q1853 2058 1854.58 2052.49 Q1856.16 2046.99 1859.97 2036.86 Q1862.02 2031.18 1862.02 2028.43 Q1862.02 2027.08 1861.72 2026.26 Q1861.43 2025.38 1860.84 2025.09 Q1860.26 2024.74 1859.91 2024.68 Q1859.61 2024.62 1859.03 2024.62 Q1855.57 2024.62 1852.35 2028.13 Q1849.13 2031.65 1846.91 2039.49 Q1846.44 2040.96 1846.15 2041.31 Q1845.85 2041.66 1844.98 2041.66 Q1843.51 2041.6 1843.51 2040.43 Q1843.51 2039.96 1844.04 2038.15 Q1844.57 2036.27 1845.8 2033.52 Q1847.08 2030.71 1848.84 2028.19 Q1850.6 2025.62 1853.35 2023.8 Q1856.16 2021.99 1859.38 2021.99 Q1863.77 2021.99 1866.47 2024.85 Q1869.22 2027.67 1869.22 2031.82 Q1869.22 2033.52 1868.75 2035.04 Q1868.34 2036.51 1866.82 2040.43 Q1860.67 2056.24 1860.67 2063.97 Q1860.67 2065.84 1860.96 2067.43 Q1861.31 2068.95 1862.07 2070.47 Q1862.83 2071.93 1864.36 2072.81 Q1865.94 2073.63 1868.1 2073.63 Q1870.86 2073.63 1873.43 2072.34 Q1876.07 2071 1877.71 2069.18 Q1879.41 2067.37 1880.4 2065.84 Q1881.46 2064.26 1881.69 2063.44 L1887.08 2041.89 L1889.48 2032.29 Q1890.59 2027.08 1891.12 2025.79 Q1891.82 2024.56 1893.05 2023.92 Q1894.28 2023.27 1895.33 2023.27 Q1896.8 2023.27 1897.79 2024.15 Q1898.85 2025.03 1898.85 2026.55 Z" fill="#000000" fill-rule="nonzero" fill-opacity="1" /><path clip-path="url(#clip670)" d="M1928.09 2045 Q1928.09 2024.74 1935.64 2008.4 Q1938.86 2001.55 1943.37 1995.81 Q1947.88 1990.07 1950.87 1987.55 Q1953.85 1985.04 1954.67 1985.04 Q1955.85 1985.04 1955.9 1986.21 Q1955.9 1986.79 1954.32 1988.26 Q1935 2007.93 1935.06 2045 Q1935.06 2082.18 1953.85 2101.1 Q1955.9 2103.14 1955.9 2103.79 Q1955.9 2104.96 1954.67 2104.96 Q1953.85 2104.96 1950.99 2102.56 Q1948.12 2100.16 1943.67 2094.65 Q1939.22 2089.15 1935.99 2082.42 Q1928.09 2066.08 1928.09 2045 Z" fill="#000000" fill-rule="nonzero" fill-opacity="1" /><path clip-path="url(#clip670)" d="M1965.02 2074.98 L1965.02 2071.29 Q1971.4 2071.29 1972.87 2070.53 Q1974.33 2069.71 1974.33 2065.84 L1974.33 2033.7 Q1974.33 2029.25 1972.75 2028.13 Q1971.23 2027.02 1965.02 2027.02 L1965.02 2023.27 L1981.88 2021.99 L1981.88 2034.58 Q1987.51 2021.99 1999.63 2021.99 Q2013.68 2021.99 2015.61 2033.7 Q2017.66 2029.13 2021.94 2025.56 Q2026.27 2021.99 2033 2021.99 Q2042.02 2021.99 2045.59 2026.44 Q2048.23 2029.42 2048.76 2032.76 Q2049.28 2036.1 2049.28 2044.76 L2049.28 2067.66 Q2049.4 2070.18 2051.33 2070.76 Q2053.26 2071.29 2058.65 2071.29 L2058.65 2074.98 Q2046.41 2074.63 2045.24 2074.63 Q2044.31 2074.63 2031.66 2074.98 L2031.66 2071.29 Q2038.04 2071.29 2039.5 2070.53 Q2041.03 2069.71 2041.03 2065.84 L2041.03 2037.91 Q2041.03 2031.82 2039.15 2028.25 Q2037.28 2024.62 2032.13 2024.62 Q2025.92 2024.62 2020.94 2029.83 Q2015.96 2035.04 2015.96 2043.83 L2015.96 2065.84 Q2015.96 2069.71 2017.43 2070.53 Q2018.95 2071.29 2025.33 2071.29 L2025.33 2074.98 Q2013.1 2074.63 2011.87 2074.63 Q2010.93 2074.63 1998.34 2074.98 L1998.34 2071.29 Q2004.72 2071.29 2006.19 2070.53 Q2007.71 2069.71 2007.71 2065.84 L2007.71 2037.91 Q2007.71 2031.82 2005.83 2028.25 Q2003.96 2024.62 1998.81 2024.62 Q1992.6 2024.62 1987.62 2029.83 Q1982.65 2035.04 1982.65 2043.83 L1982.65 2065.84 Q1982.65 2069.71 1984.11 2070.53 Q1985.63 2071.29 1991.96 2071.29 L1991.96 2074.98 Q1979.72 2074.63 1978.55 2074.63 Q1977.61 2074.63 1965.02 2074.98 Z" fill="#000000" fill-rule="nonzero" fill-opacity="1" /><path clip-path="url(#clip670)" d="M2068.23 2103.79 Q2068.23 2103.2 2069.75 2101.74 Q2089.07 2082.06 2089.07 2045 Q2089.07 2007.82 2070.51 1989.02 Q2068.23 1986.85 2068.23 1986.21 Q2068.23 1985.04 2069.4 1985.04 Q2070.22 1985.04 2073.09 1987.44 Q2076.02 1989.84 2080.41 1995.34 Q2084.86 2000.85 2088.14 2007.58 Q2096.04 2023.92 2096.04 2045 Q2096.04 2065.26 2088.49 2081.6 Q2085.27 2088.45 2080.76 2094.19 Q2076.25 2099.92 2073.26 2102.44 Q2070.28 2104.96 2069.4 2104.96 Q2068.23 2104.96 2068.23 2103.79 Z" fill="#000000" fill-rule="nonzero" fill-opacity="1" /><polyline clip-path="url(#clip670)" style="stroke:#000000; stroke-linecap:round; stroke-linejoin:round; stroke-width:4; stroke-opacity:1; fill:none" points="495.79,1631.62 495.79,628.642 "/>
<polyline clip-path="url(#clip670)" style="stroke:#000000; stroke-linecap:round; stroke-linejoin:round; stroke-width:4; stroke-opacity:1; fill:none" points="2037.07,1516.77 2037.07,513.787 "/>
<polyline clip-path="url(#clip670)" style="stroke:#000000; stroke-linecap:round; stroke-linejoin:round; stroke-width:4; stroke-opacity:1; fill:none" points="495.79,1568.53 503.407,1563.93 "/>
<polyline clip-path="url(#clip670)" style="stroke:#000000; stroke-linecap:round; stroke-linejoin:round; stroke-width:4; stroke-opacity:1; fill:none" points="495.79,1408.67 503.407,1404.08 "/>
<polyline clip-path="url(#clip670)" style="stroke:#000000; stroke-linecap:round; stroke-linejoin:round; stroke-width:4; stroke-opacity:1; fill:none" points="495.79,1248.82 503.407,1244.22 "/>
<polyline clip-path="url(#clip670)" style="stroke:#000000; stroke-linecap:round; stroke-linejoin:round; stroke-width:4; stroke-opacity:1; fill:none" points="495.79,1088.96 503.407,1084.36 "/>
<polyline clip-path="url(#clip670)" style="stroke:#000000; stroke-linecap:round; stroke-linejoin:round; stroke-width:4; stroke-opacity:1; fill:none" points="495.79,929.1 503.407,924.502 "/>
<polyline clip-path="url(#clip670)" style="stroke:#000000; stroke-linecap:round; stroke-linejoin:round; stroke-width:4; stroke-opacity:1; fill:none" points="495.79,769.242 503.407,764.644 "/>
<path clip-path="url(#clip670)" d="M337.791 1578.32 Q338.532 1579.06 338.532 1580.11 Q338.532 1581.16 337.791 1581.9 Q337.05 1582.64 336 1582.64 L256.826 1582.64 Q255.776 1582.64 255.035 1581.9 Q254.294 1581.16 254.294 1580.11 Q254.294 1579.06 255.035 1578.32 Q255.776 1577.58 256.826 1577.58 L336 1577.58 Q337.05 1577.58 337.791 1578.32 Z" fill="#000000" fill-rule="nonzero" fill-opacity="1" /><path clip-path="url(#clip670)" d="M349.093 1590.86 L349.093 1586.97 L387.939 1527.62 Q388.927 1526.07 390.471 1526.13 Q391.891 1526.13 392.2 1526.69 Q392.509 1527.25 392.509 1529.41 L392.509 1586.97 L405.17 1586.97 L405.17 1590.86 L392.509 1590.86 L392.509 1601.85 Q392.509 1605.49 393.991 1606.67 Q395.535 1607.84 402.082 1607.84 L404.737 1607.84 L404.737 1611.73 Q399.55 1611.36 387.568 1611.36 Q375.649 1611.36 370.461 1611.73 L370.461 1607.84 L373.117 1607.84 Q379.663 1607.84 381.207 1606.73 Q382.751 1605.56 382.751 1601.85 L382.751 1590.86 L349.093 1590.86 M352.675 1586.97 L383.492 1586.97 L383.492 1539.78 L352.675 1586.97 Z" fill="#000000" fill-rule="nonzero" fill-opacity="1" /><path clip-path="url(#clip670)" d="M413.754 1571.28 Q413.754 1552.69 418.448 1542.56 Q424.994 1527.49 440.434 1527.49 Q443.707 1527.49 447.103 1528.42 Q450.562 1529.28 454.885 1532.68 Q459.27 1536.08 461.925 1541.64 Q466.99 1552.38 466.99 1571.28 Q466.99 1589.75 462.296 1599.81 Q455.441 1614.51 440.31 1614.51 Q434.628 1614.51 428.823 1611.61 Q423.079 1608.7 419.436 1601.73 Q413.754 1591.29 413.754 1571.28 M424.253 1569.74 Q424.253 1588.82 425.612 1596.42 Q427.156 1604.63 431.355 1608.21 Q435.616 1611.73 440.31 1611.73 Q445.374 1611.73 449.574 1607.96 Q453.835 1604.13 455.132 1595.92 Q456.553 1587.83 456.491 1569.74 Q456.491 1552.13 455.256 1545.09 Q453.588 1536.88 449.142 1533.61 Q444.757 1530.27 440.31 1530.27 Q438.643 1530.27 436.852 1530.77 Q435.122 1531.26 432.59 1532.68 Q430.058 1534.1 428.082 1537.62 Q426.167 1541.14 425.241 1546.45 Q424.253 1553.31 424.253 1569.74 Z" fill="#000000" fill-rule="nonzero" fill-opacity="1" /><path clip-path="url(#clip670)" d="M337.791 1418.46 Q338.532 1419.2 338.532 1420.25 Q338.532 1421.3 337.791 1422.04 Q337.05 1422.79 336 1422.79 L256.826 1422.79 Q255.776 1422.79 255.035 1422.04 Q254.294 1421.3 254.294 1420.25 Q254.294 1419.2 255.035 1418.46 Q255.776 1417.72 256.826 1417.72 L336 1417.72 Q337.05 1417.72 337.791 1418.46 Z" fill="#000000" fill-rule="nonzero" fill-opacity="1" /><path clip-path="url(#clip670)" d="M350.884 1434.83 Q350.884 1431.06 353.045 1429.27 Q355.207 1427.48 357.986 1427.48 Q360.889 1427.48 362.927 1429.39 Q365.027 1431.25 365.027 1434.52 Q365.027 1438.04 362.556 1440.02 Q360.148 1441.99 356.689 1441.5 Q359.715 1446.56 365.274 1448.85 Q370.894 1451.13 376.081 1451.13 Q381.516 1451.13 385.901 1446.44 Q390.348 1441.74 390.348 1430.26 Q390.348 1420.5 386.518 1414.88 Q382.751 1409.26 375.278 1409.26 L369.72 1409.26 Q367.806 1409.26 367.25 1409.07 Q366.694 1408.89 366.694 1407.84 Q366.694 1406.6 368.609 1406.36 Q370.523 1406.36 373.549 1405.99 Q380.898 1405.74 384.789 1399.38 Q388.309 1393.45 388.309 1384.99 Q388.309 1377.27 384.604 1374.06 Q380.96 1370.78 376.205 1370.78 Q371.758 1370.78 366.879 1372.64 Q362 1374.49 359.345 1378.63 Q367.188 1378.63 367.188 1384.99 Q367.188 1387.77 365.397 1389.62 Q363.668 1391.41 360.765 1391.41 Q357.986 1391.41 356.133 1389.68 Q354.281 1387.89 354.281 1384.87 Q354.281 1377.64 360.703 1372.64 Q367.188 1367.63 376.699 1367.63 Q386.086 1367.63 393.003 1372.58 Q399.982 1377.52 399.982 1385.11 Q399.982 1392.59 395.041 1398.7 Q390.1 1404.81 382.257 1407.35 Q391.891 1409.26 397.635 1415.81 Q403.379 1422.29 403.379 1430.26 Q403.379 1440.14 395.597 1447.43 Q387.815 1454.65 376.452 1454.65 Q365.953 1454.65 358.418 1448.97 Q350.884 1443.29 350.884 1434.83 Z" fill="#000000" fill-rule="nonzero" fill-opacity="1" /><path clip-path="url(#clip670)" d="M413.754 1411.42 Q413.754 1392.83 418.448 1382.7 Q424.994 1367.63 440.434 1367.63 Q443.707 1367.63 447.103 1368.56 Q450.562 1369.43 454.885 1372.82 Q459.27 1376.22 461.925 1381.78 Q466.99 1392.52 466.99 1411.42 Q466.99 1429.89 462.296 1439.95 Q455.441 1454.65 440.31 1454.65 Q434.628 1454.65 428.823 1451.75 Q423.079 1448.85 419.436 1441.87 Q413.754 1431.43 413.754 1411.42 M424.253 1409.88 Q424.253 1428.96 425.612 1436.56 Q427.156 1444.77 431.355 1448.35 Q435.616 1451.87 440.31 1451.87 Q445.374 1451.87 449.574 1448.11 Q453.835 1444.28 455.132 1436.06 Q456.553 1427.97 456.491 1409.88 Q456.491 1392.28 455.256 1385.24 Q453.588 1377.02 449.142 1373.75 Q444.757 1370.41 440.31 1370.41 Q438.643 1370.41 436.852 1370.91 Q435.122 1371.4 432.59 1372.82 Q430.058 1374.24 428.082 1377.76 Q426.167 1381.28 425.241 1386.59 Q424.253 1393.45 424.253 1409.88 Z" fill="#000000" fill-rule="nonzero" fill-opacity="1" /><path clip-path="url(#clip670)" d="M337.791 1258.6 Q338.532 1259.35 338.532 1260.4 Q338.532 1261.44 337.791 1262.19 Q337.05 1262.93 336 1262.93 L256.826 1262.93 Q255.776 1262.93 255.035 1262.19 Q254.294 1261.44 254.294 1260.4 Q254.294 1259.35 255.035 1258.6 Q255.776 1257.86 256.826 1257.86 L336 1257.86 Q337.05 1257.86 337.791 1258.6 Z" fill="#000000" fill-rule="nonzero" fill-opacity="1" /><path clip-path="url(#clip670)" d="M351.872 1292.02 Q351.872 1289.73 352.057 1289.05 Q352.304 1288.37 353.292 1287.32 L377.564 1260.27 Q390.842 1245.33 390.842 1232.29 Q390.842 1223.83 386.395 1217.78 Q382.01 1211.73 373.92 1211.73 Q368.362 1211.73 363.668 1215.13 Q358.974 1218.52 356.813 1224.58 Q357.183 1224.45 358.48 1224.45 Q361.63 1224.45 363.359 1226.43 Q365.15 1228.4 365.15 1231.06 Q365.15 1234.46 362.927 1236.12 Q360.765 1237.73 358.604 1237.73 Q357.739 1237.73 356.566 1237.54 Q355.454 1237.36 353.663 1235.63 Q351.872 1233.84 351.872 1230.69 Q351.872 1221.86 358.542 1214.82 Q365.274 1207.78 375.525 1207.78 Q387.136 1207.78 394.732 1214.69 Q402.39 1221.55 402.39 1232.29 Q402.39 1236.06 401.217 1239.52 Q400.105 1242.92 398.561 1245.57 Q397.079 1248.23 393.003 1252.49 Q388.927 1256.75 385.654 1259.78 Q382.381 1262.8 375.031 1269.23 L361.63 1282.26 L384.419 1282.26 Q395.535 1282.26 396.4 1281.27 Q397.635 1279.48 399.179 1270.03 L402.39 1270.03 L398.808 1292.02 L351.872 1292.02 Z" fill="#000000" fill-rule="nonzero" fill-opacity="1" /><path clip-path="url(#clip670)" d="M413.754 1251.56 Q413.754 1232.97 418.448 1222.85 Q424.994 1207.78 440.434 1207.78 Q443.707 1207.78 447.103 1208.7 Q450.562 1209.57 454.885 1212.96 Q459.27 1216.36 461.925 1221.92 Q466.99 1232.67 466.99 1251.56 Q466.99 1270.03 462.296 1280.1 Q455.441 1294.79 440.31 1294.79 Q434.628 1294.79 428.823 1291.89 Q423.079 1288.99 419.436 1282.01 Q413.754 1271.57 413.754 1251.56 M424.253 1250.02 Q424.253 1269.1 425.612 1276.7 Q427.156 1284.91 431.355 1288.5 Q435.616 1292.02 440.31 1292.02 Q445.374 1292.02 449.574 1288.25 Q453.835 1284.42 455.132 1276.21 Q456.553 1268.11 456.491 1250.02 Q456.491 1232.42 455.256 1225.38 Q453.588 1217.16 449.142 1213.89 Q444.757 1210.56 440.31 1210.56 Q438.643 1210.56 436.852 1211.05 Q435.122 1211.54 432.59 1212.96 Q430.058 1214.39 428.082 1217.91 Q426.167 1221.43 425.241 1226.74 Q424.253 1233.59 424.253 1250.02 Z" fill="#000000" fill-rule="nonzero" fill-opacity="1" /><path clip-path="url(#clip670)" d="M337.791 1098.75 Q338.532 1099.49 338.532 1100.54 Q338.532 1101.59 337.791 1102.33 Q337.05 1103.07 336 1103.07 L256.826 1103.07 Q255.776 1103.07 255.035 1102.33 Q254.294 1101.59 254.294 1100.54 Q254.294 1099.49 255.035 1098.75 Q255.776 1098.01 256.826 1098.01 L336 1098.01 Q337.05 1098.01 337.791 1098.75 Z" fill="#000000" fill-rule="nonzero" fill-opacity="1" /><path clip-path="url(#clip670)" d="M356.813 1059.96 L356.813 1056.01 Q372.005 1056.01 379.849 1047.92 Q382.01 1047.92 382.381 1048.41 Q382.751 1048.91 382.751 1051.19 L382.751 1122.15 Q382.751 1125.92 384.604 1127.09 Q386.457 1128.27 394.547 1128.27 L398.561 1128.27 L398.561 1132.16 Q394.115 1131.79 378.058 1131.79 Q362 1131.79 357.616 1132.16 L357.616 1128.27 L361.63 1128.27 Q369.597 1128.27 371.511 1127.16 Q373.426 1125.98 373.426 1122.15 L373.426 1056.63 Q366.818 1059.96 356.813 1059.96 Z" fill="#000000" fill-rule="nonzero" fill-opacity="1" /><path clip-path="url(#clip670)" d="M413.754 1091.71 Q413.754 1073.12 418.448 1062.99 Q424.994 1047.92 440.434 1047.92 Q443.707 1047.92 447.103 1048.85 Q450.562 1049.71 454.885 1053.11 Q459.27 1056.5 461.925 1062.06 Q466.99 1072.81 466.99 1091.71 Q466.99 1110.17 462.296 1120.24 Q455.441 1134.94 440.31 1134.94 Q434.628 1134.94 428.823 1132.03 Q423.079 1129.13 419.436 1122.15 Q413.754 1111.72 413.754 1091.71 M424.253 1090.16 Q424.253 1109.25 425.612 1116.84 Q427.156 1125.06 431.355 1128.64 Q435.616 1132.16 440.31 1132.16 Q445.374 1132.16 449.574 1128.39 Q453.835 1124.56 455.132 1116.35 Q456.553 1108.26 456.491 1090.16 Q456.491 1072.56 455.256 1065.52 Q453.588 1057.31 449.142 1054.03 Q444.757 1050.7 440.31 1050.7 Q438.643 1050.7 436.852 1051.19 Q435.122 1051.69 432.59 1053.11 Q430.058 1054.53 428.082 1058.05 Q426.167 1061.57 425.241 1066.88 Q424.253 1073.73 424.253 1090.16 Z" fill="#000000" fill-rule="nonzero" fill-opacity="1" /><path clip-path="url(#clip670)" d="M413.754 931.848 Q413.754 913.259 418.448 903.13 Q424.994 888.061 440.434 888.061 Q443.707 888.061 447.103 888.988 Q450.562 889.852 454.885 893.249 Q459.27 896.646 461.925 902.204 Q466.99 912.95 466.99 931.848 Q466.99 950.314 462.296 960.38 Q455.441 975.079 440.31 975.079 Q434.628 975.079 428.823 972.176 Q423.079 969.273 419.436 962.295 Q413.754 951.858 413.754 931.848 M424.253 930.304 Q424.253 949.387 425.612 956.984 Q427.156 965.197 431.355 968.779 Q435.616 972.3 440.31 972.3 Q445.374 972.3 449.574 968.532 Q453.835 964.703 455.132 956.489 Q456.553 948.399 456.491 930.304 Q456.491 912.703 455.256 905.662 Q453.588 897.448 449.142 894.175 Q444.757 890.84 440.31 890.84 Q438.643 890.84 436.852 891.334 Q435.122 891.828 432.59 893.249 Q430.058 894.669 428.082 898.19 Q426.167 901.71 425.241 907.021 Q424.253 913.876 424.253 930.304 Z" fill="#000000" fill-rule="nonzero" fill-opacity="1" /><path clip-path="url(#clip670)" d="M356.813 740.246 L356.813 736.294 Q372.005 736.294 379.849 728.203 Q382.01 728.203 382.381 728.697 Q382.751 729.191 382.751 731.476 L382.751 802.437 Q382.751 806.204 384.604 807.378 Q386.457 808.551 394.547 808.551 L398.561 808.551 L398.561 812.442 Q394.115 812.071 378.058 812.071 Q362 812.071 357.616 812.442 L357.616 808.551 L361.63 808.551 Q369.597 808.551 371.511 807.439 Q373.426 806.266 373.426 802.437 L373.426 736.911 Q366.818 740.246 356.813 740.246 Z" fill="#000000" fill-rule="nonzero" fill-opacity="1" /><path clip-path="url(#clip670)" d="M413.754 771.99 Q413.754 753.401 418.448 743.272 Q424.994 728.203 440.434 728.203 Q443.707 728.203 447.103 729.13 Q450.562 729.994 454.885 733.391 Q459.27 736.788 461.925 742.346 Q466.99 753.092 466.99 771.99 Q466.99 790.456 462.296 800.522 Q455.441 815.221 440.31 815.221 Q434.628 815.221 428.823 812.318 Q423.079 809.416 419.436 802.437 Q413.754 792 413.754 771.99 M424.253 770.446 Q424.253 789.529 425.612 797.126 Q427.156 805.34 431.355 808.922 Q435.616 812.442 440.31 812.442 Q445.374 812.442 449.574 808.674 Q453.835 804.845 455.132 796.632 Q456.553 788.541 456.491 770.446 Q456.491 752.845 455.256 745.804 Q453.588 737.591 449.142 734.317 Q444.757 730.982 440.31 730.982 Q438.643 730.982 436.852 731.476 Q435.122 731.971 432.59 733.391 Q430.058 734.811 428.082 738.332 Q426.167 741.852 425.241 747.163 Q424.253 754.018 424.253 770.446 Z" fill="#000000" fill-rule="nonzero" fill-opacity="1" /><path clip-path="url(#clip670)" d="M137.127 1213.21 Q137.537 1213.21 139.293 1214.21 Q140.992 1215.14 145.266 1218.6 Q149.541 1222.05 154.518 1227.2 Q156.45 1229.14 159.144 1232.06 Q161.838 1234.99 163.594 1236.98 L165.351 1238.97 Q171.792 1246.59 178.995 1253.26 Q178.819 1252.79 178.76 1251.97 Q178.643 1251.15 178.643 1250.57 L178.643 1249.98 Q178.643 1246.94 180.693 1241.61 Q182.215 1236.93 182.215 1234.52 Q182.215 1232.18 181.395 1229.61 Q180.576 1227.03 178.175 1224.22 Q175.774 1221.41 172.143 1220.12 Q171.558 1219.89 171.382 1219.77 Q171.148 1219.65 170.914 1219.3 Q170.621 1218.95 170.621 1218.48 Q170.621 1217.84 170.972 1217.43 Q171.324 1217.02 171.792 1217.02 Q172.846 1217.02 174.954 1217.84 Q177.062 1218.6 179.697 1220.3 Q182.332 1221.93 184.733 1224.1 Q187.075 1226.21 188.715 1229.37 Q190.296 1232.53 190.296 1235.87 Q190.296 1238.27 189.125 1240.03 Q188.012 1241.79 185.846 1243.54 Q183.093 1245.94 182.215 1247.23 Q181.278 1248.52 181.278 1250.51 Q181.278 1255.84 188.715 1260.7 Q189.769 1261.23 190.003 1261.58 Q190.296 1261.87 190.296 1262.57 Q190.237 1264.04 189.066 1264.04 Q188.598 1264.04 186.548 1262.75 Q184.44 1261.4 180.751 1258.42 Q177.062 1255.37 173.373 1251.68 L163.301 1240.91 Q153.23 1228.96 147.55 1224.22 Q147.55 1226.21 147.491 1227.09 Q147.433 1227.91 147.081 1229.55 Q146.672 1231.19 145.793 1233.47 Q143.978 1238.8 143.978 1241.02 Q143.978 1241.61 144.037 1242.25 Q144.095 1242.9 144.388 1244.36 Q144.681 1245.77 145.266 1246.94 Q145.793 1248.11 146.964 1249.34 Q148.077 1250.57 149.599 1251.21 Q150.068 1251.39 150.302 1251.51 Q150.536 1251.62 150.77 1251.97 Q150.946 1252.27 150.946 1252.74 Q150.946 1253.44 150.536 1253.85 Q150.126 1254.2 149.599 1254.2 Q148.545 1254.2 146.379 1253.15 Q144.212 1252.09 141.87 1250.33 Q139.469 1248.58 137.712 1245.71 Q135.956 1242.84 135.956 1239.68 Q135.956 1237.8 136.776 1236.22 Q137.595 1234.58 138.474 1233.76 Q139.293 1232.88 141.109 1231.42 Q142.514 1230.19 143.1 1229.61 Q143.685 1229.02 144.329 1227.85 Q144.915 1226.62 144.915 1225.27 Q144.915 1223.05 143.217 1221 Q141.46 1218.95 137.244 1216.31 Q135.956 1215.61 135.956 1214.5 Q135.956 1213.21 137.127 1213.21 Z" fill="#000000" fill-rule="nonzero" fill-opacity="1" /><path clip-path="url(#clip670)" d="M158.968 1182.42 Q138.708 1182.42 122.371 1174.86 Q115.52 1171.64 109.781 1167.13 Q104.043 1162.62 101.525 1159.64 Q99.0069 1156.65 99.0069 1155.83 Q99.0069 1154.66 100.178 1154.6 Q100.764 1154.6 102.227 1156.18 Q121.902 1175.51 158.968 1175.45 Q196.151 1175.45 215.065 1156.65 Q217.115 1154.6 217.759 1154.6 Q218.93 1154.6 218.93 1155.83 Q218.93 1156.65 216.529 1159.52 Q214.128 1162.39 208.624 1166.84 Q203.12 1171.29 196.386 1174.51 Q180.049 1182.42 158.968 1182.42 Z" fill="#000000" fill-rule="nonzero" fill-opacity="1" /><path clip-path="url(#clip670)" d="M188.949 1145.49 L185.26 1145.49 Q185.26 1139.1 184.499 1137.64 Q183.679 1136.17 179.814 1136.17 L147.667 1136.17 Q143.217 1136.17 142.104 1137.76 Q140.992 1139.28 140.992 1145.49 L137.244 1145.49 L135.956 1128.62 L148.545 1128.62 Q135.956 1123 135.956 1110.88 Q135.956 1096.83 147.667 1094.89 Q143.1 1092.84 139.528 1088.57 Q135.956 1084.24 135.956 1077.5 Q135.956 1068.48 140.406 1064.91 Q143.392 1062.28 146.73 1061.75 Q150.068 1061.22 158.734 1061.22 L181.63 1061.22 Q184.147 1061.11 184.733 1059.17 Q185.26 1057.24 185.26 1051.85 L188.949 1051.85 Q188.598 1064.09 188.598 1065.26 Q188.598 1066.2 188.949 1078.85 L185.26 1078.85 Q185.26 1072.47 184.499 1071 Q183.679 1069.48 179.814 1069.48 L151.883 1069.48 Q145.793 1069.48 142.221 1071.35 Q138.591 1073.23 138.591 1078.38 Q138.591 1084.59 143.802 1089.56 Q149.014 1094.54 157.797 1094.54 L179.814 1094.54 Q183.679 1094.54 184.499 1093.08 Q185.26 1091.56 185.26 1085.17 L188.949 1085.17 Q188.598 1097.41 188.598 1098.64 Q188.598 1099.58 188.949 1112.17 L185.26 1112.17 Q185.26 1105.78 184.499 1104.32 Q183.679 1102.8 179.814 1102.8 L151.883 1102.8 Q145.793 1102.8 142.221 1104.67 Q138.591 1106.55 138.591 1111.7 Q138.591 1117.91 143.802 1122.88 Q149.014 1127.86 157.797 1127.86 L179.814 1127.86 Q183.679 1127.86 184.499 1126.4 Q185.26 1124.87 185.26 1118.55 L188.949 1118.55 Q188.598 1130.79 188.598 1131.96 Q188.598 1132.9 188.949 1145.49 Z" fill="#000000" fill-rule="nonzero" fill-opacity="1" /><path clip-path="url(#clip670)" d="M217.759 1042.28 Q217.173 1042.28 215.709 1040.76 Q196.034 1021.43 158.968 1021.43 Q121.785 1021.43 102.989 1039.99 Q100.822 1042.28 100.178 1042.28 Q99.0069 1042.28 99.0069 1041.11 Q99.0069 1040.29 101.408 1037.42 Q103.808 1034.49 109.313 1030.1 Q114.817 1025.65 121.551 1022.37 Q137.888 1014.46 158.968 1014.46 Q179.229 1014.46 195.566 1022.02 Q202.417 1025.24 208.155 1029.75 Q213.894 1034.26 216.412 1037.24 Q218.93 1040.23 218.93 1041.11 Q218.93 1042.28 217.759 1042.28 Z" fill="#000000" fill-rule="nonzero" fill-opacity="1" /><path clip-path="url(#clip670)" d="M593.969 143.235 L593.969 113.225 Q593.969 111.542 594.043 110.956 Q594.116 110.371 594.555 109.932 Q594.994 109.492 595.873 109.492 Q597.556 109.492 597.702 111.029 Q598.142 125.888 606.998 134.086 Q615.708 142.211 630.64 142.211 Q639.643 142.211 645.206 135.769 Q650.769 129.255 650.769 120.764 Q650.769 112.64 646.084 106.931 Q644.108 104.369 641.619 102.758 Q639.204 101.075 637.667 100.563 Q636.203 100.05 633.348 99.3183 Q614.757 94.8534 613.586 94.341 Q604.729 91.34 599.313 83.8009 Q593.969 76.1886 593.969 66.8928 Q593.969 54.8888 602.387 46.3982 Q610.878 37.8343 623.174 37.8343 Q629.323 37.8343 634.446 39.8106 Q639.643 41.7137 641.766 43.4704 Q643.889 45.2271 647.182 48.3744 L652.379 39.8106 Q653.55 37.8343 654.648 37.8343 Q655.819 37.8343 656.039 38.5663 Q656.332 39.2251 656.332 41.4209 L656.332 71.5773 Q656.332 73.2608 656.259 73.8464 Q656.185 74.4319 655.673 74.7979 Q655.234 75.1639 654.355 75.1639 Q652.892 75.1639 652.526 73.4072 Q648.353 42.0797 623.321 42.0797 Q614.757 42.0797 609.121 47.8621 Q603.558 53.5713 603.558 61.696 Q603.558 68.2835 607.657 73.7 Q611.756 79.0432 618.709 80.7267 L637.887 85.338 Q647.475 87.607 653.916 96.0977 Q660.357 104.588 660.357 115.641 Q660.357 128.377 652.013 137.599 Q643.742 146.822 630.787 146.822 Q621.491 146.822 614.318 143.748 Q607.145 140.674 603.265 136.355 Q600.264 141.332 598.288 144.114 L597.849 144.846 Q596.678 146.822 595.58 146.822 Q594.409 146.822 594.189 146.09 Q593.969 145.358 593.969 143.235 Z" fill="#000000" fill-rule="nonzero" fill-opacity="1" /><path clip-path="url(#clip670)" d="M682.923 143.528 L682.923 138.917 L686.51 138.917 Q694.634 138.917 696.464 137.599 Q698.367 136.209 698.367 131.817 L698.367 52.8393 Q698.367 48.5208 696.464 47.2033 Q694.561 45.8126 686.51 45.8126 L682.923 45.8126 L682.923 41.1281 L737.746 41.1281 Q752.019 41.1281 761.535 48.8136 Q771.05 56.4259 771.05 66.4536 Q771.05 74.7247 764.023 81.3123 Q757.07 87.8998 746.164 90.0225 Q758.607 91.34 766.805 98.8791 Q775.076 106.345 775.076 116.08 Q775.076 127.059 765.634 135.33 Q756.192 143.528 741.699 143.528 L682.923 143.528 M710.811 132.915 Q710.811 136.794 711.908 137.892 Q713.006 138.917 718.13 138.917 L736.868 138.917 Q747.628 138.917 753.849 131.89 Q760.071 124.79 760.071 115.934 Q760.071 107.077 754.581 99.5378 Q749.165 91.9256 738.991 91.9256 L710.811 91.9256 L710.811 132.915 M710.811 88.6318 L732.55 88.6318 Q744.114 88.6318 750.263 81.6782 Q756.484 74.7247 756.484 66.4536 Q756.484 59.1341 751.507 52.4734 Q746.603 45.8126 736.722 45.8126 L718.13 45.8126 Q713.006 45.8126 711.908 46.8373 Q710.811 47.8621 710.811 51.8146 L710.811 88.6318 Z" fill="#000000" fill-rule="nonzero" fill-opacity="1" /><path clip-path="url(#clip670)" d="M832.996 107.882 Q829.555 107.882 829.555 106.052 Q829.555 104.222 833.142 104.222 Q833.581 104.222 834.313 104.296 Q835.118 104.369 835.265 104.369 L877.498 104.369 L877.498 61.9887 Q877.498 61.8423 877.425 61.1836 Q877.352 60.4516 877.352 60.0125 Q877.352 56.4259 879.109 56.4259 Q880.938 56.4259 880.938 60.0125 L880.938 104.369 L923.245 104.369 Q923.392 104.369 924.124 104.296 Q924.855 104.222 925.295 104.222 Q928.735 104.222 928.735 106.052 Q928.808 107.882 925.148 107.882 Q924.709 107.882 924.05 107.809 Q923.392 107.736 923.245 107.736 L880.938 107.736 L880.938 152.238 Q880.938 155.679 879.109 155.679 Q877.352 155.679 877.352 152.092 Q877.352 151.653 877.425 150.921 Q877.498 150.262 877.498 150.116 L877.498 107.736 L835.265 107.736 Q835.118 107.736 834.24 107.809 Q833.435 107.882 832.996 107.882 Z" fill="#000000" fill-rule="nonzero" fill-opacity="1" /><path clip-path="url(#clip670)" d="M986.627 143.528 L986.627 138.917 L990.213 138.917 Q998.338 138.917 1000.17 137.599 Q1002.07 136.209 1002.07 131.817 L1002.07 52.8393 Q1002.07 48.5208 1000.17 47.2033 Q998.265 45.8126 990.213 45.8126 L986.627 45.8126 L986.627 41.1281 L1039.55 41.1281 Q1054.7 41.1281 1064.8 49.4724 Q1074.9 57.8166 1074.9 69.0155 Q1074.9 80.1411 1064.58 88.1926 Q1054.33 96.1709 1040.72 96.1709 L1015.39 96.1709 L1015.39 131.817 Q1015.39 136.135 1017.22 137.526 Q1019.13 138.917 1027.25 138.917 L1030.84 138.917 L1030.84 143.528 Q1025.57 143.089 1008.66 143.089 Q991.897 143.089 986.627 143.528 M1014.95 92.2915 L1035.59 92.2915 Q1042.33 92.2915 1047.23 90.3885 Q1052.14 88.4854 1054.33 86.2163 Q1056.6 83.8741 1057.85 80.1411 Q1059.16 76.335 1059.31 74.2855 Q1059.46 72.1629 1059.46 69.0155 Q1059.46 65.7217 1059.31 63.6722 Q1059.16 61.5496 1057.85 57.8166 Q1056.6 54.0105 1054.33 51.7414 Q1052.14 49.3992 1047.23 47.6425 Q1042.4 45.8126 1035.59 45.8126 L1022.27 45.8126 Q1017.15 45.8126 1016.05 46.8373 Q1014.95 47.8621 1014.95 51.8146 L1014.95 92.2915 Z" fill="#000000" fill-rule="nonzero" fill-opacity="1" /><path clip-path="url(#clip670)" d="M1107.34 143.528 L1107.34 138.917 L1110.93 138.917 Q1119.05 138.917 1120.88 137.599 Q1122.78 136.209 1122.78 131.817 L1122.78 52.8393 Q1122.78 48.5208 1120.88 47.2033 Q1118.98 45.8126 1110.93 45.8126 L1107.34 45.8126 L1107.34 41.1281 L1162.16 41.1281 Q1176.44 41.1281 1185.95 48.8136 Q1195.47 56.4259 1195.47 66.4536 Q1195.47 74.7247 1188.44 81.3123 Q1181.49 87.8998 1170.58 90.0225 Q1183.02 91.34 1191.22 98.8791 Q1199.49 106.345 1199.49 116.08 Q1199.49 127.059 1190.05 135.33 Q1180.61 143.528 1166.11 143.528 L1107.34 143.528 M1135.23 132.915 Q1135.23 136.794 1136.32 137.892 Q1137.42 138.917 1142.55 138.917 L1161.28 138.917 Q1172.04 138.917 1178.27 131.89 Q1184.49 124.79 1184.49 115.934 Q1184.49 107.077 1179 99.5378 Q1173.58 91.9256 1163.41 91.9256 L1135.23 91.9256 L1135.23 132.915 M1135.23 88.6318 L1156.97 88.6318 Q1168.53 88.6318 1174.68 81.6782 Q1180.9 74.7247 1180.9 66.4536 Q1180.9 59.1341 1175.92 52.4734 Q1171.02 45.8126 1161.14 45.8126 L1142.55 45.8126 Q1137.42 45.8126 1136.32 46.8373 Q1135.23 47.8621 1135.23 51.8146 L1135.23 88.6318 Z" fill="#000000" fill-rule="nonzero" fill-opacity="1" /><path clip-path="url(#clip670)" d="M1345.14 59.6392 L1307.28 59.6392 L1307.28 56.3601 L1345.14 56.3601 L1345.14 59.6392 Z" fill="#000000" fill-rule="nonzero" fill-opacity="1" /><path clip-path="url(#clip670)" d="M1346.86 84.1669 Q1346.86 85.704 1345.54 86.9483 Q1344.29 88.1926 1342.76 88.1926 Q1341.88 88.1926 1339.76 86.7287 Q1333.68 82.4834 1325.99 82.4834 Q1319.11 82.4834 1312.75 84.1669 Q1306.38 85.8504 1302.06 89.2905 Q1297.81 92.6575 1297.81 97.0492 Q1297.81 102.539 1303.82 105.759 Q1310.04 102.905 1317.72 102.905 Q1320.21 102.905 1321.9 103.051 Q1323.65 103.198 1325.34 103.564 Q1327.02 103.93 1327.82 104.808 Q1328.7 105.613 1328.7 106.931 Q1328.7 111.615 1316.55 111.615 Q1308.65 111.615 1303.67 109.492 Q1297.3 112.64 1293.79 117.69 Q1290.28 122.741 1290.28 127.059 Q1290.28 130.792 1292.33 133.5 Q1294.45 136.209 1297.89 137.526 Q1301.4 138.844 1304.84 139.429 Q1308.35 139.942 1312.23 139.942 Q1318.6 139.942 1323.07 139.136 Q1327.61 138.258 1330.09 136.648 Q1332.66 135.037 1333.68 133.94 Q1334.78 132.768 1335.88 130.939 Q1336.54 129.914 1337.41 129.914 Q1338.07 129.914 1338.51 130.353 Q1339.02 130.719 1339.02 131.378 Q1339.02 132.183 1338 133.866 Q1337.05 135.55 1334.71 137.819 Q1332.44 140.015 1329.29 142.064 Q1326.21 144.04 1321.31 145.431 Q1316.41 146.822 1310.84 146.822 Q1299.5 146.822 1292.91 141.259 Q1286.4 135.696 1286.4 127.938 Q1286.4 122.521 1289.98 116.958 Q1293.64 111.322 1300.08 107.736 Q1294.08 103.271 1294.08 97.0492 Q1294.08 91.4864 1298.77 86.5091 Q1303.52 81.5318 1311.21 78.604 Q1318.97 75.603 1327.46 75.603 Q1332.22 75.603 1336.9 77.2133 Q1341.59 78.7504 1344.22 80.7267 Q1346.86 82.703 1346.86 84.1669 M1324.82 107.077 Q1321.6 106.199 1317.72 106.199 Q1312.45 106.199 1308.57 107.516 Q1311.72 108.321 1316.55 108.321 Q1320.58 108.321 1321.75 108.102 Q1322.99 107.882 1324.82 107.077 Z" fill="#000000" fill-rule="nonzero" fill-opacity="1" /><path clip-path="url(#clip670)" d="M1394.99 120.764 Q1395.13 118.935 1397.99 118.935 L1489.85 118.935 Q1494.17 118.935 1494.24 120.618 Q1494.24 122.448 1490.14 122.375 L1399.01 122.375 Q1394.99 122.448 1394.99 120.764 M1394.99 91.4864 Q1394.99 89.6565 1398.14 89.7297 L1489.7 89.7297 Q1494.17 89.7297 1494.24 91.4864 Q1494.24 93.1699 1490.43 93.1699 L1397.99 93.1699 Q1394.99 93.1699 1394.99 91.4864 Z" fill="#000000" fill-rule="nonzero" fill-opacity="1" /><path clip-path="url(#clip670)" d="M1552.06 73.0412 L1556.96 42.2261 L1560.7 42.2261 Q1561.14 44.0559 1561.87 44.8611 Q1562.67 45.6662 1566.92 46.325 Q1571.24 46.9837 1579.95 46.9837 L1616.32 46.9837 Q1616.32 50.4239 1615.01 52.2538 L1594.73 80.7267 Q1588.29 89.7297 1585.44 106.345 Q1583.75 117.471 1583.83 130.939 L1583.83 138.551 Q1583.83 146.822 1576.87 146.822 Q1569.99 146.822 1569.99 138.551 Q1569.99 109.932 1588.44 82.1906 Q1590.41 79.336 1597.66 69.1619 Q1604.98 58.9877 1605.27 58.5486 L1574.24 58.5486 Q1560.62 58.5486 1559.53 59.4269 Q1558.06 60.7444 1555.79 73.0412 L1552.06 73.0412 Z" fill="#000000" fill-rule="nonzero" fill-opacity="1" /><path clip-path="url(#clip670)" d="M1607.44 141.113 Q1605.17 138.697 1605.17 135.55 Q1605.17 132.402 1607.44 130.133 Q1609.71 127.791 1613.15 127.791 Q1616.44 127.791 1618.64 129.987 Q1620.91 132.11 1620.91 135.623 Q1620.91 139.063 1618.49 141.332 Q1616.15 143.528 1613.15 143.528 Q1609.71 143.528 1607.44 141.113 Z" fill="#000000" fill-rule="nonzero" fill-opacity="1" /><path clip-path="url(#clip670)" d="M1646.42 143.528 Q1646.42 140.82 1646.64 140.015 Q1646.93 139.21 1648.1 137.965 L1676.87 105.906 Q1692.6 88.1926 1692.6 72.7484 Q1692.6 62.7207 1687.33 55.5476 Q1682.14 48.3744 1672.55 48.3744 Q1665.96 48.3744 1660.4 52.4002 Q1654.84 56.4259 1652.27 63.599 Q1652.71 63.4526 1654.25 63.4526 Q1657.98 63.4526 1660.03 65.7949 Q1662.16 68.1371 1662.16 71.2845 Q1662.16 75.3103 1659.52 77.2865 Q1656.96 79.1896 1654.4 79.1896 Q1653.37 79.1896 1651.98 78.97 Q1650.66 78.7504 1648.54 76.701 Q1646.42 74.5783 1646.42 70.8454 Q1646.42 60.3784 1654.32 52.0342 Q1662.3 43.69 1674.45 43.69 Q1688.21 43.69 1697.22 51.8878 Q1706.29 60.0125 1706.29 72.7484 Q1706.29 77.2133 1704.9 81.3123 Q1703.58 85.338 1701.75 88.4854 Q1700 91.6328 1695.17 96.6832 Q1690.34 101.734 1686.46 105.32 Q1682.58 108.907 1673.87 116.519 L1657.98 131.963 L1684.99 131.963 Q1698.17 131.963 1699.19 130.792 Q1700.66 128.67 1702.49 117.471 L1706.29 117.471 L1702.05 143.528 L1646.42 143.528 Z" fill="#000000" fill-rule="nonzero" fill-opacity="1" /><path clip-path="url(#clip670)" d="M1721.25 77.4329 Q1721.25 69.4546 1723.59 64.0382 Q1725.94 58.5486 1730.84 53.1321 Q1739.84 43.69 1752.87 43.69 Q1758.44 43.69 1763.34 46.0322 Q1768.32 48.3744 1773 53.7177 Q1777.76 58.9877 1780.61 69.4546 Q1783.47 79.8484 1783.47 94.1946 Q1783.47 117.397 1772.2 132.11 Q1761 146.822 1745.85 146.822 Q1736.26 146.822 1730.62 142.503 Q1724.99 138.112 1724.99 130.646 Q1724.99 126.766 1727.18 125.156 Q1729.38 123.473 1731.87 123.473 Q1734.57 123.473 1736.7 125.303 Q1738.82 127.059 1738.82 130.353 Q1738.82 133.061 1737.06 135.184 Q1735.38 137.233 1730.99 137.233 Q1735.31 142.65 1745.7 142.65 Q1749.43 142.65 1753.17 140.966 Q1756.9 139.21 1760.92 135.037 Q1765.02 130.792 1767.51 121.936 Q1770 113.079 1770 100.636 L1770 95.8781 Q1764 110.883 1751.26 110.883 Q1738.67 110.883 1729.96 101.221 Q1721.25 91.5596 1721.25 77.4329 M1734.72 77.5793 Q1734.72 92.4379 1737.43 97.9276 Q1742.04 107.37 1751.41 107.37 Q1760.56 107.37 1765.1 99.2451 Q1769.71 91.0472 1769.71 80.4339 Q1769.71 65.7217 1767.29 59.2805 Q1762.83 47.4229 1752.87 47.4229 Q1742.99 47.4229 1737.87 56.8651 Q1734.72 62.4279 1734.72 77.5793 Z" fill="#000000" fill-rule="nonzero" fill-opacity="1" /><path clip-path="url(#clip670)" d="M1815.29 143.528 L1815.29 138.917 Q1823.27 138.917 1825.1 137.965 Q1826.93 136.941 1826.93 132.11 L1826.93 91.9256 Q1826.93 86.3627 1824.95 84.972 Q1823.05 83.5813 1815.29 83.5813 L1815.29 78.8968 L1836.37 77.2865 L1836.37 93.0235 Q1843.4 77.2865 1858.55 77.2865 Q1876.12 77.2865 1878.53 91.9256 Q1881.09 86.2163 1886.44 81.7514 Q1891.85 77.2865 1900.27 77.2865 Q1911.54 77.2865 1916.01 82.8494 Q1919.3 86.5823 1919.96 90.7544 Q1920.62 94.9266 1920.62 105.759 L1920.62 134.379 Q1920.77 137.526 1923.18 138.258 Q1925.6 138.917 1932.33 138.917 L1932.33 143.528 Q1917.03 143.089 1915.57 143.089 Q1914.4 143.089 1898.59 143.528 L1898.59 138.917 Q1906.57 138.917 1908.4 137.965 Q1910.3 136.941 1910.3 132.11 L1910.3 97.1956 Q1910.3 89.5833 1907.96 85.1184 Q1905.61 80.5803 1899.17 80.5803 Q1891.41 80.5803 1885.19 87.0947 Q1878.97 93.609 1878.97 104.588 L1878.97 132.11 Q1878.97 136.941 1880.8 137.965 Q1882.7 138.917 1890.68 138.917 L1890.68 143.528 Q1875.38 143.089 1873.85 143.089 Q1872.68 143.089 1856.94 143.528 L1856.94 138.917 Q1864.92 138.917 1866.75 137.965 Q1868.65 136.941 1868.65 132.11 L1868.65 97.1956 Q1868.65 89.5833 1866.31 85.1184 Q1863.97 80.5803 1857.52 80.5803 Q1849.77 80.5803 1843.54 87.0947 Q1837.32 93.609 1837.32 104.588 L1837.32 132.11 Q1837.32 136.941 1839.15 137.965 Q1841.06 138.917 1848.96 138.917 L1848.96 143.528 Q1833.66 143.089 1832.2 143.089 Q1831.03 143.089 1815.29 143.528 Z" fill="#000000" fill-rule="nonzero" fill-opacity="1" /><polyline clip-path="url(#clip672)" style="stroke:#0c60b7; stroke-linecap:round; stroke-linejoin:round; stroke-width:10; stroke-opacity:1; fill:none" points="1454.23,906.137 1777.02,928.069 "/>
<polyline clip-path="url(#clip672)" style="stroke:#0c60b7; stroke-linecap:round; stroke-linejoin:round; stroke-width:10; stroke-opacity:1; fill:none" points="1760.2,1287.34 1763.05,1290.81 "/>
<polyline clip-path="url(#clip672)" style="stroke:#0c60b7; stroke-linecap:round; stroke-linejoin:round; stroke-width:10; stroke-opacity:1; fill:none" points="1663.31,797.917 1679.35,789.142 "/>
<polyline clip-path="url(#clip672)" style="stroke:#0c60b7; stroke-linecap:round; stroke-linejoin:round; stroke-width:10; stroke-opacity:1; fill:none" points="1334.5,415.724 1332.26,407.215 "/>
<polyline clip-path="url(#clip672)" style="stroke:#0c60b7; stroke-linecap:round; stroke-linejoin:round; stroke-width:10; stroke-opacity:1; fill:none" points="972.319,871.673 970.033,871.102 "/>
<polyline clip-path="url(#clip672)" style="stroke:#0c60b7; stroke-linecap:round; stroke-linejoin:round; stroke-width:10; stroke-opacity:1; fill:none" points="718.804,1310.64 720.396,1310.2 "/>
<polyline clip-path="url(#clip672)" style="stroke:#0c60b7; stroke-linecap:round; stroke-linejoin:round; stroke-width:10; stroke-opacity:1; fill:none" points="1279.24,1456.77 1279.22,1459.64 "/>
<polyline clip-path="url(#clip672)" style="stroke:#0c60b7; stroke-linecap:round; stroke-linejoin:round; stroke-width:10; stroke-opacity:1; fill:none" points="1075.26,833.17 929.392,769.181 "/>
<polyline clip-path="url(#clip672)" style="stroke:#0c60b7; stroke-linecap:round; stroke-linejoin:round; stroke-width:10; stroke-opacity:1; fill:none" points="1078.32,989.038 722.148,864.812 "/>
<polyline clip-path="url(#clip672)" style="stroke:#0c60b7; stroke-linecap:round; stroke-linejoin:round; stroke-width:10; stroke-opacity:1; fill:none" points="1553.77,919.213 1557.37,919.272 "/>
<circle clip-path="url(#clip672)" cx="1454.23" cy="906.137" r="54" fill="#a6a6a6" fill-rule="evenodd" fill-opacity="1" stroke="#595959" stroke-opacity="1" stroke-width="8.64"/>
<circle clip-path="url(#clip672)" cx="1760.2" cy="1287.34" r="54" fill="#a6a6a6" fill-rule="evenodd" fill-opacity="1" stroke="#595959" stroke-opacity="1" stroke-width="8.64"/>
<circle clip-path="url(#clip672)" cx="1663.31" cy="797.917" r="54" fill="#a6a6a6" fill-rule="evenodd" fill-opacity="1" stroke="#595959" stroke-opacity="1" stroke-width="8.64"/>
<circle clip-path="url(#clip672)" cx="1334.5" cy="415.724" r="54" fill="#a6a6a6" fill-rule="evenodd" fill-opacity="1" stroke="#595959" stroke-opacity="1" stroke-width="8.64"/>
<circle clip-path="url(#clip672)" cx="972.319" cy="871.673" r="54" fill="#a6a6a6" fill-rule="evenodd" fill-opacity="1" stroke="#595959" stroke-opacity="1" stroke-width="8.64"/>
<circle clip-path="url(#clip672)" cx="718.804" cy="1310.64" r="54" fill="#a6a6a6" fill-rule="evenodd" fill-opacity="1" stroke="#595959" stroke-opacity="1" stroke-width="8.64"/>
<circle clip-path="url(#clip672)" cx="1279.24" cy="1456.77" r="54" fill="#a6a6a6" fill-rule="evenodd" fill-opacity="1" stroke="#595959" stroke-opacity="1" stroke-width="8.64"/>
<circle clip-path="url(#clip672)" cx="1075.26" cy="833.17" r="54" fill="#a6a6a6" fill-rule="evenodd" fill-opacity="1" stroke="#595959" stroke-opacity="1" stroke-width="8.64"/>
<circle clip-path="url(#clip672)" cx="1078.32" cy="989.038" r="54" fill="#a6a6a6" fill-rule="evenodd" fill-opacity="1" stroke="#595959" stroke-opacity="1" stroke-width="8.64"/>
<circle clip-path="url(#clip672)" cx="1553.77" cy="919.213" r="54" fill="#a6a6a6" fill-rule="evenodd" fill-opacity="1" stroke="#595959" stroke-opacity="1" stroke-width="8.64"/>
<path clip-path="url(#clip672)" d="M1777.02 868.069 L1717.02 928.069 L1777.02 988.069 L1837.02 928.069 L1777.02 868.069 Z" fill="#0c60b7" fill-rule="evenodd" fill-opacity="0.5" stroke="#000000" stroke-opacity="0.5" stroke-width="8.64"/>
<path clip-path="url(#clip672)" d="M1763.05 1230.81 L1703.05 1290.81 L1763.05 1350.81 L1823.05 1290.81 L1763.05 1230.81 Z" fill="#0c60b7" fill-rule="evenodd" fill-opacity="0.5" stroke="#000000" stroke-opacity="0.5" stroke-width="8.64"/>
<path clip-path="url(#clip672)" d="M1679.35 729.142 L1619.35 789.142 L1679.35 849.142 L1739.35 789.142 L1679.35 729.142 Z" fill="#0c60b7" fill-rule="evenodd" fill-opacity="0.5" stroke="#000000" stroke-opacity="0.5" stroke-width="8.64"/>
<path clip-path="url(#clip672)" d="M1332.26 347.215 L1272.26 407.215 L1332.26 467.215 L1392.26 407.215 L1332.26 347.215 Z" fill="#0c60b7" fill-rule="evenodd" fill-opacity="0.5" stroke="#000000" stroke-opacity="0.5" stroke-width="8.64"/>
<path clip-path="url(#clip672)" d="M970.033 811.102 L910.033 871.102 L970.033 931.102 L1030.03 871.102 L970.033 811.102 Z" fill="#0c60b7" fill-rule="evenodd" fill-opacity="0.5" stroke="#000000" stroke-opacity="0.5" stroke-width="8.64"/>
<path clip-path="url(#clip672)" d="M720.396 1250.2 L660.396 1310.2 L720.396 1370.2 L780.396 1310.2 L720.396 1250.2 Z" fill="#0c60b7" fill-rule="evenodd" fill-opacity="0.5" stroke="#000000" stroke-opacity="0.5" stroke-width="8.64"/>
<path clip-path="url(#clip672)" d="M1279.22 1399.64 L1219.22 1459.64 L1279.22 1519.64 L1339.22 1459.64 L1279.22 1399.64 Z" fill="#0c60b7" fill-rule="evenodd" fill-opacity="0.5" stroke="#000000" stroke-opacity="0.5" stroke-width="8.64"/>
<path clip-path="url(#clip672)" d="M929.392 709.181 L869.392 769.181 L929.392 829.181 L989.392 769.181 L929.392 709.181 Z" fill="#0c60b7" fill-rule="evenodd" fill-opacity="0.5" stroke="#000000" stroke-opacity="0.5" stroke-width="8.64"/>
<path clip-path="url(#clip672)" d="M722.148 804.812 L662.148 864.812 L722.148 924.812 L782.148 864.812 L722.148 804.812 Z" fill="#0c60b7" fill-rule="evenodd" fill-opacity="0.5" stroke="#000000" stroke-opacity="0.5" stroke-width="8.64"/>
<path clip-path="url(#clip672)" d="M1557.37 859.272 L1497.37 919.272 L1557.37 979.272 L1617.37 919.272 L1557.37 859.272 Z" fill="#0c60b7" fill-rule="evenodd" fill-opacity="0.5" stroke="#000000" stroke-opacity="0.5" stroke-width="8.64"/>
<path clip-path="url(#clip670)" d="M1541.77 566.997 L2324.43 566.997 L2324.43 178.197 L1541.77 178.197  Z" fill="#ffffff" fill-rule="evenodd" fill-opacity="0.92"/>
<polyline clip-path="url(#clip670)" style="stroke:#000000; stroke-linecap:round; stroke-linejoin:round; stroke-width:4; stroke-opacity:1; fill:none" points="1541.77,566.997 2324.43,566.997 2324.43,178.197 1541.77,178.197 1541.77,566.997 "/>
<circle clip-path="url(#clip670)" cx="1642.53" cy="307.797" r="54" fill="#a6a6a6" fill-rule="evenodd" fill-opacity="1" stroke="#595959" stroke-opacity="1" stroke-width="8.64"/>
<path clip-path="url(#clip670)" d="M1743.29 293.809 L1745.7 265.4 L1822.96 265.4 L1825.37 293.809 L1822.22 293.809 Q1821.72 288.127 1821.23 284.854 Q1820.8 281.581 1819.68 278.493 Q1818.63 275.343 1817.28 273.861 Q1815.98 272.317 1813.45 271.144 Q1810.91 269.909 1807.64 269.6 Q1804.37 269.291 1799.43 269.291 Q1793.62 269.291 1792.2 269.538 Q1790.66 269.909 1790.29 271.02 Q1789.92 272.07 1789.92 274.355 L1789.92 340.992 Q1789.92 343.525 1790.41 344.574 Q1790.97 345.563 1793.87 346.365 Q1796.77 347.107 1803.19 347.107 L1808.26 347.107 L1808.26 350.997 Q1803.07 350.627 1784.24 350.627 Q1765.52 350.627 1760.33 350.997 L1760.33 347.107 L1765.4 347.107 Q1771.82 347.107 1774.72 346.365 Q1777.69 345.563 1778.18 344.574 Q1778.68 343.525 1778.68 340.992 L1778.68 274.355 Q1778.68 272.564 1778.55 271.823 Q1778.43 271.082 1777.87 270.464 Q1777.32 269.785 1776.02 269.538 Q1774.79 269.291 1769.23 269.291 Q1764.29 269.291 1760.95 269.6 Q1757.68 269.909 1755.15 271.144 Q1752.61 272.317 1751.26 273.861 Q1749.96 275.343 1748.85 278.493 Q1747.8 281.581 1747.37 284.854 Q1746.93 288.127 1746.44 293.809 L1743.29 293.809 Z" fill="#000000" fill-rule="nonzero" fill-opacity="1" /><path clip-path="url(#clip670)" d="M1823.02 350.997 L1823.02 347.107 Q1829.75 347.107 1831.29 346.304 Q1832.9 345.439 1832.9 341.363 L1832.9 307.458 Q1832.9 302.764 1831.23 301.591 Q1829.63 300.417 1823.02 300.417 L1823.02 296.465 L1840.62 295.106 L1840.62 309.002 Q1842.41 303.567 1846.18 299.367 Q1850.01 295.106 1856.18 295.106 Q1860.26 295.106 1862.85 297.391 Q1865.51 299.676 1865.51 302.826 Q1865.51 305.605 1863.78 307.025 Q1862.11 308.384 1860.07 308.384 Q1857.79 308.384 1856.18 306.964 Q1854.64 305.481 1854.64 302.949 Q1854.64 301.405 1855.32 300.232 Q1856.06 298.997 1856.62 298.564 Q1857.17 298.132 1857.54 298.009 Q1857.3 297.885 1856.18 297.885 Q1849.2 297.885 1845.19 304.864 Q1841.24 311.781 1841.24 321.662 L1841.24 341.116 Q1841.24 344.76 1842.72 345.933 Q1844.26 347.107 1850.87 347.107 L1853.53 347.107 L1853.53 350.997 Q1848.46 350.627 1837.47 350.627 Q1835.93 350.627 1833.52 350.688 Q1831.11 350.75 1827.96 350.874 Q1824.81 350.997 1823.02 350.997 Z" fill="#000000" fill-rule="nonzero" fill-opacity="1" /><path clip-path="url(#clip670)" d="M1872.98 300.417 L1872.98 296.465 L1891.57 295.106 L1891.57 337.102 Q1891.57 340.128 1891.82 341.919 Q1892.07 343.648 1893.05 345.686 Q1894.1 347.724 1896.45 348.65 Q1898.86 349.577 1902.69 349.577 Q1909.54 349.577 1913.74 343.957 Q1918 338.337 1918 329.999 L1918 307.458 Q1918 302.764 1916.34 301.591 Q1914.67 300.417 1908.12 300.417 L1908.12 296.465 L1926.71 295.106 L1926.71 340.004 Q1926.71 344.698 1928.32 345.933 Q1929.98 347.107 1936.59 347.107 L1936.59 350.997 L1918.37 352.418 L1918.37 340.992 Q1913.06 352.356 1902.07 352.418 Q1896.51 352.418 1892.68 350.997 Q1888.92 349.577 1887 347.848 Q1885.09 346.057 1884.04 342.66 Q1883.05 339.263 1882.93 337.163 Q1882.8 335.064 1882.8 330.988 L1882.8 312.028 Q1882.8 303.443 1881.57 301.961 Q1880.33 300.417 1872.98 300.417 Z" fill="#000000" fill-rule="nonzero" fill-opacity="1" /><path clip-path="url(#clip670)" d="M1942.58 323.144 Q1942.58 311.225 1950.24 302.764 Q1957.9 294.303 1968.89 294.303 Q1980.01 294.303 1985.75 301.529 Q1991.56 308.755 1991.56 319.13 Q1991.56 321.044 1991.06 321.415 Q1990.57 321.786 1988.41 321.786 L1953.08 321.786 Q1953.08 334.693 1956.91 340.745 Q1962.22 349.206 1971.18 349.206 Q1972.41 349.206 1973.9 348.959 Q1975.38 348.712 1978.4 347.662 Q1981.43 346.551 1984.09 343.648 Q1986.74 340.745 1988.28 336.175 Q1988.66 334.384 1989.89 334.446 Q1991.56 334.446 1991.56 335.928 Q1991.56 337.04 1990.32 339.572 Q1989.15 342.042 1986.86 345.007 Q1984.58 347.971 1980.13 350.194 Q1975.75 352.418 1970.44 352.418 Q1959.32 352.418 1950.92 344.019 Q1942.58 335.558 1942.58 323.144 M1953.21 319.13 L1983.22 319.13 Q1983.22 316.474 1982.73 313.51 Q1982.29 310.546 1980.94 306.469 Q1979.64 302.332 1976.55 299.738 Q1973.46 297.144 1968.89 297.144 Q1966.85 297.144 1964.63 298.009 Q1962.47 298.873 1959.81 300.973 Q1957.16 303.073 1955.31 307.828 Q1953.45 312.584 1953.21 319.13 Z" fill="#000000" fill-rule="nonzero" fill-opacity="1" /><path clip-path="url(#clip670)" d="M2040.78 371.625 Q2047.51 371.625 2049.06 370.76 Q2050.66 369.957 2050.66 365.943 L2050.66 306.717 Q2050.66 302.517 2049.06 301.467 Q2047.51 300.417 2040.78 300.417 L2040.78 296.465 L2059 295.106 L2059 303.443 Q2066.59 295.106 2076.72 295.106 Q2087.47 295.106 2095.31 303.443 Q2103.16 311.781 2103.16 323.7 Q2103.16 335.743 2094.82 344.08 Q2086.48 352.418 2074.93 352.418 Q2068.63 352.418 2064.37 349.206 Q2060.17 345.933 2059.37 343.525 L2059.37 344.698 L2059.37 365.943 Q2059.37 370.019 2060.97 370.822 Q2062.58 371.625 2069.25 371.625 L2069.25 375.515 Q2055.97 375.145 2054.98 375.145 Q2053.75 375.145 2040.78 375.515 L2040.78 371.625 M2059.37 336.608 Q2059.37 338.522 2059.62 339.201 Q2059.92 339.881 2061.16 341.919 Q2066.16 349.577 2074.31 349.577 Q2074.38 349.577 2074.44 349.577 Q2081.66 349.577 2087.16 342.228 Q2092.66 334.817 2092.66 323.7 Q2092.66 313.078 2087.65 305.667 Q2082.65 298.256 2075.73 298.256 Q2070.79 298.256 2066.47 300.911 Q2062.15 303.567 2059.37 308.384 L2059.37 336.608 Z" fill="#000000" fill-rule="nonzero" fill-opacity="1" /><path clip-path="url(#clip670)" d="M2122.79 344.204 Q2114.46 335.928 2114.46 323.947 Q2114.46 311.904 2122.61 303.135 Q2130.82 294.303 2142.56 294.303 Q2154.04 294.303 2162.26 303.073 Q2170.53 311.781 2170.53 323.947 Q2170.53 335.866 2162.2 344.142 Q2153.92 352.418 2142.43 352.418 Q2131.19 352.418 2122.79 344.204 M2124.96 322.897 Q2124.96 335.187 2128.17 340.745 Q2133.11 349.206 2142.56 349.206 Q2147.25 349.206 2151.14 346.674 Q2155.09 344.142 2157.26 339.881 Q2160.03 334.323 2160.03 322.897 Q2160.03 310.731 2156.7 305.358 Q2151.76 297.144 2142.43 297.144 Q2138.36 297.144 2134.34 299.306 Q2130.39 301.405 2127.98 305.605 Q2124.96 311.163 2124.96 322.897 Z" fill="#000000" fill-rule="nonzero" fill-opacity="1" /><path clip-path="url(#clip670)" d="M2178.38 349.33 L2178.38 332.655 Q2178.38 331.235 2178.44 330.741 Q2178.5 330.246 2178.87 329.876 Q2179.24 329.505 2179.98 329.505 Q2180.85 329.505 2181.16 329.876 Q2181.53 330.246 2181.77 331.667 Q2183.69 340.375 2187.76 345.007 Q2191.9 349.577 2199.38 349.577 Q2206.48 349.577 2210.06 346.427 Q2213.64 343.277 2213.64 338.09 Q2213.64 328.826 2200.49 326.479 Q2192.89 324.935 2189.74 323.947 Q2186.59 322.897 2183.81 320.612 Q2178.38 316.166 2178.38 309.866 Q2178.38 303.567 2183.13 298.935 Q2187.95 294.303 2198.57 294.303 Q2205.67 294.303 2210.49 297.885 Q2211.91 296.773 2212.65 295.847 Q2214.32 294.303 2215.19 294.303 Q2216.17 294.303 2216.36 294.982 Q2216.54 295.6 2216.54 297.391 L2216.54 310.113 Q2216.54 311.534 2216.48 312.028 Q2216.42 312.522 2216.05 312.892 Q2215.68 313.201 2214.88 313.201 Q2213.46 313.201 2213.39 312.028 Q2212.41 296.712 2198.57 296.712 Q2191.1 296.712 2187.76 299.614 Q2184.43 302.455 2184.43 306.346 Q2184.43 308.508 2185.42 310.175 Q2186.47 311.781 2187.76 312.769 Q2189.12 313.695 2191.59 314.622 Q2194.06 315.486 2195.55 315.795 Q2197.09 316.104 2199.99 316.721 Q2210.12 318.636 2214.38 322.774 Q2219.69 328.085 2219.69 334.817 Q2219.69 342.289 2214.63 347.354 Q2209.57 352.418 2199.38 352.418 Q2191.16 352.418 2185.42 346.921 Q2184.68 347.662 2184.12 348.342 Q2183.56 348.959 2183.32 349.206 Q2183.13 349.453 2183.07 349.639 Q2183.01 349.762 2182.89 349.886 Q2180.35 352.418 2179.74 352.418 Q2178.75 352.418 2178.56 351.738 Q2178.38 351.121 2178.38 349.33 Z" fill="#000000" fill-rule="nonzero" fill-opacity="1" /><path clip-path="url(#clip670)" d="M2236.62 348.959 Q2234.7 346.921 2234.7 344.266 Q2234.7 341.61 2236.62 339.695 Q2238.53 337.719 2241.43 337.719 Q2244.21 337.719 2246.06 339.572 Q2247.98 341.363 2247.98 344.327 Q2247.98 347.23 2245.94 349.145 Q2243.96 350.997 2241.43 350.997 Q2238.53 350.997 2236.62 348.959 Z" fill="#000000" fill-rule="nonzero" fill-opacity="1" /><path clip-path="url(#clip670)" d="M1642.53 377.397 L1582.53 437.397 L1642.53 497.397 L1702.53 437.397 L1642.53 377.397 Z" fill="#0c60b7" fill-rule="evenodd" fill-opacity="0.5" stroke="#000000" stroke-opacity="0.5" stroke-width="8.64"/>
<path clip-path="url(#clip670)" d="M1743.29 480.597 L1743.29 476.707 L1746.32 476.707 Q1753.17 476.707 1754.71 475.595 Q1756.32 474.421 1756.32 470.716 L1756.32 404.449 Q1756.32 400.805 1754.71 399.694 Q1753.11 398.52 1746.32 398.52 L1743.29 398.52 L1743.29 394.568 L1814.5 394.568 L1818.02 423.038 L1814.87 423.038 Q1814 415.813 1812.83 411.675 Q1811.72 407.475 1808.94 404.264 Q1806.22 401.052 1801.71 399.817 Q1797.27 398.52 1790.04 398.52 L1773.74 398.52 Q1769.41 398.52 1768.49 399.447 Q1767.56 400.311 1767.56 403.585 L1767.56 433.908 L1778.92 433.908 Q1787.63 433.908 1790.1 430.882 Q1792.57 427.856 1792.57 419.148 L1795.78 419.148 L1795.78 452.621 L1792.57 452.621 Q1792.57 444.036 1790.1 440.948 Q1787.63 437.86 1778.92 437.86 L1767.56 437.86 L1767.56 471.642 Q1767.56 474.916 1768.49 475.842 Q1769.47 476.707 1773.74 476.707 L1790.6 476.707 Q1796.03 476.707 1799.98 476.027 Q1804 475.286 1806.78 473.557 Q1809.56 471.766 1811.41 469.728 Q1813.32 467.69 1814.62 464.046 Q1815.98 460.341 1816.72 456.944 Q1817.52 453.547 1818.39 447.989 L1821.54 447.989 L1816.23 480.597 L1743.29 480.597 Z" fill="#000000" fill-rule="nonzero" fill-opacity="1" /><path clip-path="url(#clip670)" d="M1829.26 478.93 L1829.26 462.255 Q1829.26 460.835 1829.32 460.341 Q1829.38 459.846 1829.75 459.476 Q1830.12 459.105 1830.86 459.105 Q1831.73 459.105 1832.04 459.476 Q1832.41 459.846 1832.65 461.267 Q1834.57 469.975 1838.64 474.607 Q1842.78 479.177 1850.25 479.177 Q1857.36 479.177 1860.94 476.027 Q1864.52 472.877 1864.52 467.69 Q1864.52 458.426 1851.37 456.079 Q1843.77 454.535 1840.62 453.547 Q1837.47 452.497 1834.69 450.212 Q1829.26 445.766 1829.26 439.466 Q1829.26 433.167 1834.01 428.535 Q1838.83 423.903 1849.45 423.903 Q1856.55 423.903 1861.37 427.485 Q1862.79 426.373 1863.53 425.447 Q1865.2 423.903 1866.06 423.903 Q1867.05 423.903 1867.24 424.582 Q1867.42 425.2 1867.42 426.991 L1867.42 439.713 Q1867.42 441.134 1867.36 441.628 Q1867.3 442.122 1866.93 442.492 Q1866.56 442.801 1865.76 442.801 Q1864.34 442.801 1864.27 441.628 Q1863.29 426.312 1849.45 426.312 Q1841.98 426.312 1838.64 429.214 Q1835.31 432.055 1835.31 435.946 Q1835.31 438.108 1836.3 439.775 Q1837.35 441.381 1838.64 442.369 Q1840 443.295 1842.47 444.222 Q1844.94 445.086 1846.43 445.395 Q1847.97 445.704 1850.87 446.321 Q1861 448.236 1865.26 452.374 Q1870.57 457.685 1870.57 464.417 Q1870.57 471.889 1865.51 476.954 Q1860.44 482.018 1850.25 482.018 Q1842.04 482.018 1836.3 476.521 Q1835.56 477.262 1835 477.942 Q1834.44 478.559 1834.2 478.806 Q1834.01 479.053 1833.95 479.239 Q1833.89 479.362 1833.77 479.486 Q1831.23 482.018 1830.62 482.018 Q1829.63 482.018 1829.44 481.338 Q1829.26 480.721 1829.26 478.93 Z" fill="#000000" fill-rule="nonzero" fill-opacity="1" /><path clip-path="url(#clip670)" d="M1877.24 430.017 L1877.24 427.238 Q1883.05 426.991 1886.88 422.915 Q1890.77 418.777 1892.07 413.713 Q1893.42 408.649 1893.55 402.782 L1896.7 402.782 L1896.7 426.065 L1914.79 426.065 L1914.79 430.017 L1896.7 430.017 L1896.7 465.158 Q1896.7 478.806 1905.22 478.806 Q1908.86 478.806 1911.27 475.101 Q1913.68 471.334 1913.68 464.664 L1913.68 457.685 L1916.83 457.685 L1916.83 464.911 Q1916.83 471.766 1913.68 476.892 Q1910.53 482.018 1904.29 482.018 Q1902.01 482.018 1899.72 481.4 Q1897.5 480.844 1894.54 479.362 Q1891.63 477.818 1889.78 474.113 Q1887.99 470.345 1887.99 464.911 L1887.99 430.017 L1877.24 430.017 Z" fill="#000000" fill-rule="nonzero" fill-opacity="1" /><path clip-path="url(#clip670)" d="M1928.07 480.597 L1928.07 476.707 Q1934.8 476.707 1936.35 475.904 Q1937.89 475.039 1937.89 470.963 L1937.89 436.934 Q1937.89 432.24 1936.28 431.129 Q1934.74 430.017 1928.56 430.017 L1928.56 426.065 L1946.23 424.706 L1946.23 471.086 Q1946.23 474.854 1947.59 475.78 Q1948.94 476.707 1955.12 476.707 L1955.12 480.597 Q1942.21 480.227 1941.97 480.227 Q1940.24 480.227 1928.07 480.597 M1933.38 402.658 Q1933.38 400.126 1935.3 398.088 Q1937.27 395.988 1940.05 395.988 Q1942.83 395.988 1944.81 397.903 Q1946.78 399.756 1946.78 402.72 Q1946.78 405.623 1944.81 407.537 Q1942.83 409.39 1940.05 409.39 Q1937.15 409.39 1935.23 407.352 Q1933.38 405.314 1933.38 402.658 Z" fill="#000000" fill-rule="nonzero" fill-opacity="1" /><path clip-path="url(#clip670)" d="M1962.96 480.597 L1962.96 476.707 Q1969.7 476.707 1971.24 475.904 Q1972.78 475.039 1972.78 470.963 L1972.78 437.058 Q1972.78 432.364 1971.12 431.191 Q1969.51 430.017 1962.96 430.017 L1962.96 426.065 L1980.75 424.706 L1980.75 437.984 Q1986.68 424.706 1999.46 424.706 Q2014.29 424.706 2016.32 437.058 Q2018.48 432.24 2022.99 428.473 Q2027.56 424.706 2034.67 424.706 Q2044.18 424.706 2047.94 429.4 Q2050.72 432.549 2051.28 436.069 Q2051.83 439.59 2051.83 448.73 L2051.83 472.877 Q2051.96 475.533 2054 476.151 Q2056.03 476.707 2061.72 476.707 L2061.72 480.597 Q2048.81 480.227 2047.57 480.227 Q2046.58 480.227 2033.24 480.597 L2033.24 476.707 Q2039.98 476.707 2041.52 475.904 Q2043.13 475.039 2043.13 470.963 L2043.13 441.504 Q2043.13 435.081 2041.15 431.314 Q2039.17 427.485 2033.74 427.485 Q2027.19 427.485 2021.94 432.982 Q2016.69 438.478 2016.69 447.742 L2016.69 470.963 Q2016.69 475.039 2018.24 475.904 Q2019.84 476.707 2026.58 476.707 L2026.58 480.597 Q2013.67 480.227 2012.37 480.227 Q2011.38 480.227 1998.1 480.597 L1998.1 476.707 Q2004.84 476.707 2006.38 475.904 Q2007.99 475.039 2007.99 470.963 L2007.99 441.504 Q2007.99 435.081 2006.01 431.314 Q2004.03 427.485 1998.6 427.485 Q1992.05 427.485 1986.8 432.982 Q1981.55 438.478 1981.55 447.742 L1981.55 470.963 Q1981.55 475.039 1983.1 475.904 Q1984.7 476.707 1991.37 476.707 L1991.37 480.597 Q1978.47 480.227 1977.23 480.227 Q1976.24 480.227 1962.96 480.597 Z" fill="#000000" fill-rule="nonzero" fill-opacity="1" /><path clip-path="url(#clip670)" d="M2069.5 468.554 Q2069.5 457.808 2082.16 452.127 Q2089.75 448.483 2105.44 447.557 L2105.44 442.925 Q2105.44 435.081 2101.3 430.944 Q2097.23 426.744 2092.04 426.744 Q2082.78 426.744 2078.33 432.549 Q2082.1 432.673 2083.45 434.587 Q2084.81 436.44 2084.81 438.355 Q2084.81 440.887 2083.21 442.554 Q2081.66 444.16 2079.01 444.16 Q2076.48 444.16 2074.81 442.616 Q2073.14 441.01 2073.14 438.231 Q2073.14 432.055 2078.7 427.979 Q2084.32 423.903 2092.29 423.903 Q2102.66 423.903 2109.58 430.882 Q2111.74 433.043 2112.79 435.822 Q2113.9 438.602 2114.02 440.454 Q2114.15 442.245 2114.15 445.827 L2114.15 471.086 Q2114.15 471.828 2114.4 473.063 Q2114.64 474.298 2115.75 475.904 Q2116.93 477.448 2118.84 477.448 Q2123.41 477.448 2123.35 469.357 L2123.35 462.255 L2126.56 462.255 L2126.56 469.357 Q2126.56 476.089 2122.98 478.745 Q2119.46 481.338 2116.19 481.338 Q2111.99 481.338 2109.33 478.25 Q2106.68 475.163 2106.31 470.963 Q2104.39 475.78 2100.01 478.93 Q2095.68 482.018 2089.75 482.018 Q2085.18 482.018 2080.86 480.844 Q2076.6 479.733 2073.02 476.583 Q2069.5 473.372 2069.5 468.554 M2079.25 468.431 Q2079.25 473.125 2082.59 476.151 Q2085.92 479.177 2090.62 479.177 Q2095.93 479.177 2100.69 475.101 Q2105.44 470.963 2105.44 462.873 L2105.44 450.212 Q2091.42 450.706 2085.31 456.326 Q2079.25 461.884 2079.25 468.431 Z" fill="#000000" fill-rule="nonzero" fill-opacity="1" /><path clip-path="url(#clip670)" d="M2129.84 430.017 L2129.84 427.238 Q2135.64 426.991 2139.47 422.915 Q2143.36 418.777 2144.66 413.713 Q2146.02 408.649 2146.14 402.782 L2149.29 402.782 L2149.29 426.065 L2167.38 426.065 L2167.38 430.017 L2149.29 430.017 L2149.29 465.158 Q2149.29 478.806 2157.81 478.806 Q2161.46 478.806 2163.86 475.101 Q2166.27 471.334 2166.27 464.664 L2166.27 457.685 L2169.42 457.685 L2169.42 464.911 Q2169.42 471.766 2166.27 476.892 Q2163.12 482.018 2156.89 482.018 Q2154.6 482.018 2152.32 481.4 Q2150.09 480.844 2147.13 479.362 Q2144.22 477.818 2142.37 474.113 Q2140.58 470.345 2140.58 464.911 L2140.58 430.017 L2129.84 430.017 Z" fill="#000000" fill-rule="nonzero" fill-opacity="1" /><path clip-path="url(#clip670)" d="M2179.98 452.744 Q2179.98 440.825 2187.64 432.364 Q2195.3 423.903 2206.29 423.903 Q2217.41 423.903 2223.15 431.129 Q2228.96 438.355 2228.96 448.73 Q2228.96 450.644 2228.46 451.015 Q2227.97 451.386 2225.81 451.386 L2190.48 451.386 Q2190.48 464.293 2194.31 470.345 Q2199.62 478.806 2208.58 478.806 Q2209.81 478.806 2211.29 478.559 Q2212.78 478.312 2215.8 477.262 Q2218.83 476.151 2221.48 473.248 Q2224.14 470.345 2225.68 465.775 Q2226.05 463.984 2227.29 464.046 Q2228.96 464.046 2228.96 465.528 Q2228.96 466.64 2227.72 469.172 Q2226.55 471.642 2224.26 474.607 Q2221.98 477.571 2217.53 479.794 Q2213.15 482.018 2207.84 482.018 Q2196.72 482.018 2188.32 473.619 Q2179.98 465.158 2179.98 452.744 M2190.61 448.73 L2220.62 448.73 Q2220.62 446.074 2220.13 443.11 Q2219.69 440.146 2218.33 436.069 Q2217.04 431.932 2213.95 429.338 Q2210.86 426.744 2206.29 426.744 Q2204.25 426.744 2202.03 427.609 Q2199.87 428.473 2197.21 430.573 Q2194.56 432.673 2192.71 437.428 Q2190.85 442.184 2190.61 448.73 Z" fill="#000000" fill-rule="nonzero" fill-opacity="1" /><path clip-path="url(#clip670)" d="M2236.92 453.424 Q2236.92 441.381 2245.32 433.043 Q2253.72 424.706 2265.09 424.706 Q2274.72 424.706 2281.02 432.549 L2281.02 405.19 Q2281.02 400.497 2279.35 399.323 Q2277.75 398.15 2271.2 398.15 L2271.2 394.197 L2289.42 392.839 L2289.42 469.604 Q2289.42 474.298 2291.02 475.533 Q2292.69 476.707 2299.24 476.707 L2299.24 480.597 L2280.65 482.018 L2280.65 473.619 Q2274.1 481.956 2263.73 482.018 Q2252.86 482.018 2244.89 473.68 Q2236.92 465.343 2236.92 453.424 M2247.42 453.547 Q2247.42 465.281 2251.07 471.086 Q2256.13 479.177 2264.34 479.177 Q2273.73 479.177 2279.29 470.345 Q2280.71 468.184 2280.65 465.652 L2280.65 439.713 Q2280.65 437.181 2279.29 435.081 Q2274.1 427.485 2265.64 427.485 Q2256.81 427.485 2251.31 435.575 Q2247.42 441.628 2247.42 453.547 Z" fill="#000000" fill-rule="nonzero" fill-opacity="1" /></svg>
